<svg width="246" height="180" viewBox="0 0 246 180" fill="none" xmlns="http://www.w3.org/2000/svg">
<g clip-path="url(#clip0_85_511)">
<mask id="path-1-inside-1_85_511" fill="white">
<path d="M0 0H246V180H0V0Z"/>
</mask>
<path d="M0 0H246V180H0V0Z" fill="#D9F339"/>
<path d="M81.8848 138H80.1598V127.35H84.4948C86.6398 127.35 88.1398 128.46 88.1398 130.53V130.77C88.1398 132.84 86.6398 133.95 84.4948 133.95H81.8848V138ZM81.8848 128.82V132.48H84.3598C85.5598 132.48 86.3548 131.94 86.3548 130.77V130.53C86.3548 129.36 85.5598 128.82 84.3598 128.82H81.8848ZM91.0072 138H89.3572V130.275H90.9472L90.9922 131.775C91.4122 130.785 92.2222 130.125 93.3322 130.125C93.4522 130.125 93.6172 130.14 93.7522 130.17V131.775C93.6022 131.76 93.4222 131.745 93.2422 131.745C91.8472 131.745 91.0072 132.54 91.0072 134.07V138ZM98.1117 138.195C95.7117 138.195 94.2867 136.59 94.2867 134.25V134.025C94.2867 131.685 95.7417 130.095 98.1117 130.095C100.647 130.095 101.877 131.865 101.757 134.505H95.9817C96.0567 136.05 96.8067 136.875 98.1117 136.875C99.1917 136.875 99.8367 136.365 100.062 135.585H101.712C101.337 137.205 100.047 138.195 98.1117 138.195ZM96.0117 133.32H100.062C99.9417 132.12 99.3117 131.4 98.0967 131.4C96.8967 131.4 96.1917 132.06 96.0117 133.32ZM104.762 140.55H103.097V130.275H104.642L104.687 131.55C105.062 130.815 105.962 130.095 107.282 130.095C109.307 130.095 110.582 131.715 110.582 134.025V134.25C110.582 136.56 109.277 138.195 107.237 138.195C106.037 138.195 105.182 137.565 104.762 136.83V140.55ZM106.832 136.86C108.152 136.86 108.902 135.915 108.902 134.25V134.025C108.902 132.36 108.152 131.4 106.832 131.4C105.452 131.4 104.702 132.36 104.702 134.025V134.25C104.702 135.915 105.452 136.86 106.832 136.86ZM114.151 138.195C112.561 138.195 111.556 137.235 111.556 135.915C111.556 134.685 112.306 133.875 113.626 133.695L116.671 133.245V132.69C116.671 131.835 116.086 131.385 115.111 131.385C114.151 131.385 113.506 131.82 113.431 132.6H111.856C111.991 131.01 113.251 130.095 115.141 130.095C117.136 130.095 118.261 131.145 118.261 132.75V138H116.746L116.686 136.8C116.206 137.67 115.261 138.195 114.151 138.195ZM114.526 136.89C115.681 136.89 116.671 136.17 116.671 135.165V134.46L114.196 134.805C113.491 134.91 113.161 135.24 113.161 135.84C113.161 136.485 113.656 136.89 114.526 136.89ZM121.52 138H119.87V130.275H121.46L121.505 131.775C121.925 130.785 122.735 130.125 123.845 130.125C123.965 130.125 124.13 130.14 124.265 130.17V131.775C124.115 131.76 123.935 131.745 123.755 131.745C122.36 131.745 121.52 132.54 121.52 134.07V138ZM127.335 138.195C125.745 138.195 124.74 137.235 124.74 135.915C124.74 134.685 125.49 133.875 126.81 133.695L129.855 133.245V132.69C129.855 131.835 129.27 131.385 128.295 131.385C127.335 131.385 126.69 131.82 126.615 132.6H125.04C125.175 131.01 126.435 130.095 128.325 130.095C130.32 130.095 131.445 131.145 131.445 132.75V138H129.93L129.87 136.8C129.39 137.67 128.445 138.195 127.335 138.195ZM127.71 136.89C128.865 136.89 129.855 136.17 129.855 135.165V134.46L127.38 134.805C126.675 134.91 126.345 135.24 126.345 135.84C126.345 136.485 126.84 136.89 127.71 136.89ZM136.267 138.195C134.572 138.195 133.732 137.415 133.732 135.915V131.52H132.232V130.275H133.732V127.86H135.382V130.275H137.482V131.52H135.382V135.735C135.382 136.5 135.667 136.845 136.582 136.845C136.912 136.845 137.302 136.77 137.527 136.695V138.015C137.182 138.12 136.657 138.195 136.267 138.195ZM142.745 126.9H144.95L142.55 129.15H141.065L142.745 126.9ZM142.13 138.195C139.82 138.195 138.32 136.605 138.32 134.25V134.025C138.32 131.67 139.82 130.095 142.13 130.095C144.455 130.095 145.955 131.67 145.955 134.025V134.25C145.955 136.605 144.455 138.195 142.13 138.195ZM142.13 136.86C143.54 136.86 144.275 135.915 144.275 134.25V134.025C144.275 132.36 143.54 131.43 142.13 131.43C140.735 131.43 140 132.36 140 134.025V134.25C140 135.915 140.735 136.86 142.13 136.86ZM148.956 138H147.306V130.275H148.896L148.941 131.775C149.361 130.785 150.171 130.125 151.281 130.125C151.401 130.125 151.566 130.14 151.701 130.17V131.775C151.551 131.76 151.371 131.745 151.191 131.745C149.796 131.745 148.956 132.54 148.956 134.07V138ZM154.495 126.9V129.15H152.77V126.9H154.495ZM152.8 130.275H154.45V138H152.8V130.275ZM159.606 138.195C157.296 138.195 155.796 136.605 155.796 134.25V134.025C155.796 131.67 157.296 130.095 159.606 130.095C161.931 130.095 163.431 131.67 163.431 134.025V134.25C163.431 136.605 161.931 138.195 159.606 138.195ZM159.606 136.86C161.016 136.86 161.751 135.915 161.751 134.25V134.025C161.751 132.36 161.016 131.43 159.606 131.43C158.211 131.43 157.476 132.36 157.476 134.025V134.25C157.476 135.915 158.211 136.86 159.606 136.86ZM64.6659 156H62.9259V145.35H69.9009V146.805H64.6659V150.015H69.4059V151.47H64.6659V156ZM75.9408 156H71.2608V145.35H75.6108C77.7108 145.35 79.0758 146.205 79.0758 148.08V148.245C79.0758 149.16 78.5958 149.97 77.7108 150.375C78.8658 150.735 79.5558 151.695 79.5558 152.85V153.03C79.5558 154.92 78.0408 156 75.9408 156ZM72.9708 146.79V149.85H75.5208C76.7658 149.85 77.3208 149.31 77.3208 148.38V148.215C77.3208 147.18 76.6758 146.79 75.4758 146.79H72.9708ZM72.9708 151.29V154.56H75.8058C77.0058 154.56 77.7858 154.035 77.7858 153V152.805C77.7858 151.815 77.1258 151.29 75.8808 151.29H72.9708ZM85.6088 156H80.9288V145.35H85.2788C87.3788 145.35 88.7438 146.205 88.7438 148.08V148.245C88.7438 149.16 88.2638 149.97 87.3788 150.375C88.5338 150.735 89.2238 151.695 89.2238 152.85V153.03C89.2238 154.92 87.7088 156 85.6088 156ZM82.6388 146.79V149.85H85.1888C86.4338 149.85 86.9888 149.31 86.9888 148.38V148.215C86.9888 147.18 86.3438 146.79 85.1438 146.79H82.6388ZM82.6388 151.29V154.56H85.4738C86.6738 154.56 87.4538 154.035 87.4538 153V152.805C87.4538 151.815 86.7938 151.29 85.5488 151.29H82.6388ZM97.4361 156H90.1461V154.8C90.1461 153.045 90.6111 151.785 93.4911 150.615C95.2761 149.88 95.6361 149.37 95.6361 148.275V148.23C95.6361 147.3 95.0061 146.58 93.9261 146.58C92.7261 146.58 92.0211 147.285 91.9761 148.5H90.2361C90.3561 146.49 91.7211 145.155 93.8961 145.155C95.9811 145.155 97.3611 146.505 97.3611 148.185V148.275C97.3611 149.715 96.8061 150.825 94.3461 151.875C92.3061 152.76 91.9761 153.345 91.9611 154.545H97.4361V156ZM102.373 156.195C99.8081 156.195 98.4281 154.14 98.4281 150.825V150.525C98.4281 147.24 99.8081 145.155 102.373 145.155C104.983 145.155 106.333 147.24 106.333 150.525V150.825C106.333 154.14 104.998 156.195 102.373 156.195ZM102.373 154.755C103.888 154.755 104.548 153.51 104.548 150.9V150.45C104.548 147.855 103.888 146.595 102.373 146.595C100.903 146.595 100.213 147.855 100.213 150.45V150.9C100.213 153.51 100.903 154.755 102.373 154.755ZM111.602 156.195C109.037 156.195 107.657 154.14 107.657 150.825V150.525C107.657 147.24 109.037 145.155 111.602 145.155C114.212 145.155 115.562 147.24 115.562 150.525V150.825C115.562 154.14 114.227 156.195 111.602 156.195ZM111.602 154.755C113.117 154.755 113.777 153.51 113.777 150.9V150.45C113.777 147.855 113.117 146.595 111.602 146.595C110.132 146.595 109.442 147.855 109.442 150.45V150.9C109.442 153.51 110.132 154.755 111.602 154.755ZM124.618 156.195C121.528 156.195 119.563 153.99 119.563 150.855V150.495C119.563 147.345 121.528 145.155 124.618 145.155C127.723 145.155 129.688 147.345 129.688 150.495V150.855C129.688 153.99 127.723 156.195 124.618 156.195ZM124.618 154.695C126.688 154.695 127.873 153.18 127.873 150.855V150.495C127.873 148.17 126.688 146.655 124.618 146.655C122.563 146.655 121.363 148.17 121.363 150.495V150.855C121.363 153.18 122.578 154.695 124.618 154.695ZM133.679 156.195C131.879 156.195 131.009 155.055 131.009 153.24V148.275H132.674V152.925C132.674 154.11 133.109 154.815 134.219 154.815C135.359 154.815 136.034 153.945 136.034 152.565V148.275H137.699V156H136.094L136.064 154.83C135.614 155.58 134.789 156.195 133.679 156.195ZM143.395 156H141.565L138.7 148.275H140.44L142.51 154.32L144.55 148.275H146.245L143.395 156ZM148.936 144.9V147.15H147.211V144.9H148.936ZM147.241 148.275H148.891V156H147.241V148.275ZM153.566 156.195C151.541 156.195 150.236 154.56 150.236 152.25V152.025C150.236 149.73 151.496 148.095 153.536 148.095C154.766 148.095 155.606 148.68 156.056 149.4V144.9H157.706V156H156.176L156.131 154.71C155.756 155.445 154.886 156.195 153.566 156.195ZM153.986 154.86C155.366 154.86 156.116 153.915 156.116 152.25V152.025C156.116 150.36 155.351 149.4 153.986 149.4C152.666 149.4 151.916 150.36 151.916 152.025V152.25C151.916 153.9 152.651 154.86 153.986 154.86ZM162.865 156.195C160.555 156.195 159.055 154.605 159.055 152.25V152.025C159.055 149.67 160.555 148.095 162.865 148.095C165.19 148.095 166.69 149.67 166.69 152.025V152.25C166.69 154.605 165.19 156.195 162.865 156.195ZM162.865 154.86C164.275 154.86 165.01 153.915 165.01 152.25V152.025C165.01 150.36 164.275 149.43 162.865 149.43C161.47 149.43 160.735 150.36 160.735 152.025V152.25C160.735 153.915 161.47 154.86 162.865 154.86ZM169.691 156H168.041V148.275H169.631L169.676 149.775C170.096 148.785 170.906 148.125 172.016 148.125C172.136 148.125 172.301 148.14 172.436 148.17V149.775C172.286 149.76 172.106 149.745 171.926 149.745C170.531 149.745 169.691 150.54 169.691 152.07V156ZM175.229 144.9V147.15H173.504V144.9H175.229ZM173.534 148.275H175.184V156H173.534V148.275ZM179.08 156.195C177.49 156.195 176.485 155.235 176.485 153.915C176.485 152.685 177.235 151.875 178.555 151.695L181.6 151.245V150.69C181.6 149.835 181.015 149.385 180.04 149.385C179.08 149.385 178.435 149.82 178.36 150.6H176.785C176.92 149.01 178.18 148.095 180.07 148.095C182.065 148.095 183.19 149.145 183.19 150.75V156H181.675L181.615 154.8C181.135 155.67 180.19 156.195 179.08 156.195ZM179.455 154.89C180.61 154.89 181.6 154.17 181.6 153.165V152.46L179.125 152.805C178.42 152.91 178.09 153.24 178.09 153.84C178.09 154.485 178.585 154.89 179.455 154.89Z" fill="black"/>
<path d="M246.988 128L216 181H247V128H246.988Z" fill="black"/>
<g filter="url(#filter0_d_85_511)">
<path d="M154.809 80.2639H152.81C149.775 73.5105 143.106 68.6312 133.864 66.4532C133.354 66.3317 132.817 66.4262 132.378 66.7132L123.17 72.7305L113.958 66.7099C113.519 66.4228 112.982 66.3283 112.472 66.4498C103.224 68.6211 96.5478 73.5038 93.5122 80.2639H90.6521C86.985 80.2639 84 83.2455 84 86.9126V113.085C84 114.142 84.8577 115 85.9146 115C86.9715 115 87.8292 114.142 87.8292 113.085V86.9126C87.8292 85.356 89.0954 84.0931 90.6521 84.0931H154.809C156.366 84.0931 157.629 85.3594 157.629 86.9126V113.085C157.629 114.142 158.487 115 159.543 115C160.6 115 161.458 114.142 161.458 113.085V86.9126C161.458 83.2455 158.476 80.2639 154.809 80.2639ZM112.56 70.3702L122.123 76.6205C122.758 77.0358 123.582 77.0358 124.216 76.6205L133.773 70.3736C140.651 72.1531 145.763 75.6041 148.505 80.2639H97.8141C100.556 75.5973 105.675 72.1463 112.557 70.3702H112.56ZM131.237 113.085C131.237 114.142 130.379 115 129.322 115C128.265 115 127.407 114.142 127.407 113.085C127.407 110.506 125.311 108.409 122.731 108.409C120.151 108.409 118.054 110.506 118.054 113.085C118.054 114.142 117.196 115 116.139 115C115.082 115 114.225 114.142 114.225 113.085C114.225 108.395 118.04 104.58 122.731 104.58C127.421 104.58 131.237 108.395 131.237 113.085ZM100.546 55.6444C102.754 55.6444 104.662 54.3646 105.58 52.5075C108.468 59.1089 115.055 63.735 122.71 63.735C128.201 63.735 133.141 61.3544 136.562 57.5691C138.601 57.066 140.752 56.2691 142.856 55.0434C143.612 55.4216 144.46 55.641 145.361 55.641C148.461 55.641 150.98 53.1186 150.98 50.0222V40.8916C150.98 37.8999 148.627 35.4518 145.675 35.2897C141.674 25.9565 132.756 20 122.569 20C112.381 20 103.575 25.9835 99.6611 35.3505C96.9834 35.7759 94.927 38.0957 94.927 40.8916V50.0222C94.927 53.122 97.446 55.641 100.546 55.641V55.6444ZM107.853 45.0517C107.853 36.8598 114.519 30.1976 122.71 30.1976C130.902 30.1976 137.561 36.8598 137.561 45.0517C137.561 48.4554 136.41 51.5924 134.478 54.0979C129.997 54.9488 126.354 54.2769 126.28 54.2633C125.243 54.0607 124.24 54.7327 124.034 55.7694C123.828 56.806 124.5 57.8156 125.54 58.0216C125.692 58.052 127.124 58.3221 129.295 58.366C127.31 59.352 125.078 59.9092 122.714 59.9092C114.522 59.9092 107.856 53.2436 107.856 45.0517H107.853ZM140.077 51.9199C140.107 52.001 140.134 52.082 140.165 52.1597C140.087 52.2002 140.013 52.2407 139.935 52.2778C139.986 52.1597 140.03 52.0381 140.077 51.9165V51.9199ZM147.154 40.895V50.0256C147.154 51.0116 146.351 51.8152 145.365 51.8152C144.909 51.8152 144.497 51.6397 144.183 51.3594C144.152 51.3324 144.119 51.302 144.088 51.2783C143.771 50.9542 143.575 50.5118 143.575 50.0256V40.895C143.575 39.909 144.379 39.1054 145.368 39.1054C146.357 39.1054 147.158 39.909 147.158 40.895H147.154ZM122.569 23.8292C131.058 23.8292 138.513 28.7153 141.991 36.4107C141.238 36.978 140.631 37.7277 140.239 38.5989C137.605 31.4706 130.744 26.3718 122.71 26.3718C114.677 26.3718 108.164 31.214 105.388 38.0552C104.925 37.2684 104.277 36.6066 103.5 36.1237C106.958 28.5971 114.255 23.8292 122.565 23.8292H122.569ZM98.7562 40.895C98.7562 39.909 99.5598 39.1054 100.546 39.1054C101.532 39.1054 102.339 39.909 102.339 40.895V50.0256C102.339 51.0116 101.535 51.8152 100.546 51.8152C99.5564 51.8152 98.7562 51.0116 98.7562 50.0256V40.895Z" fill="black"/>
</g>
</g>
<path d="M246 176H0V184H246V176Z" fill="black" mask="url(#path-1-inside-1_85_511)"/>
<defs>
<filter id="filter0_d_85_511" x="84" y="20" width="79.458" height="97" filterUnits="userSpaceOnUse" color-interpolation-filters="sRGB">
<feFlood flood-opacity="0" result="BackgroundImageFix"/>
<feColorMatrix in="SourceAlpha" type="matrix" values="0 0 0 0 0 0 0 0 0 0 0 0 0 0 0 0 0 0 127 0" result="hardAlpha"/>
<feOffset dx="2" dy="2"/>
<feComposite in2="hardAlpha" operator="out"/>
<feColorMatrix type="matrix" values="0 0 0 0 0 0 0 0 0 0 0 0 0 0 0 0 0 0 0.1 0"/>
<feBlend mode="normal" in2="BackgroundImageFix" result="effect1_dropShadow_85_511"/>
<feBlend mode="normal" in="SourceGraphic" in2="effect1_dropShadow_85_511" result="shape"/>
</filter>
<clipPath id="clip0_85_511">
<path d="M0 0H246V180H0V0Z" fill="white"/>
</clipPath>
</defs>
</svg>
