<svg width="246" height="180" viewBox="0 0 246 180" fill="none" xmlns="http://www.w3.org/2000/svg">
<g clip-path="url(#clip0_85_527)">
<mask id="path-1-inside-1_85_527" fill="white">
<path d="M0 0H246V180H0V0Z"/>
</mask>
<path d="M0 0H246V180H0V0Z" fill="#D9F339"/>
<path d="M52.9028 138H51.1778V127.35H55.5128C57.6578 127.35 59.1578 128.46 59.1578 130.53V130.77C59.1578 132.84 57.6578 133.95 55.5128 133.95H52.9028V138ZM52.9028 128.82V132.48H55.3778C56.5778 132.48 57.3728 131.94 57.3728 130.77V130.53C57.3728 129.36 56.5778 128.82 55.3778 128.82H52.9028ZM62.0253 138H60.3753V130.275H61.9653L62.0103 131.775C62.4303 130.785 63.2403 130.125 64.3503 130.125C64.4703 130.125 64.6353 130.14 64.7703 130.17V131.775C64.6203 131.76 64.4403 131.745 64.2603 131.745C62.8653 131.745 62.0253 132.54 62.0253 134.07V138ZM69.1298 138.195C66.7298 138.195 65.3048 136.59 65.3048 134.25V134.025C65.3048 131.685 66.7598 130.095 69.1298 130.095C71.6648 130.095 72.8948 131.865 72.7748 134.505H66.9998C67.0748 136.05 67.8248 136.875 69.1298 136.875C70.2098 136.875 70.8548 136.365 71.0798 135.585H72.7298C72.3548 137.205 71.0648 138.195 69.1298 138.195ZM67.0298 133.32H71.0798C70.9598 132.12 70.3298 131.4 69.1148 131.4C67.9148 131.4 67.2098 132.06 67.0298 133.32ZM75.7805 140.55H74.1155V130.275H75.6605L75.7055 131.55C76.0805 130.815 76.9805 130.095 78.3005 130.095C80.3255 130.095 81.6005 131.715 81.6005 134.025V134.25C81.6005 136.56 80.2955 138.195 78.2555 138.195C77.0555 138.195 76.2005 137.565 75.7805 136.83V140.55ZM77.8505 136.86C79.1705 136.86 79.9205 135.915 79.9205 134.25V134.025C79.9205 132.36 79.1705 131.4 77.8505 131.4C76.4705 131.4 75.7205 132.36 75.7205 134.025V134.25C75.7205 135.915 76.4705 136.86 77.8505 136.86ZM85.1692 138.195C83.5792 138.195 82.5742 137.235 82.5742 135.915C82.5742 134.685 83.3242 133.875 84.6442 133.695L87.6892 133.245V132.69C87.6892 131.835 87.1042 131.385 86.1292 131.385C85.1692 131.385 84.5242 131.82 84.4492 132.6H82.8742C83.0092 131.01 84.2692 130.095 86.1592 130.095C88.1542 130.095 89.2792 131.145 89.2792 132.75V138H87.7642L87.7042 136.8C87.2242 137.67 86.2792 138.195 85.1692 138.195ZM85.5442 136.89C86.6992 136.89 87.6892 136.17 87.6892 135.165V134.46L85.2142 134.805C84.5092 134.91 84.1792 135.24 84.1792 135.84C84.1792 136.485 84.6742 136.89 85.5442 136.89ZM92.538 138H90.888V130.275H92.478L92.523 131.775C92.943 130.785 93.753 130.125 94.863 130.125C94.983 130.125 95.148 130.14 95.283 130.17V131.775C95.133 131.76 94.953 131.745 94.773 131.745C93.378 131.745 92.538 132.54 92.538 134.07V138ZM98.3528 138.195C96.7628 138.195 95.7578 137.235 95.7578 135.915C95.7578 134.685 96.5078 133.875 97.8278 133.695L100.873 133.245V132.69C100.873 131.835 100.288 131.385 99.3128 131.385C98.3528 131.385 97.7078 131.82 97.6328 132.6H96.0578C96.1928 131.01 97.4528 130.095 99.3428 130.095C101.338 130.095 102.463 131.145 102.463 132.75V138H100.948L100.888 136.8C100.408 137.67 99.4628 138.195 98.3528 138.195ZM98.7278 136.89C99.8828 136.89 100.873 136.17 100.873 135.165V134.46L98.3978 134.805C97.6928 134.91 97.3628 135.24 97.3628 135.84C97.3628 136.485 97.8578 136.89 98.7278 136.89ZM107.285 138.195C105.59 138.195 104.75 137.415 104.75 135.915V131.52H103.25V130.275H104.75V127.86H106.4V130.275H108.5V131.52H106.4V135.735C106.4 136.5 106.685 136.845 107.6 136.845C107.93 136.845 108.32 136.77 108.545 136.695V138.015C108.2 138.12 107.675 138.195 107.285 138.195ZM113.763 126.9H115.968L113.568 129.15H112.083L113.763 126.9ZM113.148 138.195C110.838 138.195 109.338 136.605 109.338 134.25V134.025C109.338 131.67 110.838 130.095 113.148 130.095C115.473 130.095 116.973 131.67 116.973 134.025V134.25C116.973 136.605 115.473 138.195 113.148 138.195ZM113.148 136.86C114.558 136.86 115.293 135.915 115.293 134.25V134.025C115.293 132.36 114.558 131.43 113.148 131.43C111.753 131.43 111.018 132.36 111.018 134.025V134.25C111.018 135.915 111.753 136.86 113.148 136.86ZM119.975 138H118.325V130.275H119.915L119.96 131.775C120.38 130.785 121.19 130.125 122.3 130.125C122.42 130.125 122.585 130.14 122.72 130.17V131.775C122.57 131.76 122.39 131.745 122.21 131.745C120.815 131.745 119.975 132.54 119.975 134.07V138ZM125.513 126.9V129.15H123.788V126.9H125.513ZM123.818 130.275H125.468V138H123.818V130.275ZM130.624 138.195C128.314 138.195 126.814 136.605 126.814 134.25V134.025C126.814 131.67 128.314 130.095 130.624 130.095C132.949 130.095 134.449 131.67 134.449 134.025V134.25C134.449 136.605 132.949 138.195 130.624 138.195ZM130.624 136.86C132.034 136.86 132.769 135.915 132.769 134.25V134.025C132.769 132.36 132.034 131.43 130.624 131.43C129.229 131.43 128.494 132.36 128.494 134.025V134.25C128.494 135.915 129.229 136.86 130.624 136.86ZM140.398 138H138.658V127.35H145.633V128.805H140.398V132.015H145.138V133.47H140.398V138ZM151.673 138H146.993V127.35H151.343C153.443 127.35 154.808 128.205 154.808 130.08V130.245C154.808 131.16 154.328 131.97 153.443 132.375C154.598 132.735 155.288 133.695 155.288 134.85V135.03C155.288 136.92 153.773 138 151.673 138ZM148.703 128.79V131.85H151.253C152.498 131.85 153.053 131.31 153.053 130.38V130.215C153.053 129.18 152.408 128.79 151.208 128.79H148.703ZM148.703 133.29V136.56H151.538C152.738 136.56 153.518 136.035 153.518 135V134.805C153.518 133.815 152.858 133.29 151.613 133.29H148.703ZM161.341 138H156.661V127.35H161.011C163.111 127.35 164.476 128.205 164.476 130.08V130.245C164.476 131.16 163.996 131.97 163.111 132.375C164.266 132.735 164.956 133.695 164.956 134.85V135.03C164.956 136.92 163.441 138 161.341 138ZM158.371 128.79V131.85H160.921C162.166 131.85 162.721 131.31 162.721 130.38V130.215C162.721 129.18 162.076 128.79 160.876 128.79H158.371ZM158.371 133.29V136.56H161.206C162.406 136.56 163.186 136.035 163.186 135V134.805C163.186 133.815 162.526 133.29 161.281 133.29H158.371ZM170.078 138.195C167.783 138.195 166.163 136.995 166.163 135.12V134.97C166.163 133.65 167.063 132.735 168.203 132.42C167.228 132.06 166.553 131.22 166.553 130.125V129.975C166.553 128.31 168.068 127.155 170.078 127.155C172.058 127.155 173.588 128.31 173.588 129.975V130.125C173.588 131.22 172.898 132.06 171.923 132.42C173.048 132.735 173.978 133.65 173.978 134.97V135.12C173.978 136.995 172.373 138.195 170.078 138.195ZM170.078 131.745C171.113 131.745 171.923 131.175 171.923 130.215V130.08C171.923 129.12 171.128 128.535 170.078 128.535C169.028 128.535 168.218 129.12 168.218 130.08V130.215C168.218 131.175 169.028 131.745 170.078 131.745ZM170.078 136.77C171.293 136.77 172.208 136.11 172.208 135.03V134.895C172.208 133.815 171.278 133.155 170.078 133.155C168.863 133.155 167.933 133.815 167.933 134.895V135.03C167.933 136.11 168.848 136.77 170.078 136.77ZM179.087 138.195C176.522 138.195 175.142 136.14 175.142 132.825V132.525C175.142 129.24 176.522 127.155 179.087 127.155C181.697 127.155 183.047 129.24 183.047 132.525V132.825C183.047 136.14 181.712 138.195 179.087 138.195ZM179.087 136.755C180.602 136.755 181.262 135.51 181.262 132.9V132.45C181.262 129.855 180.602 128.595 179.087 128.595C177.617 128.595 176.927 129.855 176.927 132.45V132.9C176.927 135.51 177.617 136.755 179.087 136.755ZM188.315 138.195C185.75 138.195 184.37 136.14 184.37 132.825V132.525C184.37 129.24 185.75 127.155 188.315 127.155C190.925 127.155 192.275 129.24 192.275 132.525V132.825C192.275 136.14 190.94 138.195 188.315 138.195ZM188.315 136.755C189.83 136.755 190.49 135.51 190.49 132.9V132.45C190.49 129.855 189.83 128.595 188.315 128.595C186.845 128.595 186.155 129.855 186.155 132.45V132.9C186.155 135.51 186.845 136.755 188.315 136.755ZM65.891 156.195C62.876 156.195 60.911 154.02 60.911 150.855V150.495C60.911 147.36 62.891 145.155 65.906 145.155C68.471 145.155 70.196 146.775 70.406 149.22H68.636C68.426 147.615 67.406 146.655 65.891 146.655C63.896 146.655 62.711 148.23 62.711 150.495V150.855C62.711 153.12 63.911 154.68 65.891 154.68C67.511 154.68 68.546 153.6 68.621 151.98H70.406C70.241 154.41 68.546 156.195 65.891 156.195ZM75.1792 156.195C72.8692 156.195 71.3692 154.605 71.3692 152.25V152.025C71.3692 149.67 72.8692 148.095 75.1792 148.095C77.5042 148.095 79.0042 149.67 79.0042 152.025V152.25C79.0042 154.605 77.5042 156.195 75.1792 156.195ZM75.1792 154.86C76.5892 154.86 77.3242 153.915 77.3242 152.25V152.025C77.3242 150.36 76.5892 149.43 75.1792 149.43C73.7842 149.43 73.0492 150.36 73.0492 152.025V152.25C73.0492 153.915 73.7842 154.86 75.1792 154.86ZM82.0058 156H80.3558V148.275H81.9458L82.0058 149.505C82.4108 148.74 83.2208 148.095 84.4658 148.095C86.3408 148.095 87.1358 149.265 87.1358 151.02V156H85.5008V151.425C85.5008 150.165 85.0358 149.46 83.9108 149.46C82.7708 149.46 82.0058 150.3 82.0058 151.68V156ZM91.9485 156.195C90.2535 156.195 89.4135 155.415 89.4135 153.915V149.52H87.9135V148.275H89.4135V145.86H91.0635V148.275H93.1635V149.52H91.0635V153.735C91.0635 154.5 91.3485 154.845 92.2635 154.845C92.5935 154.845 92.9835 154.77 93.2085 154.695V156.015C92.8635 156.12 92.3385 156.195 91.9485 156.195ZM96.1269 156H94.4769V148.275H96.0669L96.1119 149.775C96.5319 148.785 97.3419 148.125 98.4519 148.125C98.5719 148.125 98.7369 148.14 98.8719 148.17V149.775C98.7219 149.76 98.5419 149.745 98.3619 149.745C96.9669 149.745 96.1269 150.54 96.1269 152.07V156ZM103.216 156.195C100.906 156.195 99.4063 154.605 99.4063 152.25V152.025C99.4063 149.67 100.906 148.095 103.216 148.095C105.541 148.095 107.041 149.67 107.041 152.025V152.25C107.041 154.605 105.541 156.195 103.216 156.195ZM103.216 154.86C104.626 154.86 105.361 153.915 105.361 152.25V152.025C105.361 150.36 104.626 149.43 103.216 149.43C101.821 149.43 101.086 150.36 101.086 152.025V152.25C101.086 153.915 101.821 154.86 103.216 154.86ZM108.393 144.9H110.043V156H108.393V144.9ZM115.214 156.195C112.814 156.195 111.389 154.59 111.389 152.25V152.025C111.389 149.685 112.844 148.095 115.214 148.095C117.749 148.095 118.979 149.865 118.859 152.505H113.084C113.159 154.05 113.909 154.875 115.214 154.875C116.294 154.875 116.939 154.365 117.164 153.585H118.814C118.439 155.205 117.149 156.195 115.214 156.195ZM113.114 151.32H117.164C117.044 150.12 116.414 149.4 115.199 149.4C113.999 149.4 113.294 150.06 113.114 151.32ZM123.024 156.195C121.029 156.195 119.784 155.25 119.634 153.6H121.224C121.359 154.515 122.019 154.95 123.039 154.95C123.969 154.95 124.599 154.575 124.599 153.885C124.599 153.27 124.164 152.97 122.694 152.7C120.819 152.385 119.904 151.785 119.904 150.405C119.904 149.025 121.149 148.095 122.919 148.095C124.779 148.095 125.934 148.98 126.084 150.51H124.509C124.389 149.73 123.789 149.31 122.904 149.31C122.049 149.31 121.494 149.685 121.494 150.315C121.494 150.915 121.929 151.2 123.339 151.425C125.289 151.74 126.234 152.385 126.234 153.735C126.234 155.205 124.959 156.195 123.024 156.195ZM132.242 156H130.487V145.35H132.242V156ZM135.707 156H134.057V148.275H135.647L135.707 149.505C136.112 148.74 136.922 148.095 138.167 148.095C140.042 148.095 140.837 149.265 140.837 151.02V156H139.202V151.425C139.202 150.165 138.737 149.46 137.612 149.46C136.472 149.46 135.707 150.3 135.707 151.68V156ZM145.65 156.195C143.955 156.195 143.115 155.415 143.115 153.915V149.52H141.615V148.275H143.115V145.86H144.765V148.275H146.865V149.52H144.765V153.735C144.765 154.5 145.05 154.845 145.965 154.845C146.295 154.845 146.685 154.77 146.91 154.695V156.015C146.565 156.12 146.04 156.195 145.65 156.195ZM151.527 156.195C149.127 156.195 147.702 154.59 147.702 152.25V152.025C147.702 149.685 149.157 148.095 151.527 148.095C154.062 148.095 155.292 149.865 155.172 152.505H149.397C149.472 154.05 150.222 154.875 151.527 154.875C152.607 154.875 153.252 154.365 153.477 153.585H155.127C154.752 155.205 153.462 156.195 151.527 156.195ZM149.427 151.32H153.477C153.357 150.12 152.727 149.4 151.512 149.4C150.312 149.4 149.607 150.06 149.427 151.32ZM158.163 156H156.513V148.275H158.103L158.148 149.775C158.568 148.785 159.378 148.125 160.488 148.125C160.608 148.125 160.773 148.14 160.908 148.17V149.775C160.758 149.76 160.578 149.745 160.398 149.745C159.003 149.745 158.163 150.54 158.163 152.07V156ZM163.715 156H162.065V148.275H163.655L163.715 149.505C164.12 148.74 164.93 148.095 166.175 148.095C168.05 148.095 168.845 149.265 168.845 151.02V156H167.21V151.425C167.21 150.165 166.745 149.46 165.62 149.46C164.48 149.46 163.715 150.3 163.715 151.68V156ZM173.954 156.195C171.644 156.195 170.144 154.605 170.144 152.25V152.025C170.144 149.67 171.644 148.095 173.954 148.095C176.279 148.095 177.779 149.67 177.779 152.025V152.25C177.779 154.605 176.279 156.195 173.954 156.195ZM173.954 154.86C175.364 154.86 176.099 153.915 176.099 152.25V152.025C176.099 150.36 175.364 149.43 173.954 149.43C172.559 149.43 171.824 150.36 171.824 152.025V152.25C171.824 153.915 172.559 154.86 173.954 154.86ZM181.955 156.195C179.96 156.195 178.715 155.25 178.565 153.6H180.155C180.29 154.515 180.95 154.95 181.97 154.95C182.9 154.95 183.53 154.575 183.53 153.885C183.53 153.27 183.095 152.97 181.625 152.7C179.75 152.385 178.835 151.785 178.835 150.405C178.835 149.025 180.08 148.095 181.85 148.095C183.71 148.095 184.865 148.98 185.015 150.51H183.44C183.32 149.73 182.72 149.31 181.835 149.31C180.98 149.31 180.425 149.685 180.425 150.315C180.425 150.915 180.86 151.2 182.27 151.425C184.22 151.74 185.165 152.385 185.165 153.735C185.165 155.205 183.89 156.195 181.955 156.195Z" fill="black"/>
<path d="M246.988 128L216 181H247V128H246.988Z" fill="black"/>
<g filter="url(#filter0_d_85_527)">
<path d="M151.575 30.5184H136.505C135.134 29.6641 133.557 28.9347 131.801 28.3675C131.511 23.7042 127.624 20 122.89 20C118.156 20 114.269 23.7042 113.979 28.3675C112.223 28.9381 110.646 29.6641 109.275 30.5184H94.2083C89.1297 30.5184 85 34.6515 85 39.7267V105.792C85 110.87 89.1297 115 94.2083 115H151.575C156.654 115 160.783 110.87 160.783 105.792V39.7267C160.783 34.6481 156.654 30.5184 151.575 30.5184ZM105.358 45.0078H140.425C141.482 45.0078 142.34 44.1501 142.34 43.0932V41.6413H148.749V102.054H97.0345V41.6413H103.444V43.0932C103.444 44.1501 104.301 45.0078 105.358 45.0078ZM116.444 31.6361C117.372 31.3964 117.98 30.5049 117.865 29.5493C117.855 29.4683 117.845 29.3906 117.835 29.3129C117.815 29.161 117.794 29.0158 117.794 28.9246C117.794 26.1118 120.081 23.8258 122.893 23.8258C125.706 23.8258 127.992 26.1118 127.992 28.9246C127.992 29.0158 127.972 29.161 127.952 29.3129C127.941 29.3906 127.931 29.4683 127.921 29.5459C127.803 30.5015 128.411 31.393 129.343 31.6327C131.561 32.2068 133.483 33.0611 134.985 34.0876C135.016 34.1078 135.043 34.1281 135.07 34.1484C136.647 35.2458 137.754 36.5391 138.237 37.8999C138.24 37.9134 138.247 37.9235 138.251 37.937C138.274 38.0079 138.294 38.0755 138.315 38.1464C138.328 38.1903 138.342 38.2342 138.352 38.2781C138.369 38.3355 138.382 38.3962 138.396 38.4537C138.409 38.5111 138.419 38.5651 138.429 38.6225C138.44 38.6731 138.45 38.7238 138.456 38.7744C138.467 38.8453 138.477 38.9129 138.484 38.9838C138.487 39.0243 138.494 39.0648 138.497 39.1054C138.507 39.2168 138.511 39.3282 138.511 39.4396V41.1719H107.273V39.4396C107.273 39.3282 107.279 39.2168 107.286 39.1054C107.286 39.0648 107.296 39.0243 107.3 38.9838C107.306 38.9129 107.317 38.8453 107.327 38.7744C107.333 38.7238 107.344 38.6731 107.354 38.6225C107.364 38.5651 107.377 38.5111 107.388 38.4537C107.401 38.3929 107.415 38.3355 107.431 38.2747C107.442 38.2308 107.455 38.1869 107.469 38.143C107.489 38.0721 107.509 38.0046 107.533 37.9336C107.536 37.9201 107.543 37.91 107.546 37.8965C108.029 36.5323 109.14 35.2357 110.724 34.1382C110.747 34.1213 110.771 34.1045 110.798 34.0876C112.304 33.0577 114.225 32.2034 116.447 31.6293L116.444 31.6361ZM156.954 105.792C156.954 108.756 154.54 111.171 151.575 111.171H94.2083C91.2435 111.171 88.8292 108.756 88.8292 105.792V39.7267C88.8292 36.7619 91.2435 34.3476 94.2083 34.3476H105.108C104.386 35.3977 103.893 36.5154 103.639 37.6703C103.639 37.6804 103.633 37.6905 103.633 37.704C103.626 37.7412 103.616 37.7783 103.609 37.8155H96.9468C94.887 37.8155 93.2088 39.4937 93.2088 41.5535V102.145C93.2088 104.205 94.887 105.883 96.9468 105.883H148.843C150.903 105.883 152.581 104.205 152.581 102.145V41.5501C152.581 39.4903 150.906 37.8121 148.843 37.8121H142.181C142.174 37.7749 142.164 37.7378 142.157 37.704C142.157 37.6939 142.151 37.6804 142.151 37.6703C141.901 36.5154 141.408 35.3977 140.682 34.351H151.582C154.546 34.351 156.961 36.7653 156.961 39.73V105.795L156.954 105.792ZM122.893 88.3511C131.993 88.3511 139.395 80.9494 139.395 71.8492C139.395 62.749 131.993 55.3473 122.893 55.3473C113.793 55.3473 106.391 62.749 106.391 71.8492C106.391 80.9494 113.793 88.3511 122.893 88.3511ZM122.893 59.1764C129.88 59.1764 135.566 64.8628 135.566 71.8492C135.566 78.8356 129.88 84.5219 122.893 84.5219C115.907 84.5219 110.221 78.8356 110.221 71.8492C110.221 64.8628 115.907 59.1764 122.893 59.1764ZM115.613 72.9939C115.252 72.6326 115.049 72.143 115.053 71.6331C115.056 71.1232 115.259 70.6336 115.623 70.2756L115.647 70.252C116.397 69.5125 117.602 69.5159 118.345 70.2621L121.067 72.9838L127.435 66.6153C128.181 65.8691 129.39 65.8691 130.136 66.6119L130.16 66.6356C130.521 66.9935 130.724 67.4831 130.724 67.9896C130.724 68.4995 130.525 68.9857 130.163 69.3471L122.414 77.0932C122.039 77.468 121.549 77.6537 121.06 77.6537C120.57 77.6537 120.081 77.468 119.706 77.0932L115.603 72.9905L115.613 72.9939Z" fill="black"/>
</g>
</g>
<path d="M246 176H0V184H246V176Z" fill="black" mask="url(#path-1-inside-1_85_527)"/>
<defs>
<filter id="filter0_d_85_527" x="85" y="20" width="77.7832" height="97" filterUnits="userSpaceOnUse" color-interpolation-filters="sRGB">
<feFlood flood-opacity="0" result="BackgroundImageFix"/>
<feColorMatrix in="SourceAlpha" type="matrix" values="0 0 0 0 0 0 0 0 0 0 0 0 0 0 0 0 0 0 127 0" result="hardAlpha"/>
<feOffset dx="2" dy="2"/>
<feComposite in2="hardAlpha" operator="out"/>
<feColorMatrix type="matrix" values="0 0 0 0 0 0 0 0 0 0 0 0 0 0 0 0 0 0 0.1 0"/>
<feBlend mode="normal" in2="BackgroundImageFix" result="effect1_dropShadow_85_527"/>
<feBlend mode="normal" in="SourceGraphic" in2="effect1_dropShadow_85_527" result="shape"/>
</filter>
<clipPath id="clip0_85_527">
<path d="M0 0H246V180H0V0Z" fill="white"/>
</clipPath>
</defs>
</svg>
