<svg width="246" height="180" viewBox="0 0 246 180" fill="none" xmlns="http://www.w3.org/2000/svg">
<g clip-path="url(#clip0_85_523)">
<mask id="path-1-inside-1_85_523" fill="white">
<path d="M0 0H246V180H0V0Z"/>
</mask>
<path d="M0 0H246V180H0V0Z" fill="#D9F339"/>
<path d="M107.091 156H105.246L104.301 153.405H99.7259L98.7659 156H96.9959L101.091 145.35H102.996L107.091 156ZM102.021 147.21L100.266 151.95H103.761L102.021 147.21ZM112.195 156.195C109.18 156.195 107.215 154.02 107.215 150.855V150.495C107.215 147.36 109.195 145.155 112.21 145.155C114.775 145.155 116.5 146.775 116.71 149.22H114.94C114.73 147.615 113.71 146.655 112.195 146.655C110.2 146.655 109.015 148.23 109.015 150.495V150.855C109.015 153.12 110.215 154.68 112.195 154.68C113.815 154.68 114.85 153.6 114.925 151.98H116.71C116.545 154.41 114.85 156.195 112.195 156.195ZM126.808 156H124.963L124.018 153.405H119.443L118.483 156H116.713L120.808 145.35H122.713L126.808 156ZM121.738 147.21L119.983 151.95H123.478L121.738 147.21ZM129.602 156H127.892V145.35H130.457L133.442 153.84L136.412 145.35H138.887V156H137.207V147.375L134.147 156H132.677L129.602 147.36V156ZM144.61 156.195C142.06 156.195 140.365 154.905 140.245 152.625H141.985C142.135 154.11 143.215 154.74 144.685 154.74C146.02 154.74 146.98 154.215 146.98 153.15V153.075C146.98 152.16 146.335 151.695 144.175 151.305C141.55 150.84 140.62 149.865 140.62 148.275V148.17C140.62 146.43 142.135 145.155 144.46 145.155C146.695 145.155 148.315 146.265 148.525 148.44H146.77C146.62 147.21 145.75 146.595 144.43 146.595C143.11 146.595 142.33 147.195 142.33 148.125V148.2C142.33 149.025 142.78 149.49 144.895 149.85C147.445 150.285 148.705 151.17 148.705 152.91V153.03C148.705 154.875 147.13 156.195 144.61 156.195Z" fill="black"/>
<path d="M246.988 128L216 181H247V128H246.988Z" fill="black"/>
<g filter="url(#filter0_d_85_523)">
<path d="M102.47 68.9689C102.47 69.4754 102.673 69.965 103.03 70.3229L117.736 85.0284C118.094 85.3864 118.584 85.589 119.09 85.589C119.11 85.589 119.127 85.589 119.147 85.589C119.674 85.5721 120.171 85.3425 120.522 84.9474L144.051 58.4775C144.723 57.7211 144.689 56.5696 143.973 55.8504L138.091 49.9682C137.713 49.59 137.206 49.3874 136.662 49.4077C136.129 49.4279 135.629 49.671 135.281 50.0762L118.982 69.0938L111.621 61.7326C110.875 60.9864 109.662 60.9864 108.913 61.7326L103.03 67.6148C102.673 67.9727 102.47 68.4624 102.47 68.9689ZM110.267 65.7948L117.736 73.264C118.114 73.6422 118.624 73.8448 119.164 73.8246C119.698 73.8043 120.198 73.5612 120.545 73.156L136.845 54.1384L139.988 57.2821L119.009 80.8852L107.093 68.9689L110.267 65.7948ZM165.918 56.6844C164.496 54.8408 163.156 53.0984 162.44 51.3695C161.677 49.5258 161.366 47.2668 161.042 44.8761C160.498 40.8849 159.935 36.7552 157.088 33.912C154.241 31.0688 150.115 30.5049 146.124 29.9579C143.733 29.6303 141.474 29.3231 139.63 28.5599C137.902 27.8441 136.159 26.5035 134.316 25.0819C131.223 22.7014 127.714 20 123.5 20C119.286 20 115.781 22.7014 112.684 25.0819C110.841 26.5035 109.098 27.8441 107.37 28.5599C105.526 29.3231 103.267 29.6337 100.876 29.9579C96.8849 30.5015 92.7552 31.0654 89.912 33.912C87.0654 36.7585 86.5049 40.8849 85.9579 44.8761C85.6303 47.2668 85.3231 49.5258 84.5599 51.3695C83.8441 53.0984 82.5035 54.8408 81.0819 56.6844C78.7014 59.7775 76 63.2859 76 67.5C76 71.7141 78.7014 75.2191 81.0819 78.3156C82.5035 80.1592 83.8441 81.9016 84.5599 83.6305C85.3231 85.4742 85.6337 87.7332 85.9579 90.1239C86.5015 94.1151 87.0654 98.2448 89.912 101.088C92.7585 103.931 96.8849 104.495 100.876 105.042C103.267 105.37 105.526 105.677 107.37 106.44C109.098 107.156 110.841 108.496 112.684 109.918C115.777 112.299 119.286 115 123.5 115C127.714 115 131.219 112.299 134.316 109.918C136.159 108.496 137.902 107.156 139.63 106.44C141.474 105.677 143.733 105.366 146.124 105.042C150.115 104.498 154.245 103.935 157.088 101.088C159.931 98.2415 160.495 94.1151 161.042 90.1239C161.37 87.7332 161.677 85.4742 162.44 83.6305C163.156 81.9016 164.496 80.1592 165.918 78.3156C168.299 75.2225 171 71.7141 171 67.5C171 63.2859 168.299 59.7809 165.918 56.6844ZM162.882 75.9789C161.373 77.9408 159.813 79.9668 158.901 82.1616C157.946 84.4645 157.591 87.0781 157.247 89.6039C156.767 93.1224 156.311 96.445 154.38 98.3799C152.448 100.315 149.122 100.767 145.604 101.247C143.078 101.591 140.465 101.949 138.162 102.901C135.967 103.813 133.937 105.373 131.979 106.882C129.115 109.087 126.411 111.171 123.5 111.171C120.589 111.171 117.885 109.087 115.021 106.882C113.059 105.373 111.033 103.813 108.838 102.901C106.535 101.946 103.922 101.591 101.396 101.247C97.8776 100.767 94.555 100.311 92.6201 98.3799C90.6853 96.4484 90.2328 93.1224 89.7533 89.6039C89.4089 87.0781 89.0509 84.4645 88.0987 82.1616C87.187 79.9668 85.627 77.9408 84.1176 75.9789C81.9126 73.1154 79.8292 70.4107 79.8292 67.5C79.8292 64.5893 81.9126 61.8846 84.1176 59.0211C85.627 57.0593 87.187 55.0332 88.0987 52.8384C89.0543 50.5355 89.4089 47.9219 89.7533 45.3961C90.2328 41.8776 90.6853 38.555 92.6201 36.6201C94.555 34.6853 97.8776 34.2328 101.396 33.7533C103.922 33.4089 106.535 33.0509 108.838 32.0987C111.033 31.187 113.059 29.627 115.021 28.1176C117.885 25.9126 120.589 23.8292 123.5 23.8292C126.411 23.8292 129.115 25.9126 131.979 28.1176C133.941 29.627 135.967 31.187 138.162 32.0987C140.465 33.0543 143.078 33.4089 145.604 33.7533C149.122 34.2328 152.445 34.6886 154.38 36.6201C156.315 38.5516 156.767 41.8776 157.247 45.3961C157.591 47.9219 157.949 50.5355 158.901 52.8384C159.813 55.0332 161.373 57.0593 162.882 59.0211C165.087 61.8846 167.171 64.5893 167.171 67.5C167.171 70.4107 165.087 73.1154 162.882 75.9789ZM146.688 44.3122C152.881 50.5051 156.294 58.7408 156.294 67.5C156.294 68.5569 155.437 69.4146 154.38 69.4146C153.323 69.4146 152.465 68.5569 152.465 67.5C152.465 59.764 149.453 52.4906 143.983 47.017C138.513 41.5467 131.239 38.5313 123.5 38.5313C122.443 38.5313 121.585 37.6736 121.585 36.6167C121.585 35.5598 122.443 34.7021 123.5 34.7021C132.259 34.7021 140.495 38.1126 146.688 44.3088V44.3122ZM146.688 87.983C147.434 88.7293 147.434 89.9415 146.688 90.6912C140.495 96.884 132.259 100.298 123.5 100.298C114.741 100.298 106.505 96.8874 100.312 90.6912C94.1194 84.4983 90.7055 76.2625 90.7055 67.5034C90.7055 58.7442 94.116 50.5085 100.312 44.3156C101.058 43.5693 102.271 43.5693 103.02 44.3156C103.767 45.0618 103.767 46.2741 103.02 47.0237C97.5501 52.494 94.5381 59.7674 94.5381 67.5068C94.5381 75.2461 97.5501 82.5196 103.02 87.9898C108.491 93.4601 115.764 96.4721 123.503 96.4721C131.243 96.4721 138.513 93.4601 143.986 87.9898C144.733 87.2436 145.945 87.2436 146.695 87.9898L146.688 87.983Z" fill="black"/>
</g>
</g>
<path d="M246 176H0V184H246V176Z" fill="black" mask="url(#path-1-inside-1_85_523)"/>
<defs>
<filter id="filter0_d_85_523" x="76" y="20" width="97" height="97" filterUnits="userSpaceOnUse" color-interpolation-filters="sRGB">
<feFlood flood-opacity="0" result="BackgroundImageFix"/>
<feColorMatrix in="SourceAlpha" type="matrix" values="0 0 0 0 0 0 0 0 0 0 0 0 0 0 0 0 0 0 127 0" result="hardAlpha"/>
<feOffset dx="2" dy="2"/>
<feComposite in2="hardAlpha" operator="out"/>
<feColorMatrix type="matrix" values="0 0 0 0 0 0 0 0 0 0 0 0 0 0 0 0 0 0 0.1 0"/>
<feBlend mode="normal" in2="BackgroundImageFix" result="effect1_dropShadow_85_523"/>
<feBlend mode="normal" in="SourceGraphic" in2="effect1_dropShadow_85_523" result="shape"/>
</filter>
<clipPath id="clip0_85_523">
<path d="M0 0H246V180H0V0Z" fill="white"/>
</clipPath>
</defs>
</svg>
