<?xml version="1.0" encoding="utf-8"?>
<!-- Generator: Adobe Illustrator 28.3.0, SVG Export Plug-In . SVG Version: 6.00 Build 0)  -->
<svg version="1.1" id="Camada_1" xmlns="http://www.w3.org/2000/svg" xmlns:xlink="http://www.w3.org/1999/xlink" x="0px" y="0px"
	 viewBox="0 0 246 180" style="enable-background:new 0 0 246 180;" xml:space="preserve">
<style type="text/css">
	.st0{clip-path:url(#SVGID_00000048499954405110459300000017650152026493688203_);}
	.st1{fill:#D9F339;}
	.st2{fill:#FFFFFF;filter:url(#Adobe_OpacityMaskFilter);}
	.st3{mask:url(#path-1-inside-1_85_507_00000178193492868580906590000013455858201093091483_);}
</style>
<g>
	<defs>
		<rect id="SVGID_1_" width="246" height="180"/>
	</defs>
	<clipPath id="SVGID_00000107559935714302455910000000704720459351356832_">
		<use xlink:href="#SVGID_1_"  style="overflow:visible;"/>
	</clipPath>
	<g style="clip-path:url(#SVGID_00000107559935714302455910000000704720459351356832_);">
		<path class="st1" d="M0-1.2h246v180H0V-1.2z"/>
		<path d="M247,128l-31,53h31L247,128L247,128z"/>
		<g>
			<path d="M170.9,42.5c-0.3-1-1.4-1.5-2.4-1.2c-8.6,2.9-17.6,5-26.7,6.2v-4.4c0-1.1-0.9-1.9-1.9-1.9h-7.7c-1.1,0-1.9,0.9-1.9,1.9
				v5.4c-3.8,0.2-7.7,0.2-11.6,0.1v-5.5c0-1.1-0.9-1.9-1.9-1.9H109c-1.1,0-1.9,0.9-1.9,1.9v4.6c-9.7-1.1-19.3-3.3-28.6-6.4
				c-1-0.3-2.1,0.2-2.4,1.2c-0.3,1,0.2,2.1,1.2,2.4c9.6,3.3,19.7,5.5,29.8,6.7v6.9l-12.7-2.2c-0.5-0.1-1,0-1.4,0.3
				c-0.4,0.3-0.7,0.7-0.8,1.2l-12.3,69.6c-0.2,1,0.5,2,1.6,2.2l37.3,6.6c0.1,0,0.2,0,0.3,0c0.4,0,0.8-0.1,1.1-0.3
				c0.4-0.3,0.7-0.7,0.8-1.2l12.3-69.6c0.2-1-0.5-2-1.6-2.2l-13-2.3v-8.1c1.6,0.1,3.2,0.1,4.9,0.1c2.2,0,4.5-0.1,6.7-0.2v4.5
				c0,1.1,0.9,1.9,1.9,1.9c1.1,0,1.9-0.9,1.9-1.9V45.1h3.9v4.7v11.7c-0.6,0.3-0.9,0.9-0.9,1.6c0,1.1,0.9,1.9,1.9,1.9h0.9
				c1.1,0,1.9-0.9,1.9-1.9v-0.9l9.6-1.7l11.6,65.8l-33.5,5.9l-0.2-1.4c-0.2-1-1.2-1.7-2.2-1.6c-1,0.2-1.7,1.2-1.6,2.2l0.6,3.3
				c0.2,0.9,1,1.6,1.9,1.6c0.1,0,0.2,0,0.3,0l37.3-6.6c1-0.2,1.7-1.2,1.6-2.2l-12.3-69.6c-0.1-0.5-0.4-0.9-0.8-1.2
				c-0.4-0.3-0.9-0.4-1.4-0.3l-10.9,1.9v-6.8c9.5-1.2,18.9-3.4,27.9-6.4C170.7,44.6,171.2,43.5,170.9,42.5L170.9,42.5z M114.8,45.1
				v16.1h-3.9V50.2c0,0,0-0.1,0-0.1c0-0.2,0-0.4,0-0.5v-4.5H114.8z M117.5,132.1L84,126.2l11.6-65.8l11.5,2v0.6
				c0,1.1,0.9,1.9,1.9,1.9h7.7c0.5,0,1-0.2,1.4-0.6l11,1.9L117.5,132.1L117.5,132.1z M107.8,89.4c-3.8-0.7-7.4,1.9-8.1,5.7
				c-0.7,3.8,1.9,7.4,5.7,8.1c0.4,0.1,0.8,0.1,1.2,0.1c3.3,0,6.3-2.4,6.9-5.8C114.1,93.7,111.6,90.1,107.8,89.4L107.8,89.4z
				 M109.7,96.8c-0.3,1.7-1.9,2.9-3.7,2.6c-1.7-0.3-2.9-1.9-2.6-3.7c0.3-1.5,1.6-2.6,3.1-2.6c0.2,0,0.4,0,0.6,0
				C108.8,93.5,110,95.1,109.7,96.8z M107.1,81.9l0-0.2c0.2-1,1.2-1.7,2.2-1.6c1,0.2,1.7,1.2,1.6,2.2l0,0.2c-0.2,0.9-1,1.6-1.9,1.6
				c-0.1,0-0.2,0-0.3,0C107.7,84,107,83,107.1,81.9z M106,110.6l0,0.2c-0.2,0.9-1,1.6-1.9,1.6c-0.1,0-0.2,0-0.3,0
				c-1-0.2-1.7-1.2-1.6-2.2l0-0.2c0.2-1,1.2-1.7,2.2-1.6C105.4,108.6,106.1,109.6,106,110.6z M117.3,68.6l-11.4-2
				c-0.5-0.1-1,0-1.4,0.3c-0.4,0.3-0.7,0.7-0.8,1.2c-0.1,0.8-0.6,1.6-1.3,2c-0.7,0.5-1.5,0.7-2.4,0.5c-1-0.2-2,0.5-2.2,1.6
				l-7.7,43.6c-0.1,0.5,0,1,0.3,1.4c0.3,0.4,0.7,0.7,1.2,0.8c1.7,0.3,2.9,1.9,2.6,3.7c-0.2,1,0.5,2,1.6,2.2l11.4,2
				c0.1,0,0.2,0,0.3,0c0.9,0,1.7-0.7,1.9-1.6c0.3-1.7,1.9-2.9,3.7-2.6c0.5,0.1,1,0,1.4-0.3c0.4-0.3,0.7-0.7,0.8-1.2l7.7-43.6
				c0.1-0.5,0-1-0.3-1.4c-0.3-0.4-0.7-0.7-1.2-0.8c-0.8-0.1-1.6-0.6-2-1.3c-0.5-0.7-0.7-1.5-0.5-2.4c0.1-0.5,0-1-0.3-1.4
				C118.2,69,117.8,68.7,117.3,68.6z M118.9,77.6l-7.1,40.4c-2.4,0.2-4.5,1.7-5.6,3.9l-8.1-1.4c-0.2-2.4-1.7-4.5-3.9-5.6l7.1-40.4
				c1.2-0.1,2.3-0.5,3.3-1.2c1-0.7,1.8-1.6,2.3-2.7l8.1,1.4c0.1,1.2,0.5,2.3,1.2,3.3C116.9,76.4,117.8,77.1,118.9,77.6L118.9,77.6z
				 M133.6,97.5c0.6,3.4,3.6,5.8,6.9,5.8c0.4,0,0.8,0,1.2-0.1c1.8-0.3,3.4-1.3,4.5-2.9c1.1-1.5,1.5-3.4,1.2-5.2
				c-0.3-1.8-1.3-3.4-2.9-4.5c-1.5-1.1-3.4-1.5-5.2-1.2C135.4,90.1,132.9,93.7,133.6,97.5L133.6,97.5z M139.9,93.2
				c0.2,0,0.4,0,0.6,0c0.6,0,1.3,0.2,1.8,0.6c0.7,0.5,1.2,1.2,1.3,2c0.1,0.8,0,1.7-0.5,2.4s-1.2,1.2-2,1.3c-1.7,0.3-3.4-0.8-3.7-2.6
				S138.2,93.5,139.9,93.2z M136.1,82.6l0-0.2c-0.2-1,0.5-2,1.6-2.2c1-0.2,2,0.5,2.2,1.6l0,0.2c0.2,1-0.5,2-1.6,2.2
				c-0.1,0-0.2,0-0.3,0C137.1,84.2,136.3,83.5,136.1,82.6z M144.8,110l0,0.2c0.2,1-0.5,2-1.6,2.2c-0.1,0-0.2,0-0.3,0
				c-0.9,0-1.7-0.7-1.9-1.6l0-0.2c-0.2-1,0.5-2,1.6-2.2C143.6,108.2,144.6,108.9,144.8,110z M133.4,107.4l1.9,10.6
				c2.4,0.2,4.5,1.7,5.6,3.9l8.1-1.4c0.2-2.4,1.7-4.5,3.9-5.6l-7.1-40.4c-1.2-0.1-2.3-0.5-3.3-1.2s-1.8-1.6-2.3-2.7l-1.5,0.3
				c-1,0.2-2-0.5-2.2-1.6c-0.2-1,0.5-2,1.6-2.2l3.1-0.5c0.5-0.1,1,0,1.4,0.3c0.4,0.3,0.7,0.7,0.8,1.2c0.1,0.8,0.6,1.6,1.3,2
				c0.7,0.5,1.5,0.7,2.4,0.5c0.5-0.1,1,0,1.4,0.3c0.4,0.3,0.7,0.7,0.8,1.2l7.7,43.6c0.2,1-0.5,2-1.6,2.2c-1.7,0.3-2.9,1.9-2.6,3.7
				c0.2,1-0.5,2-1.6,2.2l-11.4,2c-0.1,0-0.2,0-0.3,0c-0.9,0-1.7-0.7-1.9-1.6c-0.3-1.7-1.9-2.9-3.7-2.6c-0.5,0.1-1,0-1.4-0.3
				c-0.4-0.3-0.7-0.7-0.8-1.2l-2.2-12.2c-0.2-1,0.5-2,1.6-2.2C132.2,105.7,133.2,106.4,133.4,107.4L133.4,107.4z"/>
		</g>
	</g>
</g>
<defs>
	<filter id="Adobe_OpacityMaskFilter" filterUnits="userSpaceOnUse" x="0" y="176" width="246" height="8">
		<feColorMatrix  type="matrix" values="1 0 0 0 0  0 1 0 0 0  0 0 1 0 0  0 0 0 1 0"/>
	</filter>
</defs>
<mask maskUnits="userSpaceOnUse" x="0" y="176" width="246" height="8" id="path-1-inside-1_85_507_00000178193492868580906590000013455858201093091483_">
	<path class="st2" d="M0,0h246v180H0V0z"/>
</mask>
<path class="st3" d="M246,176H0v8h246V176z"/>
</svg>
