<?xml version="1.0" encoding="utf-8"?>
<!-- Generator: Adobe Illustrator 28.3.0, SVG Export Plug-In . SVG Version: 6.00 Build 0)  -->
<svg version="1.1" id="Camada_1" xmlns="http://www.w3.org/2000/svg" xmlns:xlink="http://www.w3.org/1999/xlink" x="0px" y="0px"
	 viewBox="0 0 246 180" style="enable-background:new 0 0 246 180;" xml:space="preserve">
<style type="text/css">
	.st0{clip-path:url(#SVGID_00000019668191234200694680000003599618891152669329_);}
	.st1{fill:#D9F339;}
	.st2{fill:#FFFFFF;filter:url(#Adobe_OpacityMaskFilter);}
	.st3{mask:url(#path-1-inside-1_85_543_00000127744135291214202070000013033626277412305330_);}
</style>
<g>
	<defs>
		<rect id="SVGID_1_" width="246" height="180"/>
	</defs>
	<clipPath id="SVGID_00000054978672153299617830000000915338140955051650_">
		<use xlink:href="#SVGID_1_"  style="overflow:visible;"/>
	</clipPath>
	<g style="clip-path:url(#SVGID_00000054978672153299617830000000915338140955051650_);">
		<path class="st1" d="M0,0.4h246v180H0V0.4z"/>
		<path d="M247,128l-31,53h31L247,128L247,128z"/>
		<g>
			<path d="M165.6,47.6H80.4c-4.1,0-7.4,3.3-7.4,7.4v70.8c0,4.1,3.3,7.4,7.4,7.4h85.2c4.1,0,7.4-3.3,7.4-7.4V55
				C173,50.9,169.7,47.6,165.6,47.6L165.6,47.6z M80.4,51.6h85.2c1.8,0,3.4,1.5,3.4,3.4v4.5H77V55C77,53.1,78.5,51.6,80.4,51.6z
				 M165.6,129.2H80.4c-1.8,0-3.4-1.5-3.4-3.4V63.6H169v62.2C169,127.7,167.5,129.2,165.6,129.2z M150,56.2c0-1.1,0.9-2,2-2h2.3
				c1.1,0,2,0.9,2,2c0,1.1-0.9,2-2,2H152C150.9,58.2,150,57.3,150,56.2z M106.8,56.2c0-1.1,0.9-2,2-2h11.1c1.1,0,2,0.9,2,2
				c0,1.1-0.9,2-2,2h-11.1C107.7,58.2,106.8,57.3,106.8,56.2z M80.4,56.2c0-1.1,0.9-2,2-2h2.3c1.1,0,2,0.9,2,2c0,1.1-0.9,2-2,2h-2.3
				C81.3,58.2,80.4,57.3,80.4,56.2z M88.5,56.2c0-1.1,0.9-2,2-2h11.1c1.1,0,2,0.9,2,2c0,1.1-0.9,2-2,2H90.5
				C89.4,58.2,88.5,57.3,88.5,56.2z M158.2,56.2c0-1.1,0.9-2,2-2h4.8c1.1,0,2,0.9,2,2c0,1.1-0.9,2-2,2h-4.8
				C159.1,58.2,158.2,57.3,158.2,56.2z M154.4,82.1l-30.2-15.2c-0.6-0.3-1.2-0.3-1.8,0L92.2,82.1c-0.7,0.3-1.1,1-1.1,1.8v3.8
				c0,1.1,0.9,2,2,2h5.8v24h-6.3c-1.1,0-2,0.9-2,2v4.7c0,1.1,0.9,2,2,2h61c1.1,0,2-0.9,2-2v-4.7c0-1.1-0.9-2-2-2h-6.8v-24h6.8
				c1.1,0,2-0.9,2-2v-3.8C155.5,83.1,155.1,82.4,154.4,82.1z M102.9,89.6h2.8v24h-2.8V89.6z M117.3,89.6v24h-7.6v-24H117.3z
				 M124.1,89.6v24h-2.8v-24H124.1z M135.8,89.6v24h-7.6v-24H135.8z M151.5,118.3h-57v-0.7h57V118.3z M142.6,113.6h-2.8v-24h2.8
				V113.6z M151.5,85.6H95.1v-0.5l28.2-14.2l28.2,14.2V85.6z"/>
		</g>
	</g>
</g>
<defs>
	<filter id="Adobe_OpacityMaskFilter" filterUnits="userSpaceOnUse" x="0" y="176" width="246" height="8">
		<feColorMatrix  type="matrix" values="1 0 0 0 0  0 1 0 0 0  0 0 1 0 0  0 0 0 1 0"/>
	</filter>
</defs>
<mask maskUnits="userSpaceOnUse" x="0" y="176" width="246" height="8" id="path-1-inside-1_85_543_00000127744135291214202070000013033626277412305330_">
	<path class="st2" d="M0,0h246v180H0V0z"/>
</mask>
<path class="st3" d="M246,176H0v8h246V176z"/>
</svg>
