<svg width="246" height="180" viewBox="0 0 246 180" fill="none" xmlns="http://www.w3.org/2000/svg">
<g clip-path="url(#clip0_85_547)">
<mask id="path-1-inside-1_85_547" fill="white">
<path d="M0 0H246V180H0V0Z"/>
</mask>
<path d="M0 0H246V180H0V0Z" fill="#D9F339"/>
<path d="M54.6757 156.195C52.1257 156.195 50.4307 154.905 50.3107 152.625H52.0507C52.2007 154.11 53.2807 154.74 54.7507 154.74C56.0857 154.74 57.0457 154.215 57.0457 153.15V153.075C57.0457 152.16 56.4007 151.695 54.2407 151.305C51.6157 150.84 50.6857 149.865 50.6857 148.275V148.17C50.6857 146.43 52.2007 145.155 54.5257 145.155C56.7607 145.155 58.3807 146.265 58.5907 148.44H56.8357C56.6857 147.21 55.8157 146.595 54.4957 146.595C53.1757 146.595 52.3957 147.195 52.3957 148.125V148.2C52.3957 149.025 52.8457 149.49 54.9607 149.85C57.5107 150.285 58.7707 151.17 58.7707 152.91V153.03C58.7707 154.875 57.1957 156.195 54.6757 156.195ZM61.77 144.9V147.15H60.045V144.9H61.77ZM60.075 148.275H61.725V156H60.075V148.275ZM66.3859 156.195C64.3909 156.195 63.1459 155.25 62.9959 153.6H64.5859C64.7209 154.515 65.3809 154.95 66.4009 154.95C67.3309 154.95 67.9609 154.575 67.9609 153.885C67.9609 153.27 67.5259 152.97 66.0559 152.7C64.1809 152.385 63.2659 151.785 63.2659 150.405C63.2659 149.025 64.5109 148.095 66.2809 148.095C68.1409 148.095 69.2959 148.98 69.4459 150.51H67.8709C67.7509 149.73 67.1509 149.31 66.2659 149.31C65.4109 149.31 64.8559 149.685 64.8559 150.315C64.8559 150.915 65.2909 151.2 66.7009 151.425C68.6509 151.74 69.5959 152.385 69.5959 153.735C69.5959 155.205 68.3209 156.195 66.3859 156.195ZM74.0555 156.195C72.3605 156.195 71.5205 155.415 71.5205 153.915V149.52H70.0205V148.275H71.5205V145.86H73.1705V148.275H75.2705V149.52H73.1705V153.735C73.1705 154.5 73.4555 154.845 74.3705 154.845C74.7005 154.845 75.0905 154.77 75.3155 154.695V156.015C74.9705 156.12 74.4455 156.195 74.0555 156.195ZM79.933 156.195C77.533 156.195 76.108 154.59 76.108 152.25V152.025C76.108 149.685 77.563 148.095 79.933 148.095C82.468 148.095 83.698 149.865 83.578 152.505H77.803C77.878 154.05 78.628 154.875 79.933 154.875C81.013 154.875 81.658 154.365 81.883 153.585H83.533C83.158 155.205 81.868 156.195 79.933 156.195ZM77.833 151.32H81.883C81.763 150.12 81.133 149.4 79.918 149.4C78.718 149.4 78.013 150.06 77.833 151.32ZM86.5688 156H84.9188V148.275H86.5088L86.5538 149.475C86.9438 148.74 87.7238 148.095 88.9388 148.095C90.0938 148.095 90.8888 148.62 91.2488 149.595C91.7888 148.65 92.6588 148.095 93.7988 148.095C95.5688 148.095 96.3788 149.235 96.3788 151.02V156H94.7288V151.35C94.7288 150.075 94.2638 149.46 93.2438 149.46C92.1338 149.46 91.4888 150.285 91.4888 151.71V156H89.8388V151.365C89.8388 150.105 89.3888 149.46 88.3688 149.46C87.2588 149.46 86.5688 150.27 86.5688 151.725V156ZM100.235 156.195C98.6452 156.195 97.6402 155.235 97.6402 153.915C97.6402 152.685 98.3902 151.875 99.7102 151.695L102.755 151.245V150.69C102.755 149.835 102.17 149.385 101.195 149.385C100.235 149.385 99.5902 149.82 99.5152 150.6H97.9402C98.0752 149.01 99.3352 148.095 101.225 148.095C103.22 148.095 104.345 149.145 104.345 150.75V156H102.83L102.77 154.8C102.29 155.67 101.345 156.195 100.235 156.195ZM100.61 154.89C101.765 154.89 102.755 154.17 102.755 153.165V152.46L100.28 152.805C99.5752 152.91 99.2452 153.24 99.2452 153.84C99.2452 154.485 99.7402 154.89 100.61 154.89ZM108.969 156.195C106.974 156.195 105.729 155.25 105.579 153.6H107.169C107.304 154.515 107.964 154.95 108.984 154.95C109.914 154.95 110.544 154.575 110.544 153.885C110.544 153.27 110.109 152.97 108.639 152.7C106.764 152.385 105.849 151.785 105.849 150.405C105.849 149.025 107.094 148.095 108.864 148.095C110.724 148.095 111.879 148.98 112.029 150.51H110.454C110.334 149.73 109.734 149.31 108.849 149.31C107.994 149.31 107.439 149.685 107.439 150.315C107.439 150.915 107.874 151.2 109.284 151.425C111.234 151.74 112.179 152.385 112.179 153.735C112.179 155.205 110.904 156.195 108.969 156.195ZM120.271 156.195C117.721 156.195 116.026 154.905 115.906 152.625H117.646C117.796 154.11 118.876 154.74 120.346 154.74C121.681 154.74 122.641 154.215 122.641 153.15V153.075C122.641 152.16 121.996 151.695 119.836 151.305C117.211 150.84 116.281 149.865 116.281 148.275V148.17C116.281 146.43 117.796 145.155 120.121 145.155C122.356 145.155 123.976 146.265 124.186 148.44H122.431C122.281 147.21 121.411 146.595 120.091 146.595C118.771 146.595 117.991 147.195 117.991 148.125V148.2C117.991 149.025 118.441 149.49 120.556 149.85C123.106 150.285 124.366 151.17 124.366 152.91V153.03C124.366 154.875 122.791 156.195 120.271 156.195ZM130.278 156.195C127.263 156.195 125.298 154.02 125.298 150.855V150.495C125.298 147.36 127.278 145.155 130.293 145.155C132.858 145.155 134.583 146.775 134.793 149.22H133.023C132.813 147.615 131.793 146.655 130.278 146.655C128.283 146.655 127.098 148.23 127.098 150.495V150.855C127.098 153.12 128.298 154.68 130.278 154.68C131.898 154.68 132.933 153.6 133.008 151.98H134.793C134.628 154.41 132.933 156.195 130.278 156.195ZM143.556 156H136.131V145.35H143.466V146.805H137.871V149.835H143.001V151.29H137.871V154.545H143.556V156ZM152.545 156H147.865V145.35H152.215C154.315 145.35 155.68 146.205 155.68 148.08V148.245C155.68 149.16 155.2 149.97 154.315 150.375C155.47 150.735 156.16 151.695 156.16 152.85V153.03C156.16 154.92 154.645 156 152.545 156ZM149.575 146.79V149.85H152.125C153.37 149.85 153.925 149.31 153.925 148.38V148.215C153.925 147.18 153.28 146.79 152.08 146.79H149.575ZM149.575 151.29V154.56H152.41C153.61 154.56 154.39 154.035 154.39 153V152.805C154.39 151.815 153.73 151.29 152.485 151.29H149.575ZM166.586 156H164.741L163.796 153.405H159.221L158.261 156H156.491L160.586 145.35H162.491L166.586 156ZM161.516 147.21L159.761 151.95H163.256L161.516 147.21ZM171.689 156.195C168.674 156.195 166.709 154.02 166.709 150.855V150.495C166.709 147.36 168.689 145.155 171.704 145.155C174.269 145.155 175.994 146.775 176.204 149.22H174.434C174.224 147.615 173.204 146.655 171.689 146.655C169.694 146.655 168.509 148.23 168.509 150.495V150.855C168.509 153.12 169.709 154.68 171.689 154.68C173.309 154.68 174.344 153.6 174.419 151.98H176.204C176.039 154.41 174.344 156.195 171.689 156.195ZM184.968 156H177.543V145.35H184.878V146.805H179.283V149.835H184.413V151.29H179.283V154.545H184.968V156ZM188.188 156H186.493V145.35H188.578L193.573 153.525V145.35H195.253V156H193.288L188.188 147.615V156Z" fill="black"/>
<path d="M246.988 128L216 181H247V128H246.988Z" fill="black"/>
<g filter="url(#filter0_d_85_547)">
<path d="M92.2023 47.6992H153.797C154.688 47.6992 155.465 47.0812 155.664 46.2101C155.863 45.3389 155.434 44.4474 154.627 44.0591L123.832 29.2219C123.308 28.9686 122.694 28.9686 122.17 29.2219L91.3716 44.0591C90.568 44.4474 90.1357 45.3389 90.335 46.2101C90.5342 47.0812 91.3075 47.6992 92.2023 47.6992ZM123.001 33.0747L145.412 43.8734H100.59L123.005 33.0747H123.001ZM173.091 103.475H164.98C164.909 102.966 164.818 102.435 164.717 101.953C164.467 100.771 163.944 98.3091 161.901 98.3091H160.472V62.3372C160.621 62.3507 160.773 62.3574 160.925 62.3574C163.802 62.3574 166.142 60.0174 166.142 57.1404C166.142 56.4279 165.997 55.6918 165.737 54.9928H172.618C173.675 54.9928 174.533 54.1352 174.533 53.0783V46.9023C174.533 46.1797 174.124 45.5178 173.479 45.1937L123.862 20.2061C123.322 19.9326 122.68 19.9326 122.14 20.2061L72.5263 45.1937C71.8813 45.5178 71.4727 46.1797 71.4727 46.9023V53.0783C71.4727 54.1352 72.3304 54.9928 73.3873 54.9928H79.4451C79.1817 55.6986 79.0332 56.4313 79.0332 57.1404C79.0332 60.0174 81.3732 62.3574 84.2468 62.3574C84.3987 62.3574 84.5507 62.3507 84.6993 62.3372V98.3091H83.2743C81.228 98.3091 80.708 100.771 80.4581 101.953C80.3568 102.435 80.2657 102.962 80.1947 103.475H72.9146C71.8577 103.475 71 104.333 71 105.39V113.086C71 114.142 71.8577 115 72.9146 115H173.091C174.148 115 175.006 114.142 175.006 113.086V105.39C175.006 104.333 174.148 103.475 173.091 103.475ZM161.107 103.475H144.804C144.886 102.993 144.983 102.513 145.081 102.138H160.827C160.925 102.513 161.023 102.989 161.107 103.475ZM134.61 103.475C134.539 102.966 134.448 102.435 134.347 101.953C134.097 100.771 133.574 98.3091 131.531 98.3091H130.102V62.3372C130.251 62.3507 130.403 62.3574 130.555 62.3574C133.432 62.3574 135.772 60.0174 135.772 57.1404C135.772 56.4279 135.627 55.6918 135.367 54.9928H140.185C139.922 55.6986 139.773 56.4313 139.773 57.1404C139.773 60.0174 142.113 62.3574 144.987 62.3574C145.139 62.3574 145.291 62.3507 145.439 62.3372V98.3091H144.014C141.968 98.3091 141.448 100.771 141.198 101.953C141.097 102.435 141.006 102.962 140.935 103.475H134.614H134.61ZM104.24 103.475C104.169 102.966 104.078 102.435 103.977 101.953C103.727 100.771 103.204 98.3091 101.161 98.3091H99.7323V62.3372C99.8809 62.3507 100.033 62.3574 100.185 62.3574C103.062 62.3574 105.402 60.0174 105.402 57.1404C105.402 56.4279 105.257 55.6918 104.997 54.9928H109.808C109.548 55.6918 109.403 56.4279 109.403 57.1404C109.403 60.0174 111.743 62.3574 114.617 62.3574C114.769 62.3574 114.921 62.3507 115.069 62.3372V98.3091H113.644C111.598 98.3091 111.078 100.771 110.828 101.953C110.727 102.435 110.636 102.966 110.565 103.475H104.244H104.24ZM130.555 54.9928C131.092 54.9928 131.946 56.1646 131.946 57.1404C131.946 57.9069 131.321 58.5282 130.555 58.5282C129.788 58.5282 129.211 57.9407 129.18 57.1945C129.14 56.1679 128.296 55.3575 127.266 55.3575H117.906C116.876 55.3575 116.032 56.1713 115.991 57.1978C115.961 57.9441 115.36 58.5282 114.617 58.5282C113.874 58.5282 113.229 57.9069 113.229 57.1404C113.229 56.1646 114.08 54.9928 114.617 54.9928H130.551H130.555ZM118.898 98.3091V60.1187C119.098 59.8283 119.273 59.5176 119.412 59.1867H125.76C125.898 59.5142 126.071 59.8249 126.27 60.1119V98.3091H118.895H118.898ZM114.715 102.138H130.46C130.558 102.513 130.656 102.989 130.741 103.475H114.438C114.519 102.993 114.617 102.513 114.715 102.138ZM149.268 98.3091V60.1187C149.468 59.8283 149.643 59.5176 149.782 59.1867H156.13C156.268 59.5142 156.441 59.8249 156.64 60.1119V98.3091H149.265H149.268ZM161.735 55.5838C162.086 56.0464 162.313 56.6576 162.313 57.1438C162.313 57.9103 161.688 58.5316 160.921 58.5316C160.155 58.5316 159.578 57.9441 159.547 57.1978C159.507 56.1713 158.662 55.3609 157.633 55.3609H148.272C147.242 55.3609 146.398 56.1747 146.358 57.2012C146.327 57.9475 145.726 58.5316 144.983 58.5316C144.241 58.5316 143.596 57.9103 143.596 57.1438C143.596 56.1679 144.447 54.9962 144.983 54.9962H160.918C161.1 54.9962 161.421 55.1786 161.728 55.5871L161.735 55.5838ZM75.3019 48.0841L123.001 24.0589L170.704 48.0841V51.167H75.3019V48.0841ZM82.8623 57.1404C82.8623 56.1646 83.7133 54.9928 84.2502 54.9928H100.185C100.367 54.9928 100.688 55.1752 100.995 55.5838C101.346 56.0464 101.573 56.6576 101.573 57.1438C101.573 57.9103 100.948 58.5316 100.181 58.5316C99.4149 58.5316 98.8375 57.9441 98.8071 57.1978C98.7666 56.1713 97.9224 55.3609 96.8925 55.3609H87.5323C86.5024 55.3609 85.6582 56.1747 85.6177 57.2012C85.5873 57.9475 84.9863 58.5316 84.2434 58.5316C83.5005 58.5316 82.8556 57.9103 82.8556 57.1438L82.8623 57.1404ZM88.5284 60.1187C88.7277 59.8283 88.9032 59.5176 89.0417 59.1867H95.3933C95.5317 59.5142 95.7039 59.8249 95.9031 60.1119V98.3091H88.5284V60.1187ZM84.3447 102.138H100.09C100.188 102.513 100.286 102.989 100.371 103.475H84.0678C84.1489 102.993 84.2468 102.513 84.3447 102.138ZM171.176 111.171H74.8292V107.301H171.176V111.171Z" fill="black"/>
</g>
</g>
<path d="M246 176H0V184H246V176Z" fill="black" mask="url(#path-1-inside-1_85_547)"/>
<defs>
<filter id="filter0_d_85_547" x="71" y="20.001" width="106.006" height="96.999" filterUnits="userSpaceOnUse" color-interpolation-filters="sRGB">
<feFlood flood-opacity="0" result="BackgroundImageFix"/>
<feColorMatrix in="SourceAlpha" type="matrix" values="0 0 0 0 0 0 0 0 0 0 0 0 0 0 0 0 0 0 127 0" result="hardAlpha"/>
<feOffset dx="2" dy="2"/>
<feComposite in2="hardAlpha" operator="out"/>
<feColorMatrix type="matrix" values="0 0 0 0 0 0 0 0 0 0 0 0 0 0 0 0 0 0 0.1 0"/>
<feBlend mode="normal" in2="BackgroundImageFix" result="effect1_dropShadow_85_547"/>
<feBlend mode="normal" in="SourceGraphic" in2="effect1_dropShadow_85_547" result="shape"/>
</filter>
<clipPath id="clip0_85_547">
<path d="M0 0H246V180H0V0Z" fill="white"/>
</clipPath>
</defs>
</svg>
