<svg width="246" height="180" viewBox="0 0 246 180" fill="none" xmlns="http://www.w3.org/2000/svg">
<g clip-path="url(#clip0_82_476)">
<mask id="path-1-inside-1_82_476" fill="white">
<path d="M0 0H246V180H0V0Z"/>
</mask>
<path d="M0 0H246V180H0V0Z" fill="#D9F339"/>
<path d="M42.4686 138H40.7136V127.35H42.4686V138ZM45.934 138H44.284V130.275H45.874L45.934 131.505C46.339 130.74 47.149 130.095 48.394 130.095C50.269 130.095 51.064 131.265 51.064 133.02V138H49.429V133.425C49.429 132.165 48.964 131.46 47.839 131.46C46.699 131.46 45.934 132.3 45.934 133.68V138ZM55.8768 138.195C54.1818 138.195 53.3418 137.415 53.3418 135.915V131.52H51.8418V130.275H53.3418V127.86H54.9918V130.275H57.0918V131.52H54.9918V135.735C54.9918 136.5 55.2768 136.845 56.1918 136.845C56.5218 136.845 56.9118 136.77 57.1368 136.695V138.015C56.7918 138.12 56.2668 138.195 55.8768 138.195ZM61.7543 138.195C59.3543 138.195 57.9293 136.59 57.9293 134.25V134.025C57.9293 131.685 59.3843 130.095 61.7543 130.095C64.2893 130.095 65.5193 131.865 65.3993 134.505H59.6243C59.6993 136.05 60.4493 136.875 61.7543 136.875C62.8343 136.875 63.4793 136.365 63.7043 135.585H65.3543C64.9793 137.205 63.6893 138.195 61.7543 138.195ZM59.6543 133.32H63.7043C63.5843 132.12 62.9543 131.4 61.7393 131.4C60.5393 131.4 59.8343 132.06 59.6543 133.32ZM66.74 126.9H68.39V138H66.74V126.9ZM71.7309 126.9V129.15H70.0059V126.9H71.7309ZM70.0359 130.275H71.6859V138H70.0359V130.275ZM76.7218 140.745C74.5918 140.745 73.3918 139.8 73.2268 138.45H75.0268C75.1168 139.125 75.7018 139.5 76.8118 139.5C78.0868 139.5 78.8518 138.87 78.8518 137.655V136.515C78.4468 137.265 77.5768 137.88 76.3768 137.88C74.3218 137.88 73.0318 136.26 73.0318 134.13V133.83C73.0318 131.685 74.3068 130.095 76.3318 130.095C77.6518 130.095 78.5368 130.815 78.9268 131.55L78.9718 130.275H80.5018V137.505C80.5018 139.5 79.1668 140.745 76.7218 140.745ZM76.7818 136.56C78.1468 136.56 78.9118 135.6 78.9118 134.13V133.83C78.9118 132.33 78.1618 131.4 76.7818 131.4C75.4468 131.4 74.7118 132.33 74.7118 133.83V134.13C74.7118 135.6 75.4618 136.56 76.7818 136.56ZM87.9252 129.15H86.6502L85.6902 127.86L84.7452 129.15H83.4702L84.6552 126.9H86.7402L87.9252 129.15ZM85.6752 138.195C83.2752 138.195 81.8502 136.59 81.8502 134.25V134.025C81.8502 131.685 83.3052 130.095 85.6752 130.095C88.2102 130.095 89.4402 131.865 89.3202 134.505H83.5452C83.6202 136.05 84.3702 136.875 85.6752 136.875C86.7552 136.875 87.4002 136.365 87.6252 135.585H89.2752C88.9002 137.205 87.6102 138.195 85.6752 138.195ZM83.5752 133.32H87.6252C87.5052 132.12 86.8752 131.4 85.6602 131.4C84.4602 131.4 83.7552 132.06 83.5752 133.32ZM92.3109 138H90.6609V130.275H92.2509L92.3109 131.505C92.7159 130.74 93.5259 130.095 94.7709 130.095C96.6459 130.095 97.4409 131.265 97.4409 133.02V138H95.8059V133.425C95.8059 132.165 95.3409 131.46 94.2159 131.46C93.0759 131.46 92.3109 132.3 92.3109 133.68V138ZM102.46 138.195C100.12 138.195 98.7398 136.59 98.7398 134.25V134.025C98.7398 131.685 100.12 130.095 102.475 130.095C104.41 130.095 105.685 131.235 105.895 133.02H104.275C104.11 132.045 103.54 131.43 102.445 131.43C101.11 131.43 100.42 132.36 100.42 134.025V134.25C100.42 135.915 101.11 136.86 102.445 136.86C103.54 136.86 104.125 136.215 104.29 135.24H105.925C105.67 137.055 104.395 138.195 102.46 138.195ZM108.865 126.9V129.15H107.14V126.9H108.865ZM107.17 130.275H108.82V138H107.17V130.275ZM112.716 138.195C111.126 138.195 110.121 137.235 110.121 135.915C110.121 134.685 110.871 133.875 112.191 133.695L115.236 133.245V132.69C115.236 131.835 114.651 131.385 113.676 131.385C112.716 131.385 112.071 131.82 111.996 132.6H110.421C110.556 131.01 111.816 130.095 113.706 130.095C115.701 130.095 116.826 131.145 116.826 132.75V138H115.311L115.251 136.8C114.771 137.67 113.826 138.195 112.716 138.195ZM113.091 136.89C114.246 136.89 115.236 136.17 115.236 135.165V134.46L112.761 134.805C112.056 134.91 111.726 135.24 111.726 135.84C111.726 136.485 112.221 136.89 113.091 136.89ZM124.743 138.195C122.343 138.195 120.918 136.59 120.918 134.25V134.025C120.918 131.685 122.373 130.095 124.743 130.095C127.278 130.095 128.508 131.865 128.388 134.505H122.613C122.688 136.05 123.438 136.875 124.743 136.875C125.823 136.875 126.468 136.365 126.693 135.585H128.343C127.968 137.205 126.678 138.195 124.743 138.195ZM122.643 133.32H126.693C126.573 132.12 125.943 131.4 124.728 131.4C123.528 131.4 122.823 132.06 122.643 133.32ZM134.312 138H132.587V127.35H136.922C139.067 127.35 140.567 128.46 140.567 130.53V130.77C140.567 132.84 139.067 133.95 136.922 133.95H134.312V138ZM134.312 128.82V132.48H136.787C137.987 132.48 138.782 131.94 138.782 130.77V130.53C138.782 129.36 137.987 128.82 136.787 128.82H134.312ZM143.434 138H141.784V130.275H143.374L143.419 131.775C143.839 130.785 144.649 130.125 145.759 130.125C145.879 130.125 146.044 130.14 146.179 130.17V131.775C146.029 131.76 145.849 131.745 145.669 131.745C144.274 131.745 143.434 132.54 143.434 134.07V138ZM150.538 138.195C148.138 138.195 146.713 136.59 146.713 134.25V134.025C146.713 131.685 148.168 130.095 150.538 130.095C153.073 130.095 154.303 131.865 154.183 134.505H148.408C148.483 136.05 149.233 136.875 150.538 136.875C151.618 136.875 152.263 136.365 152.488 135.585H154.138C153.763 137.205 152.473 138.195 150.538 138.195ZM148.438 133.32H152.488C152.368 132.12 151.738 131.4 150.523 131.4C149.323 131.4 148.618 132.06 148.438 133.32ZM159.164 138H157.334L154.469 130.275H156.209L158.279 136.32L160.319 130.275H162.014L159.164 138ZM166.168 138.195C163.768 138.195 162.343 136.59 162.343 134.25V134.025C162.343 131.685 163.798 130.095 166.168 130.095C168.703 130.095 169.933 131.865 169.813 134.505H164.038C164.113 136.05 164.863 136.875 166.168 136.875C167.248 136.875 167.893 136.365 168.118 135.585H169.768C169.393 137.205 168.103 138.195 166.168 138.195ZM164.068 133.32H168.118C167.998 132.12 167.368 131.4 166.153 131.4C164.953 131.4 164.248 132.06 164.068 133.32ZM172.804 138H171.154V130.275H172.744L172.804 131.505C173.209 130.74 174.019 130.095 175.264 130.095C177.139 130.095 177.934 131.265 177.934 133.02V138H176.299V133.425C176.299 132.165 175.834 131.46 174.709 131.46C173.569 131.46 172.804 132.3 172.804 133.68V138ZM184.783 135.24H186.418C186.178 136.935 185.053 138.045 183.328 138.18L183.013 138.84H183.088C183.808 138.84 184.528 139.11 184.528 140.055C184.528 141.015 183.718 141.42 182.713 141.42C182.173 141.42 181.843 141.33 181.663 141.24V140.43C181.858 140.52 182.143 140.58 182.428 140.58C182.968 140.58 183.193 140.385 183.193 140.055C183.193 139.71 182.968 139.545 182.548 139.545C182.323 139.545 182.083 139.575 181.948 139.605V138.99L182.368 138.165C180.388 137.91 179.233 136.38 179.233 134.25V134.025C179.233 131.685 180.613 130.095 182.968 130.095C184.903 130.095 186.178 131.235 186.388 133.02H184.768C184.603 132.045 184.033 131.43 182.938 131.43C181.603 131.43 180.913 132.36 180.913 134.025V134.25C180.913 135.915 181.603 136.86 182.938 136.86C184.033 136.86 184.618 136.215 184.783 135.24ZM191.863 129.03C191.113 129.03 190.648 128.385 190.168 128.385C189.883 128.385 189.763 128.58 189.748 128.985H188.623C188.683 127.65 189.073 127.065 189.943 127.065C190.663 127.065 191.188 127.71 191.638 127.71C191.938 127.71 192.028 127.515 192.058 127.11H193.183C193.123 128.475 192.688 129.03 191.863 129.03ZM189.913 138.195C188.323 138.195 187.318 137.235 187.318 135.915C187.318 134.685 188.068 133.875 189.388 133.695L192.433 133.245V132.69C192.433 131.835 191.848 131.385 190.873 131.385C189.913 131.385 189.268 131.82 189.193 132.6H187.618C187.753 131.01 189.013 130.095 190.903 130.095C192.898 130.095 194.023 131.145 194.023 132.75V138H192.508L192.448 136.8C191.968 137.67 191.023 138.195 189.913 138.195ZM190.288 136.89C191.443 136.89 192.433 136.17 192.433 135.165V134.46L189.958 134.805C189.253 134.91 188.923 135.24 188.923 135.84C188.923 136.485 189.418 136.89 190.288 136.89ZM199.142 138.195C196.832 138.195 195.332 136.605 195.332 134.25V134.025C195.332 131.67 196.832 130.095 199.142 130.095C201.467 130.095 202.967 131.67 202.967 134.025V134.25C202.967 136.605 201.467 138.195 199.142 138.195ZM199.142 136.86C200.552 136.86 201.287 135.915 201.287 134.25V134.025C201.287 132.36 200.552 131.43 199.142 131.43C197.747 131.43 197.012 132.36 197.012 134.025V134.25C197.012 135.915 197.747 136.86 199.142 136.86ZM74.4539 156.195C72.8639 156.195 71.8589 155.235 71.8589 153.915C71.8589 152.685 72.6089 151.875 73.9289 151.695L76.9739 151.245V150.69C76.9739 149.835 76.3889 149.385 75.4139 149.385C74.4539 149.385 73.8089 149.82 73.7339 150.6H72.1589C72.2939 149.01 73.5539 148.095 75.4439 148.095C77.4389 148.095 78.5639 149.145 78.5639 150.75V156H77.0489L76.9889 154.8C76.5089 155.67 75.5639 156.195 74.4539 156.195ZM74.8289 154.89C75.9839 154.89 76.9739 154.17 76.9739 153.165V152.46L74.4989 152.805C73.7939 152.91 73.4639 153.24 73.4639 153.84C73.4639 154.485 73.9589 154.89 74.8289 154.89ZM84.7709 156H83.0309V145.35H90.0059V146.805H84.7709V150.015H89.5109V151.47H84.7709V156ZM92.5307 156H90.8807V148.275H92.4707L92.5157 149.775C92.9357 148.785 93.7457 148.125 94.8557 148.125C94.9757 148.125 95.1407 148.14 95.2757 148.17V149.775C95.1257 149.76 94.9457 149.745 94.7657 149.745C93.3707 149.745 92.5307 150.54 92.5307 152.07V156ZM98.3455 156.195C96.7555 156.195 95.7505 155.235 95.7505 153.915C95.7505 152.685 96.5005 151.875 97.8205 151.695L100.866 151.245V150.69C100.866 149.835 100.281 149.385 99.3055 149.385C98.3455 149.385 97.7005 149.82 97.6255 150.6H96.0505C96.1855 149.01 97.4455 148.095 99.3355 148.095C101.331 148.095 102.456 149.145 102.456 150.75V156H100.941L100.881 154.8C100.401 155.67 99.4555 156.195 98.3455 156.195ZM98.7205 154.89C99.8755 154.89 100.866 154.17 100.866 153.165V152.46L98.3905 152.805C97.6855 152.91 97.3555 153.24 97.3555 153.84C97.3555 154.485 97.8505 154.89 98.7205 154.89ZM106.674 156.195C104.874 156.195 104.004 155.055 104.004 153.24V148.275H105.669V152.925C105.669 154.11 106.104 154.815 107.214 154.815C108.354 154.815 109.029 153.945 109.029 152.565V148.275H110.694V156H109.089L109.059 154.83C108.609 155.58 107.784 156.195 106.674 156.195ZM115.371 156.195C113.346 156.195 112.041 154.56 112.041 152.25V152.025C112.041 149.73 113.301 148.095 115.341 148.095C116.571 148.095 117.411 148.68 117.861 149.4V144.9H119.511V156H117.981L117.936 154.71C117.561 155.445 116.691 156.195 115.371 156.195ZM115.791 154.86C117.171 154.86 117.921 153.915 117.921 152.25V152.025C117.921 150.36 117.156 149.4 115.791 149.4C114.471 149.4 113.721 150.36 113.721 152.025V152.25C113.721 153.9 114.456 154.86 115.791 154.86ZM124.684 156.195C122.284 156.195 120.859 154.59 120.859 152.25V152.025C120.859 149.685 122.314 148.095 124.684 148.095C127.219 148.095 128.449 149.865 128.329 152.505H122.554C122.629 154.05 123.379 154.875 124.684 154.875C125.764 154.875 126.409 154.365 126.634 153.585H128.284C127.909 155.205 126.619 156.195 124.684 156.195ZM122.584 151.32H126.634C126.514 150.12 125.884 149.4 124.669 149.4C123.469 149.4 122.764 150.06 122.584 151.32ZM136.248 156H132.528V145.35H136.248C139.368 145.35 141.513 147.165 141.513 150.495V150.855C141.513 154.155 139.383 156 136.248 156ZM134.268 146.82V154.53H136.128C138.318 154.53 139.713 153.405 139.713 150.855V150.495C139.713 147.96 138.333 146.82 136.098 146.82H134.268ZM144.592 144.9V147.15H142.867V144.9H144.592ZM142.897 148.275H144.547V156H142.897V148.275ZM149.583 158.745C147.453 158.745 146.253 157.8 146.088 156.45H147.888C147.978 157.125 148.563 157.5 149.673 157.5C150.948 157.5 151.713 156.87 151.713 155.655V154.515C151.308 155.265 150.438 155.88 149.238 155.88C147.183 155.88 145.893 154.26 145.893 152.13V151.83C145.893 149.685 147.168 148.095 149.193 148.095C150.513 148.095 151.398 148.815 151.788 149.55L151.833 148.275H153.363V155.505C153.363 157.5 152.028 158.745 149.583 158.745ZM149.643 154.56C151.008 154.56 151.773 153.6 151.773 152.13V151.83C151.773 150.33 151.023 149.4 149.643 149.4C148.308 149.4 147.573 150.33 147.573 151.83V152.13C147.573 153.6 148.323 154.56 149.643 154.56ZM156.707 144.9V147.15H154.982V144.9H156.707ZM155.012 148.275H156.662V156H155.012V148.275ZM161.682 156.195C159.987 156.195 159.147 155.415 159.147 153.915V149.52H157.647V148.275H159.147V145.86H160.797V148.275H162.897V149.52H160.797V153.735C160.797 154.5 161.082 154.845 161.997 154.845C162.327 154.845 162.717 154.77 162.942 154.695V156.015C162.597 156.12 162.072 156.195 161.682 156.195ZM166.431 156.195C164.841 156.195 163.836 155.235 163.836 153.915C163.836 152.685 164.586 151.875 165.906 151.695L168.951 151.245V150.69C168.951 149.835 168.366 149.385 167.391 149.385C166.431 149.385 165.786 149.82 165.711 150.6H164.136C164.271 149.01 165.531 148.095 167.421 148.095C169.416 148.095 170.541 149.145 170.541 150.75V156H169.026L168.966 154.8C168.486 155.67 167.541 156.195 166.431 156.195ZM166.806 154.89C167.961 154.89 168.951 154.17 168.951 153.165V152.46L166.476 152.805C165.771 152.91 165.441 153.24 165.441 153.84C165.441 154.485 165.936 154.89 166.806 154.89ZM172.15 144.9H173.8V156H172.15V144.9Z" fill="black"/>
<path d="M246.988 128L216 181H247V128H246.988Z" fill="black"/>
<g filter="url(#filter0_d_82_476)">
<path d="M131.496 101.777C125.773 105.168 120.664 107.101 118.131 107.951C117.935 108.018 117.729 108.049 117.523 108.049C117.341 108.049 117.155 108.022 116.98 107.971C112.978 106.784 102.679 103.16 93.4643 95.1605C81.8991 85.1231 76.0371 71.9716 76.0371 56.0772L76 27.9321C76 27.1324 76.4964 26.4172 77.246 26.1371C84.3067 23.5021 96.0778 20 116.669 20C131.844 20 145.634 22.0884 157.652 26.2114C158.425 26.4779 158.945 27.2033 158.945 28.0231L158.928 56.0839C158.928 62.3763 157.905 68.3649 155.886 73.8813C155.525 74.8732 154.424 75.3827 153.431 75.0217C152.438 74.6573 151.928 73.5608 152.29 72.5688C154.154 67.4709 155.099 61.9242 155.099 56.0839L155.116 29.3963C143.804 25.6985 130.878 23.826 116.669 23.826C97.8742 23.826 86.7311 26.8052 79.8326 29.2681L79.8697 56.0738C79.8697 89.6071 107.913 101.169 117.486 104.132C120.025 103.248 124.53 101.46 129.544 98.4872C130.453 97.9473 131.628 98.2476 132.168 99.1552C132.708 100.063 132.408 101.237 131.499 101.777H131.496ZM117.294 32.0313C118.351 32.0313 119.208 32.8883 119.208 33.9444V93.3049C119.208 93.9392 118.894 94.5296 118.371 94.8838C118.047 95.1031 117.672 95.2145 117.294 95.2145C117.057 95.2145 116.821 95.1706 116.595 95.0829C111.661 93.1463 104.543 89.5295 98.6711 83.2945C91.6881 75.882 88.146 66.6476 88.146 55.8511L88.1223 36.657C88.1223 35.7696 88.7301 35.0004 89.5912 34.7946C94.869 33.5327 103.962 32.028 117.297 32.028L117.294 32.0313ZM115.379 35.8675C104.601 35.9889 96.8916 37.1158 91.9481 38.1854L91.9718 55.8545C91.9718 76.1182 105.614 85.9666 115.379 90.4168V35.8675ZM170.753 110.144C170.416 110.748 169.778 111.119 169.085 111.119H132.009C131.317 111.119 130.679 110.745 130.341 110.144C130.004 109.54 130.017 108.801 130.375 108.211L148.913 77.8153C149.261 77.2451 149.879 76.8976 150.547 76.8976C151.216 76.8976 151.834 77.2451 152.182 77.8153L170.72 108.211C171.081 108.801 171.095 109.54 170.753 110.144ZM165.678 107.296L150.547 82.4881L135.416 107.296H165.678ZM148.633 89.3574V98.3354C148.633 99.3914 149.49 100.248 150.547 100.248C151.604 100.248 152.462 99.3914 152.462 98.3354V89.3574C152.462 88.3014 151.604 87.4444 150.547 87.4444C149.49 87.4444 148.633 88.3014 148.633 89.3574ZM150.547 101.743C149.49 101.743 148.633 102.6 148.633 103.656V103.666C148.633 104.722 149.49 105.576 150.547 105.576C151.604 105.576 152.462 104.715 152.462 103.659C152.462 102.603 151.604 101.746 150.547 101.746V101.743Z" fill="black"/>
</g>
</g>
<path d="M246 176H0V184H246V176Z" fill="black" mask="url(#path-1-inside-1_82_476)"/>
<defs>
<filter id="filter0_d_82_476" x="76" y="20" width="97.0003" height="93.1191" filterUnits="userSpaceOnUse" color-interpolation-filters="sRGB">
<feFlood flood-opacity="0" result="BackgroundImageFix"/>
<feColorMatrix in="SourceAlpha" type="matrix" values="0 0 0 0 0 0 0 0 0 0 0 0 0 0 0 0 0 0 127 0" result="hardAlpha"/>
<feOffset dx="2" dy="2"/>
<feComposite in2="hardAlpha" operator="out"/>
<feColorMatrix type="matrix" values="0 0 0 0 0 0 0 0 0 0 0 0 0 0 0 0 0 0 0.1 0"/>
<feBlend mode="normal" in2="BackgroundImageFix" result="effect1_dropShadow_82_476"/>
<feBlend mode="normal" in="SourceGraphic" in2="effect1_dropShadow_82_476" result="shape"/>
</filter>
<clipPath id="clip0_82_476">
<path d="M0 0H246V180H0V0Z" fill="white"/>
</clipPath>
</defs>
</svg>
