<svg width="246" height="180" viewBox="0 0 246 180" fill="none" xmlns="http://www.w3.org/2000/svg">
<g clip-path="url(#clip0_85_507)">
<mask id="path-1-inside-1_85_507" fill="white">
<path d="M0 0H246V180H0V0Z"/>
</mask>
<path d="M0 0H246V180H0V0Z" fill="#D9F339"/>
<path d="M100.364 156H98.6388V145.35H102.974C105.119 145.35 106.619 146.46 106.619 148.53V148.77C106.619 150.84 105.119 151.95 102.974 151.95H100.364V156ZM100.364 146.82V150.48H102.839C104.039 150.48 104.834 149.94 104.834 148.77V148.53C104.834 147.36 104.039 146.82 102.839 146.82H100.364ZM114.121 156H107.911V145.35H109.666V154.545H114.121V156ZM119.161 156H115.441V145.35H119.161C122.281 145.35 124.426 147.165 124.426 150.495V150.855C124.426 154.155 122.296 156 119.161 156ZM117.181 146.82V154.53H119.041C121.231 154.53 122.626 153.405 122.626 150.855V150.495C122.626 147.96 121.246 146.82 119.011 146.82H117.181ZM130.445 152.325H125.795V150.9H130.445V152.325ZM133.909 156H132.169V145.35H139.144V146.805H133.909V150.015H138.649V151.47H133.909V156ZM144.809 156H143.054V146.805H139.919V145.35H147.959V146.805H144.809V156Z" fill="black"/>
<path d="M246.988 128L216 181H247V128H246.988Z" fill="black"/>
<g filter="url(#filter0_d_85_507)">
<path d="M170.899 21.3C170.558 20.2971 169.474 19.7636 168.471 20.1013C159.827 23.0357 150.858 25.1157 141.778 26.3043V21.9146C141.778 20.8577 140.92 20 139.864 20H132.158C131.101 20 130.243 20.8577 130.243 21.9146V27.3274C126.394 27.5098 122.494 27.5368 118.638 27.4051V21.9146C118.641 20.8577 117.783 20 116.726 20H109.021C107.964 20 107.106 20.8577 107.106 21.9146V26.5373C97.3779 25.3993 87.7746 23.2383 78.5292 20.1013C77.5297 19.7636 76.4424 20.2971 76.1013 21.3C75.7603 22.2995 76.2972 23.3868 77.3001 23.7279C86.9405 26.9999 96.9592 29.2386 107.106 30.3901V37.3157L94.3591 35.0668C93.8594 34.979 93.3461 35.0938 92.9274 35.3842C92.5121 35.6746 92.2284 36.1204 92.1406 36.6201L79.8799 106.177C79.6975 107.217 80.3897 108.209 81.4331 108.395L118.739 114.973C118.85 114.993 118.962 115.003 119.07 115.003C119.461 115.003 119.843 114.885 120.167 114.656C120.583 114.365 120.866 113.919 120.954 113.42L133.218 43.8665C133.401 42.8265 132.708 41.8337 131.665 41.648L118.638 39.3519V31.2376C120.255 31.2917 121.883 31.3187 123.497 31.3187C125.739 31.3187 127.998 31.2647 130.243 31.1634V35.6138C130.243 36.6708 131.101 37.5284 132.158 37.5284C133.215 37.5284 134.072 36.6708 134.072 35.6138V23.8292H137.949V28.4924V40.1724C137.388 40.5067 137.01 41.1179 137.01 41.8202C137.01 42.8771 137.868 43.7348 138.925 43.7348H139.864C140.92 43.7348 141.778 42.8771 141.778 41.8202V40.8747L151.419 39.1763L163.018 104.958L129.484 110.87L129.237 109.479C129.055 108.439 128.059 107.743 127.019 107.926C125.979 108.108 125.283 109.101 125.465 110.144L126.043 113.42C126.208 114.348 127.015 115.003 127.927 115.003C128.038 115.003 128.15 114.993 128.261 114.973L165.567 108.395C166.607 108.213 167.303 107.22 167.12 106.177L154.856 36.6235C154.768 36.1237 154.485 35.678 154.069 35.3876C153.654 35.0972 153.137 34.9824 152.638 35.0702L141.775 36.9848V30.1639C151.273 28.955 160.657 26.7939 169.697 23.7279C170.696 23.3868 171.233 22.2995 170.895 21.3H170.899ZM114.812 23.8292V39.9023H110.935V28.9888C110.942 28.9482 110.956 28.9111 110.959 28.8672C110.979 28.6815 110.969 28.4991 110.935 28.3236V23.8292H114.812ZM117.517 110.867L83.9825 104.954L95.5815 39.1729L107.106 41.2057V41.8202C107.106 42.8771 107.964 43.7348 109.021 43.7348H116.726C117.27 43.7348 117.756 43.5086 118.104 43.1473L129.115 45.0889L117.517 110.87V110.867ZM107.761 68.1382C103.973 67.4696 100.336 70.0123 99.6673 73.8077C98.9987 77.6031 101.541 81.233 105.337 81.9016C105.745 81.9725 106.151 82.0097 106.552 82.0097C109.878 82.0097 112.833 79.619 113.431 76.2355C114.099 72.4401 111.557 68.8102 107.761 68.1416V68.1382ZM109.659 75.5703C109.355 77.2857 107.714 78.4337 105.999 78.1332C104.283 77.8293 103.135 76.1882 103.436 74.4729C103.706 72.9432 105.043 71.8627 106.546 71.8627C106.728 71.8627 106.91 71.8796 107.096 71.91C108.811 72.2139 109.959 73.8549 109.659 75.5703ZM107.137 60.6689L107.17 60.4798C107.353 59.4398 108.349 58.7408 109.389 58.9266C110.429 59.1089 111.124 60.1017 110.942 61.1451L110.908 61.3342C110.746 62.2627 109.936 62.9178 109.024 62.9178C108.913 62.9178 108.801 62.9077 108.69 62.8874C107.65 62.7051 106.954 61.7123 107.137 60.6689ZM105.961 89.3709L105.928 89.56C105.762 90.4886 104.955 91.1436 104.043 91.1436C103.932 91.1436 103.821 91.1335 103.709 91.1133C102.669 90.9309 101.974 89.9382 102.156 88.8948L102.19 88.7057C102.372 87.6656 103.365 86.97 104.408 87.1524C105.448 87.3347 106.144 88.3275 105.961 89.3709ZM117.284 47.3377L105.928 45.3354C105.428 45.2476 104.915 45.3624 104.496 45.6528C104.081 45.9432 103.797 46.3889 103.709 46.8886C103.564 47.7193 103.101 48.4419 102.409 48.9282C101.717 49.411 100.88 49.5968 100.049 49.4516C99.0088 49.2658 98.0161 49.9648 97.8304 51.0048L90.1416 94.6048C90.0538 95.1045 90.1686 95.6178 90.459 96.0365C90.7494 96.4518 91.1952 96.7354 91.6949 96.8232C93.4103 97.1271 94.5584 98.7682 94.2578 100.484C94.0755 101.524 94.7711 102.516 95.8111 102.702L107.167 104.704C107.278 104.725 107.39 104.735 107.501 104.735C108.413 104.735 109.22 104.08 109.385 103.151C109.689 101.436 111.327 100.284 113.046 100.588C113.546 100.676 114.059 100.561 114.477 100.271C114.893 99.9805 115.176 99.5347 115.264 99.035L122.953 55.4351C123.041 54.9353 122.926 54.4221 122.636 54.0033C122.345 53.588 121.899 53.3044 121.4 53.2166C120.569 53.0714 119.843 52.6088 119.36 51.9165C118.877 51.2243 118.692 50.3869 118.837 49.5562C118.925 49.0565 118.81 48.5432 118.519 48.1245C118.229 47.7092 117.783 47.4255 117.284 47.3377ZM118.894 56.394L111.78 96.7489C109.382 96.9988 107.265 98.4812 106.211 100.649L98.1039 99.2207C97.854 96.8232 96.3716 94.706 94.2038 93.6525L101.319 53.2976C102.49 53.1794 103.618 52.7607 104.607 52.0685C105.597 51.3763 106.377 50.4578 106.887 49.3975L114.991 50.8259C115.109 51.9976 115.528 53.1254 116.22 54.1148C116.912 55.1075 117.831 55.8842 118.891 56.394H118.894ZM133.569 76.2355C134.167 79.6223 137.122 82.0097 140.448 82.0097C140.85 82.0097 141.255 81.9759 141.663 81.9016C143.5 81.5775 145.104 80.5577 146.175 79.028C147.245 77.4984 147.657 75.6446 147.333 73.8077C147.009 71.9707 145.989 70.3668 144.459 69.2964C142.93 68.226 141.076 67.814 139.239 68.1382C135.443 68.8068 132.901 72.4367 133.569 76.2321V76.2355ZM139.904 71.91C140.09 71.8762 140.275 71.8627 140.458 71.8627C141.099 71.8627 141.727 72.0585 142.264 72.4334C142.957 72.9162 143.416 73.6422 143.564 74.4729C143.71 75.3036 143.524 76.141 143.041 76.8332C142.558 77.5254 141.832 77.9846 141.001 78.1332C139.283 78.4337 137.645 77.2857 137.341 75.5703C137.037 73.8549 138.189 72.2139 139.904 71.91ZM136.095 61.3342L136.061 61.1451C135.879 60.105 136.575 59.1123 137.615 58.9266C138.655 58.7408 139.647 59.4364 139.833 60.4798L139.867 60.6689C140.049 61.709 139.354 62.7017 138.314 62.8874C138.202 62.9077 138.091 62.9178 137.979 62.9178C137.068 62.9178 136.261 62.2627 136.095 61.3342ZM144.807 88.7057L144.841 88.8948C145.023 89.9348 144.331 90.9275 143.287 91.1133C143.176 91.1335 143.061 91.1436 142.953 91.1436C142.041 91.1436 141.234 90.4886 141.069 89.56L141.035 89.3709C140.853 88.3308 141.545 87.3381 142.588 87.1524C143.632 86.97 144.621 87.6623 144.807 88.7057ZM133.353 86.1461L135.224 96.7489C137.621 96.9988 139.739 98.4812 140.792 100.649L148.9 99.2207C149.149 96.8232 150.632 94.706 152.8 93.6525L145.685 53.2976C144.513 53.1794 143.385 52.7607 142.396 52.0685C141.407 51.3763 140.627 50.4578 140.117 49.3975L138.631 49.6609C137.591 49.8466 136.598 49.151 136.413 48.1076C136.23 47.0676 136.922 46.0749 137.966 45.8891L141.079 45.3421C141.579 45.2543 142.092 45.3691 142.511 45.6595C142.926 45.9499 143.21 46.3956 143.298 46.8954C143.443 47.7261 143.905 48.4487 144.598 48.9349C145.29 49.4178 146.127 49.6035 146.958 49.4583C147.458 49.3705 147.971 49.4853 148.39 49.7757C148.805 50.0661 149.089 50.5118 149.176 51.0116L156.865 94.6115C157.048 95.6515 156.355 96.6443 155.312 96.83C153.597 97.1339 152.448 98.775 152.749 100.49C152.931 101.53 152.236 102.523 151.196 102.709L139.84 104.711C139.728 104.731 139.617 104.742 139.506 104.742C138.594 104.742 137.787 104.087 137.621 103.158C137.317 101.443 135.68 100.294 133.961 100.595C133.461 100.683 132.948 100.568 132.529 100.278C132.114 99.9872 131.83 99.5415 131.743 99.0417L129.588 86.8181C129.406 85.7781 130.098 84.7853 131.141 84.5996C132.182 84.4139 133.174 85.1129 133.36 86.1529L133.353 86.1461Z" fill="black"/>
</g>
</g>
<path d="M246 176H0V184H246V176Z" fill="black" mask="url(#path-1-inside-1_85_507)"/>
<defs>
<filter id="filter0_d_85_507" x="75.9987" y="20" width="96.9976" height="97.0034" filterUnits="userSpaceOnUse" color-interpolation-filters="sRGB">
<feFlood flood-opacity="0" result="BackgroundImageFix"/>
<feColorMatrix in="SourceAlpha" type="matrix" values="0 0 0 0 0 0 0 0 0 0 0 0 0 0 0 0 0 0 127 0" result="hardAlpha"/>
<feOffset dx="2" dy="2"/>
<feComposite in2="hardAlpha" operator="out"/>
<feColorMatrix type="matrix" values="0 0 0 0 0 0 0 0 0 0 0 0 0 0 0 0 0 0 0.1 0"/>
<feBlend mode="normal" in2="BackgroundImageFix" result="effect1_dropShadow_85_507"/>
<feBlend mode="normal" in="SourceGraphic" in2="effect1_dropShadow_85_507" result="shape"/>
</filter>
<clipPath id="clip0_85_507">
<path d="M0 0H246V180H0V0Z" fill="white"/>
</clipPath>
</defs>
</svg>
