<svg width="246" height="180" viewBox="0 0 246 180" fill="none" xmlns="http://www.w3.org/2000/svg">
<g clip-path="url(#clip0_85_499)">
<mask id="path-1-inside-1_85_499" fill="white">
<path d="M0 0H246V180H0V0Z"/>
</mask>
<path d="M0 0H246V180H0V0Z" fill="#D9F339"/>
<path d="M65.7084 138H61.9884V127.35H65.7084C68.8284 127.35 70.9734 129.165 70.9734 132.495V132.855C70.9734 136.155 68.8434 138 65.7084 138ZM63.7284 128.82V136.53H65.5884C67.7784 136.53 69.1734 135.405 69.1734 132.855V132.495C69.1734 129.96 67.7934 128.82 65.5584 128.82H63.7284ZM75.8677 138.195C73.5577 138.195 72.0577 136.605 72.0577 134.25V134.025C72.0577 131.67 73.5577 130.095 75.8677 130.095C78.1927 130.095 79.6927 131.67 79.6927 134.025V134.25C79.6927 136.605 78.1927 138.195 75.8677 138.195ZM75.8677 136.86C77.2777 136.86 78.0127 135.915 78.0127 134.25V134.025C78.0127 132.36 77.2777 131.43 75.8677 131.43C74.4727 131.43 73.7377 132.36 73.7377 134.025V134.25C73.7377 135.915 74.4727 136.86 75.8677 136.86ZM84.4642 138.195C82.1242 138.195 80.7442 136.59 80.7442 134.25V134.025C80.7442 131.685 82.1242 130.095 84.4792 130.095C86.4142 130.095 87.6892 131.235 87.8992 133.02H86.2792C86.1142 132.045 85.5442 131.43 84.4492 131.43C83.1142 131.43 82.4242 132.36 82.4242 134.025V134.25C82.4242 135.915 83.1142 136.86 84.4492 136.86C85.5442 136.86 86.1292 136.215 86.2942 135.24H87.9292C87.6742 137.055 86.3992 138.195 84.4642 138.195ZM91.7841 138.195C89.9841 138.195 89.1141 137.055 89.1141 135.24V130.275H90.7791V134.925C90.7791 136.11 91.2141 136.815 92.3241 136.815C93.4641 136.815 94.1391 135.945 94.1391 134.565V130.275H95.8041V138H94.1991L94.1691 136.83C93.7191 137.58 92.8941 138.195 91.7841 138.195ZM99.1005 138H97.4505V130.275H99.0405L99.0855 131.475C99.4755 130.74 100.255 130.095 101.47 130.095C102.625 130.095 103.42 130.62 103.78 131.595C104.32 130.65 105.19 130.095 106.33 130.095C108.1 130.095 108.91 131.235 108.91 133.02V138H107.26V133.35C107.26 132.075 106.795 131.46 105.775 131.46C104.665 131.46 104.02 132.285 104.02 133.71V138H102.37V133.365C102.37 132.105 101.92 131.46 100.9 131.46C99.7905 131.46 99.1005 132.27 99.1005 133.725V138ZM114.042 138.195C111.642 138.195 110.217 136.59 110.217 134.25V134.025C110.217 131.685 111.672 130.095 114.042 130.095C116.577 130.095 117.807 131.865 117.687 134.505H111.912C111.987 136.05 112.737 136.875 114.042 136.875C115.122 136.875 115.767 136.365 115.992 135.585H117.642C117.267 137.205 115.977 138.195 114.042 138.195ZM111.942 133.32H115.992C115.872 132.12 115.242 131.4 114.027 131.4C112.827 131.4 112.122 132.06 111.942 133.32ZM120.678 138H119.028V130.275H120.618L120.678 131.505C121.083 130.74 121.893 130.095 123.138 130.095C125.013 130.095 125.808 131.265 125.808 133.02V138H124.173V133.425C124.173 132.165 123.708 131.46 122.583 131.46C121.443 131.46 120.678 132.3 120.678 133.68V138ZM130.62 138.195C128.925 138.195 128.085 137.415 128.085 135.915V131.52H126.585V130.275H128.085V127.86H129.735V130.275H131.835V131.52H129.735V135.735C129.735 136.5 130.02 136.845 130.935 136.845C131.265 136.845 131.655 136.77 131.88 136.695V138.015C131.535 138.12 131.01 138.195 130.62 138.195ZM136.483 138.195C134.173 138.195 132.673 136.605 132.673 134.25V134.025C132.673 131.67 134.173 130.095 136.483 130.095C138.808 130.095 140.308 131.67 140.308 134.025V134.25C140.308 136.605 138.808 138.195 136.483 138.195ZM136.483 136.86C137.893 136.86 138.628 135.915 138.628 134.25V134.025C138.628 132.36 137.893 131.43 136.483 131.43C135.088 131.43 134.353 132.36 134.353 134.025V134.25C134.353 135.915 135.088 136.86 136.483 136.86ZM144.484 138.195C142.489 138.195 141.244 137.25 141.094 135.6H142.684C142.819 136.515 143.479 136.95 144.499 136.95C145.429 136.95 146.059 136.575 146.059 135.885C146.059 135.27 145.624 134.97 144.154 134.7C142.279 134.385 141.364 133.785 141.364 132.405C141.364 131.025 142.609 130.095 144.379 130.095C146.239 130.095 147.394 130.98 147.544 132.51H145.969C145.849 131.73 145.249 131.31 144.364 131.31C143.509 131.31 142.954 131.685 142.954 132.315C142.954 132.915 143.389 133.2 144.799 133.425C146.749 133.74 147.694 134.385 147.694 135.735C147.694 137.205 146.419 138.195 144.484 138.195ZM152.272 138.195C149.932 138.195 148.552 136.59 148.552 134.25V134.025C148.552 131.685 149.932 130.095 152.287 130.095C154.222 130.095 155.497 131.235 155.707 133.02H154.087C153.922 132.045 153.352 131.43 152.257 131.43C150.922 131.43 150.232 132.36 150.232 134.025V134.25C150.232 135.915 150.922 136.86 152.257 136.86C153.352 136.86 153.937 136.215 154.102 135.24H155.737C155.482 137.055 154.207 138.195 152.272 138.195ZM160.462 138.195C158.152 138.195 156.652 136.605 156.652 134.25V134.025C156.652 131.67 158.152 130.095 160.462 130.095C162.787 130.095 164.287 131.67 164.287 134.025V134.25C164.287 136.605 162.787 138.195 160.462 138.195ZM160.462 136.86C161.872 136.86 162.607 135.915 162.607 134.25V134.025C162.607 132.36 161.872 131.43 160.462 131.43C159.067 131.43 158.332 132.36 158.332 134.025V134.25C158.332 135.915 159.067 136.86 160.462 136.86ZM167.304 140.55H165.639V130.275H167.184L167.229 131.55C167.604 130.815 168.504 130.095 169.824 130.095C171.849 130.095 173.124 131.715 173.124 134.025V134.25C173.124 136.56 171.819 138.195 169.779 138.195C168.579 138.195 167.724 137.565 167.304 136.83V140.55ZM169.374 136.86C170.694 136.86 171.444 135.915 171.444 134.25V134.025C171.444 132.36 170.694 131.4 169.374 131.4C167.994 131.4 167.244 132.36 167.244 134.025V134.25C167.244 135.915 167.994 136.86 169.374 136.86ZM176.167 126.9V129.15H174.442V126.9H176.167ZM174.472 130.275H176.122V138H174.472V130.275ZM180.018 138.195C178.428 138.195 177.423 137.235 177.423 135.915C177.423 134.685 178.173 133.875 179.493 133.695L182.538 133.245V132.69C182.538 131.835 181.953 131.385 180.978 131.385C180.018 131.385 179.373 131.82 179.298 132.6H177.723C177.858 131.01 179.118 130.095 181.008 130.095C183.003 130.095 184.128 131.145 184.128 132.75V138H182.613L182.553 136.8C182.073 137.67 181.128 138.195 180.018 138.195ZM180.393 136.89C181.548 136.89 182.538 136.17 182.538 135.165V134.46L180.063 134.805C179.358 134.91 179.028 135.24 179.028 135.84C179.028 136.485 179.523 136.89 180.393 136.89ZM80.7606 156.195C78.3606 156.195 76.9356 154.59 76.9356 152.25V152.025C76.9356 149.685 78.3906 148.095 80.7606 148.095C83.2956 148.095 84.5256 149.865 84.4056 152.505H78.6306C78.7056 154.05 79.4556 154.875 80.7606 154.875C81.8406 154.875 82.4856 154.365 82.7106 153.585H84.3606C83.9856 155.205 82.6956 156.195 80.7606 156.195ZM78.6606 151.32H82.7106C82.5906 150.12 81.9606 149.4 80.7456 149.4C79.5456 149.4 78.8406 150.06 78.6606 151.32ZM93.0896 156.195C90.1946 156.195 88.2596 154.005 88.2596 150.855V150.495C88.2596 147.36 90.2546 145.155 93.2696 145.155C95.7596 145.155 97.4396 146.67 97.7396 148.83H95.9696C95.6996 147.465 94.7096 146.655 93.2546 146.655C91.2296 146.655 90.0596 148.23 90.0596 150.495V150.855C90.0596 153.135 91.2746 154.695 93.2696 154.695C95.2946 154.695 96.2246 153.345 96.2396 151.905V151.68H93.0896V150.255H97.7696V156H96.4046L96.2396 154.53C95.7146 155.505 94.4996 156.195 93.0896 156.195ZM100.975 156H99.3255V148.275H100.915L100.96 149.775C101.38 148.785 102.19 148.125 103.3 148.125C103.42 148.125 103.585 148.14 103.72 148.17V149.775C103.57 149.76 103.39 149.745 103.21 149.745C101.815 149.745 100.975 150.54 100.975 152.07V156ZM106.79 156.195C105.2 156.195 104.195 155.235 104.195 153.915C104.195 152.685 104.945 151.875 106.265 151.695L109.31 151.245V150.69C109.31 149.835 108.725 149.385 107.75 149.385C106.79 149.385 106.145 149.82 106.07 150.6H104.495C104.63 149.01 105.89 148.095 107.78 148.095C109.775 148.095 110.9 149.145 110.9 150.75V156H109.385L109.325 154.8C108.845 155.67 107.9 156.195 106.79 156.195ZM107.165 154.89C108.32 154.89 109.31 154.17 109.31 153.165V152.46L106.835 152.805C106.13 152.91 105.8 153.24 105.8 153.84C105.8 154.485 106.295 154.89 107.165 154.89ZM114.867 156H113.217V149.52H111.717V148.275H113.217V146.985C113.217 145.485 114.057 144.705 115.752 144.705C116.142 144.705 116.667 144.795 117.012 144.885V146.19C116.787 146.13 116.397 146.04 116.067 146.04C115.152 146.04 114.867 146.4 114.867 147.165V148.275H116.967V149.52H114.867V156ZM121.161 156.195C118.851 156.195 117.351 154.605 117.351 152.25V152.025C117.351 149.67 118.851 148.095 121.161 148.095C123.486 148.095 124.986 149.67 124.986 152.025V152.25C124.986 154.605 123.486 156.195 121.161 156.195ZM121.161 154.86C122.571 154.86 123.306 153.915 123.306 152.25V152.025C123.306 150.36 122.571 149.43 121.161 149.43C119.766 149.43 119.031 150.36 119.031 152.025V152.25C119.031 153.915 119.766 154.86 121.161 154.86ZM129.162 156.195C127.167 156.195 125.922 155.25 125.772 153.6H127.362C127.497 154.515 128.157 154.95 129.177 154.95C130.107 154.95 130.737 154.575 130.737 153.885C130.737 153.27 130.302 152.97 128.832 152.7C126.957 152.385 126.042 151.785 126.042 150.405C126.042 149.025 127.287 148.095 129.057 148.095C130.917 148.095 132.072 148.98 132.222 150.51H130.647C130.527 149.73 129.927 149.31 129.042 149.31C128.187 149.31 127.632 149.685 127.632 150.315C127.632 150.915 128.067 151.2 129.477 151.425C131.427 151.74 132.372 152.385 132.372 153.735C132.372 155.205 131.097 156.195 129.162 156.195ZM136.95 156.195C134.61 156.195 133.23 154.59 133.23 152.25V152.025C133.23 149.685 134.61 148.095 136.965 148.095C138.9 148.095 140.175 149.235 140.385 151.02H138.765C138.6 150.045 138.03 149.43 136.935 149.43C135.6 149.43 134.91 150.36 134.91 152.025V152.25C134.91 153.915 135.6 154.86 136.935 154.86C138.03 154.86 138.615 154.215 138.78 153.24H140.415C140.16 155.055 138.885 156.195 136.95 156.195ZM145.14 156.195C142.83 156.195 141.33 154.605 141.33 152.25V152.025C141.33 149.67 142.83 148.095 145.14 148.095C147.465 148.095 148.965 149.67 148.965 152.025V152.25C148.965 154.605 147.465 156.195 145.14 156.195ZM145.14 154.86C146.55 154.86 147.285 153.915 147.285 152.25V152.025C147.285 150.36 146.55 149.43 145.14 149.43C143.745 149.43 143.01 150.36 143.01 152.025V152.25C143.01 153.915 143.745 154.86 145.14 154.86ZM151.982 158.55H150.317V148.275H151.862L151.907 149.55C152.282 148.815 153.182 148.095 154.502 148.095C156.527 148.095 157.802 149.715 157.802 152.025V152.25C157.802 154.56 156.497 156.195 154.457 156.195C153.257 156.195 152.402 155.565 151.982 154.83V158.55ZM154.052 154.86C155.372 154.86 156.122 153.915 156.122 152.25V152.025C156.122 150.36 155.372 149.4 154.052 149.4C152.672 149.4 151.922 150.36 151.922 152.025V152.25C151.922 153.915 152.672 154.86 154.052 154.86ZM160.845 144.9V147.15H159.12V144.9H160.845ZM159.15 148.275H160.8V156H159.15V148.275ZM164.696 156.195C163.106 156.195 162.101 155.235 162.101 153.915C162.101 152.685 162.851 151.875 164.171 151.695L167.216 151.245V150.69C167.216 149.835 166.631 149.385 165.656 149.385C164.696 149.385 164.051 149.82 163.976 150.6H162.401C162.536 149.01 163.796 148.095 165.686 148.095C167.681 148.095 168.806 149.145 168.806 150.75V156H167.291L167.231 154.8C166.751 155.67 165.806 156.195 164.696 156.195ZM165.071 154.89C166.226 154.89 167.216 154.17 167.216 153.165V152.46L164.741 152.805C164.036 152.91 163.706 153.24 163.706 153.84C163.706 154.485 164.201 154.89 165.071 154.89Z" fill="black"/>
<path d="M246.988 128L216 181H247V128H246.988Z" fill="black"/>
<g filter="url(#filter0_d_85_499)">
<path d="M177.559 91.0609L158.676 74.3991C163.238 65.7035 164.376 55.2316 160.985 45.2224C154.411 25.8286 133.284 15.3972 113.884 21.9654C104.486 25.1498 96.8912 31.8024 92.4978 40.6973C88.1044 49.5921 87.4391 59.6655 90.6236 69.0602C90.7958 69.5701 90.9815 70.0732 91.174 70.5696C86.9157 72.7343 82.4244 73.7203 78.5612 73.4704C73.7321 73.1598 70.264 71.191 68.9403 67.7499C67.6165 64.3122 68.3054 58.6423 73.6916 50.5714C74.3569 49.5719 74.0867 48.2245 73.0872 47.5592C72.091 46.8939 70.7402 47.1607 70.0749 48.1603C64.2632 56.866 62.8314 63.9846 64.8846 69.3134C66.9378 74.6422 72.3375 77.4181 78.2809 77.803C82.9478 78.1036 88.1382 77.0061 92.9976 74.5781C96.6177 81.4265 102.274 86.9545 109.355 90.4497C114.549 93.0128 120.141 94.3095 125.767 94.3095C129.779 94.3095 133.811 93.651 137.722 92.3239C139.137 91.8444 140.501 91.2872 141.815 90.659L158.091 110.049L158.118 110.08C160.844 113.193 164.46 114.939 168.307 115C168.374 115 168.438 115 168.506 115C171.967 115 175.334 113.585 178.005 111.002C180.761 108.324 182.291 104.619 182.199 100.837C182.112 97.0989 180.46 93.6274 177.556 91.0643L177.559 91.0609ZM136.493 88.697C128.064 91.5539 119.027 90.9562 111.051 87.0153C104.665 83.8613 99.5725 78.8634 96.3272 72.6701C97.5531 71.8698 98.7451 70.9816 99.8831 69.9956C100.214 70.0395 100.525 70.2049 100.852 70.2049C104.55 70.1813 108.515 68.2396 112.381 66.0074C112.226 66.5815 112.01 67.1488 112.016 67.7364C112.037 69.6038 113.31 71.2889 114.823 72.0791C116.336 72.8693 118.081 73.1395 120.05 73.207C127.935 73.4839 139.964 70.1779 148.67 66.0479C149.754 65.5346 150.216 64.2379 149.703 63.1539C149.19 62.0699 147.893 61.6073 146.809 62.1206C138.742 65.9466 126.608 69.0872 120.202 68.8609C118.602 68.8035 117.389 68.5131 116.835 68.2227C116.278 67.9323 116.366 68.0201 116.359 67.6824C116.359 67.3447 116.643 66.2843 117.774 64.7343C118.905 63.1843 120.797 61.175 123.555 58.7605C124.46 57.9635 125.49 57.2004 126.325 56.3696C126.531 56.167 127.382 54.8703 126.375 53.5701C125.528 52.395 123.768 52.9083 123.154 53.3574C122.914 53.5499 122.532 53.8572 122.032 54.2523C120.023 55.8293 116.099 58.7943 111.932 61.327C109.464 62.8263 107.015 63.961 104.807 64.7782C107.066 61.6782 108.859 58.0345 109.95 53.8403C111.686 47.1506 112.165 42.9834 111.399 40.0253C111.017 38.5462 110.011 37.0637 108.423 36.672C106.833 36.2836 105.489 36.9455 104.374 37.7627C102.146 39.3971 100.13 42.2507 98.296 45.9991C96.4623 49.7475 94.9191 54.3739 94.2099 59.4156C93.7405 62.7588 93.9499 65.3455 95.1892 67.3345C95.3074 67.5237 95.5303 67.5811 95.6687 67.7533C95.2939 68.0369 94.9157 68.3071 94.5341 68.5705C94.4429 68.3206 94.345 68.0741 94.2605 67.8242C91.4037 59.3987 92.0014 50.3654 95.9423 42.3857C99.8831 34.406 106.694 28.4424 115.123 25.5855C118.656 24.39 122.249 23.8227 125.788 23.8227C139.677 23.8227 152.671 32.5825 157.369 46.4448C163.261 63.8428 153.901 82.7942 136.506 88.6903L136.493 88.697ZM107.184 41.1194C107.515 42.4026 107.397 46.3671 105.739 52.7563C104.442 57.7575 101.919 61.7727 98.8431 64.9504C98.4648 64.2852 98.1238 62.7588 98.5054 60.0302C99.1436 55.4916 100.559 51.2603 102.193 47.9205C103.827 44.5807 105.783 42.1223 106.938 41.2747C107.245 41.0485 107.103 41.1025 107.174 41.0755C107.181 41.1092 107.174 41.0822 107.184 41.1194ZM175.341 108.25C173.355 110.171 170.88 111.208 168.371 111.167C165.629 111.123 163.015 109.847 161.016 107.567L145.252 88.7916C149.896 85.9381 153.762 82.1424 156.687 77.749L175.027 93.9313C177.124 95.7819 178.313 98.2639 178.377 100.925C178.441 103.643 177.337 106.315 175.344 108.25H175.341Z" fill="black"/>
</g>
</g>
<path d="M246 176H0V184H246V176Z" fill="black" mask="url(#path-1-inside-1_85_499)"/>
<defs>
<filter id="filter0_d_85_499" x="63.999" y="19.9998" width="120.204" height="97.0002" filterUnits="userSpaceOnUse" color-interpolation-filters="sRGB">
<feFlood flood-opacity="0" result="BackgroundImageFix"/>
<feColorMatrix in="SourceAlpha" type="matrix" values="0 0 0 0 0 0 0 0 0 0 0 0 0 0 0 0 0 0 127 0" result="hardAlpha"/>
<feOffset dx="2" dy="2"/>
<feComposite in2="hardAlpha" operator="out"/>
<feColorMatrix type="matrix" values="0 0 0 0 0 0 0 0 0 0 0 0 0 0 0 0 0 0 0.1 0"/>
<feBlend mode="normal" in2="BackgroundImageFix" result="effect1_dropShadow_85_499"/>
<feBlend mode="normal" in="SourceGraphic" in2="effect1_dropShadow_85_499" result="shape"/>
</filter>
<clipPath id="clip0_85_499">
<path d="M0 0H246V180H0V0Z" fill="white"/>
</clipPath>
</defs>
</svg>
