<?xml version="1.0" encoding="utf-8"?>
<!-- Generator: Adobe Illustrator 28.3.0, SVG Export Plug-In . SVG Version: 6.00 Build 0)  -->
<svg version="1.1" id="Camada_1" xmlns="http://www.w3.org/2000/svg" xmlns:xlink="http://www.w3.org/1999/xlink" x="0px" y="0px"
	 viewBox="0 0 246 180" style="enable-background:new 0 0 246 180;" xml:space="preserve">
<style type="text/css">
	.st0{clip-path:url(#SVGID_00000057139160219060955960000006446357800931458948_);}
	.st1{fill:#D9F339;}
	.st2{fill:#FFFFFF;filter:url(#Adobe_OpacityMaskFilter);}
	.st3{mask:url(#path-1-inside-1_85_511_00000165198650038640984770000008821805824985409430_);}
</style>
<g>
	<defs>
		<rect id="SVGID_1_" width="246" height="180"/>
	</defs>
	<clipPath id="SVGID_00000101788358437591454900000011547702465811142288_">
		<use xlink:href="#SVGID_1_"  style="overflow:visible;"/>
	</clipPath>
	<g style="clip-path:url(#SVGID_00000101788358437591454900000011547702465811142288_);">
		<path class="st1" d="M0-1.2h246v180H0V-1.2z"/>
		<path d="M247,128l-31,53h31L247,128L247,128z"/>
		<g>
			<path d="M154.8,101.5h-2c-3-6.8-9.7-11.6-18.9-13.8c-0.5-0.1-1,0-1.5,0.3l-9.2,6l-9.2-6c-0.4-0.3-1-0.4-1.5-0.3
				c-9.2,2.2-15.9,7.1-19,13.8h-2.9c-3.7,0-6.7,3-6.7,6.6v26.2c0,1.1,0.9,1.9,1.9,1.9s1.9-0.9,1.9-1.9v-26.2c0-1.6,1.3-2.8,2.8-2.8
				h64.2c1.6,0,2.8,1.3,2.8,2.8v26.2c0,1.1,0.9,1.9,1.9,1.9c1.1,0,1.9-0.9,1.9-1.9v-26.2C161.5,104.5,158.5,101.5,154.8,101.5z
				 M112.6,91.6l9.6,6.3c0.6,0.4,1.5,0.4,2.1,0l9.6-6.2c6.9,1.8,12,5.2,14.7,9.9H97.8C100.6,96.8,105.7,93.4,112.6,91.6L112.6,91.6z
				 M131.2,134.3c0,1.1-0.9,1.9-1.9,1.9c-1.1,0-1.9-0.9-1.9-1.9c0-2.6-2.1-4.7-4.7-4.7c-2.6,0-4.7,2.1-4.7,4.7
				c0,1.1-0.9,1.9-1.9,1.9s-1.9-0.9-1.9-1.9c0-4.7,3.8-8.5,8.5-8.5C127.4,125.8,131.2,129.6,131.2,134.3z M100.5,76.9
				c2.2,0,4.1-1.3,5-3.1c2.9,6.6,9.5,11.2,17.1,11.2c5.5,0,10.4-2.4,13.9-6.2c2-0.5,4.2-1.3,6.3-2.5c0.8,0.4,1.6,0.6,2.5,0.6
				c3.1,0,5.6-2.5,5.6-5.6v-9.1c0-3-2.4-5.4-5.3-5.6c-4-9.3-12.9-15.3-23.1-15.3c-10.2,0-19,6-22.9,15.4c-2.7,0.4-4.7,2.7-4.7,5.5
				v9.1C94.9,74.4,97.4,76.9,100.5,76.9L100.5,76.9z M107.9,66.3c0-8.2,6.7-14.9,14.9-14.9c8.2,0,14.9,6.7,14.9,14.9
				c0,3.4-1.2,6.5-3.1,9c-4.5,0.9-8.1,0.2-8.2,0.2c-1-0.2-2,0.5-2.2,1.5c-0.2,1,0.5,2,1.5,2.3c0.2,0,1.6,0.3,3.8,0.3
				c-2,1-4.2,1.5-6.6,1.5C114.5,81.2,107.9,74.5,107.9,66.3L107.9,66.3z M140.1,73.2c0,0.1,0.1,0.2,0.1,0.2c-0.1,0-0.2,0.1-0.2,0.1
				C140,73.4,140,73.3,140.1,73.2L140.1,73.2z M147.2,62.1v9.1c0,1-0.8,1.8-1.8,1.8c-0.5,0-0.9-0.2-1.2-0.5c0,0-0.1-0.1-0.1-0.1
				c-0.3-0.3-0.5-0.8-0.5-1.3v-9.1c0-1,0.8-1.8,1.8-1.8S147.2,61.2,147.2,62.1L147.2,62.1z M122.6,45.1c8.5,0,15.9,4.9,19.4,12.6
				c-0.8,0.6-1.4,1.3-1.8,2.2c-2.6-7.1-9.5-12.2-17.5-12.2c-8,0-14.5,4.8-17.3,11.7c-0.5-0.8-1.1-1.4-1.9-1.9
				C107,49.8,114.3,45.1,122.6,45.1L122.6,45.1z M98.8,62.1c0-1,0.8-1.8,1.8-1.8c1,0,1.8,0.8,1.8,1.8v9.1c0,1-0.8,1.8-1.8,1.8
				c-1,0-1.8-0.8-1.8-1.8V62.1z"/>
		</g>
	</g>
</g>
<defs>
	<filter id="Adobe_OpacityMaskFilter" filterUnits="userSpaceOnUse" x="0" y="176" width="246" height="8">
		<feColorMatrix  type="matrix" values="1 0 0 0 0  0 1 0 0 0  0 0 1 0 0  0 0 0 1 0"/>
	</filter>
</defs>
<mask maskUnits="userSpaceOnUse" x="0" y="176" width="246" height="8" id="path-1-inside-1_85_511_00000165198650038640984770000008821805824985409430_">
	<path class="st2" d="M0,0h246v180H0V0z"/>
</mask>
<path class="st3" d="M246,176H0v8h246V176z"/>
</svg>
