<svg width="246" height="180" viewBox="0 0 246 180" fill="none" xmlns="http://www.w3.org/2000/svg">
<g clip-path="url(#clip0_85_543)">
<mask id="path-1-inside-1_85_543" fill="white">
<path d="M0 0H246V180H0V0Z"/>
</mask>
<path d="M0 0H246V180H0V0Z" fill="#D9F339"/>
<path d="M87.5684 138H85.8434V127.35H90.1784C92.3234 127.35 93.8234 128.46 93.8234 130.53V130.77C93.8234 132.84 92.3234 133.95 90.1784 133.95H87.5684V138ZM87.5684 128.82V132.48H90.0434C91.2434 132.48 92.0384 131.94 92.0384 130.77V130.53C92.0384 129.36 91.2434 128.82 90.0434 128.82H87.5684ZM96.6908 138H95.0408V130.275H96.6308L96.6758 131.775C97.0958 130.785 97.9058 130.125 99.0158 130.125C99.1358 130.125 99.3008 130.14 99.4358 130.17V131.775C99.2858 131.76 99.1058 131.745 98.9258 131.745C97.5308 131.745 96.6908 132.54 96.6908 134.07V138ZM103.78 138.195C101.47 138.195 99.9703 136.605 99.9703 134.25V134.025C99.9703 131.67 101.47 130.095 103.78 130.095C106.105 130.095 107.605 131.67 107.605 134.025V134.25C107.605 136.605 106.105 138.195 103.78 138.195ZM103.78 136.86C105.19 136.86 105.925 135.915 105.925 134.25V134.025C105.925 132.36 105.19 131.43 103.78 131.43C102.385 131.43 101.65 132.36 101.65 134.025V134.25C101.65 135.915 102.385 136.86 103.78 136.86ZM111.987 138.195C109.962 138.195 108.657 136.56 108.657 134.25V134.025C108.657 131.73 109.917 130.095 111.957 130.095C113.187 130.095 114.027 130.68 114.477 131.4V126.9H116.127V138H114.597L114.552 136.71C114.177 137.445 113.307 138.195 111.987 138.195ZM112.407 136.86C113.787 136.86 114.537 135.915 114.537 134.25V134.025C114.537 132.36 113.772 131.4 112.407 131.4C111.087 131.4 110.337 132.36 110.337 134.025V134.25C110.337 135.9 111.072 136.86 112.407 136.86ZM120.385 138.195C118.585 138.195 117.715 137.055 117.715 135.24V130.275H119.38V134.925C119.38 136.11 119.815 136.815 120.925 136.815C122.065 136.815 122.74 135.945 122.74 134.565V130.275H124.405V138H122.8L122.77 136.83C122.32 137.58 121.495 138.195 120.385 138.195ZM129.427 138.195C127.732 138.195 126.892 137.415 126.892 135.915V131.52H125.392V130.275H126.892V127.86H128.542V130.275H130.642V131.52H128.542V135.735C128.542 136.5 128.827 136.845 129.742 136.845C130.072 136.845 130.462 136.77 130.687 136.695V138.015C130.342 138.12 129.817 138.195 129.427 138.195ZM135.289 138.195C132.979 138.195 131.479 136.605 131.479 134.25V134.025C131.479 131.67 132.979 130.095 135.289 130.095C137.614 130.095 139.114 131.67 139.114 134.025V134.25C139.114 136.605 137.614 138.195 135.289 138.195ZM135.289 136.86C136.699 136.86 137.434 135.915 137.434 134.25V134.025C137.434 132.36 136.699 131.43 135.289 131.43C133.894 131.43 133.159 132.36 133.159 134.025V134.25C133.159 135.915 133.894 136.86 135.289 136.86ZM143.29 138.195C141.295 138.195 140.05 137.25 139.9 135.6H141.49C141.625 136.515 142.285 136.95 143.305 136.95C144.235 136.95 144.865 136.575 144.865 135.885C144.865 135.27 144.43 134.97 142.96 134.7C141.085 134.385 140.17 133.785 140.17 132.405C140.17 131.025 141.415 130.095 143.185 130.095C145.045 130.095 146.2 130.98 146.35 132.51H144.775C144.655 131.73 144.055 131.31 143.17 131.31C142.315 131.31 141.76 131.685 141.76 132.315C141.76 132.915 142.195 133.2 143.605 133.425C145.555 133.74 146.5 134.385 146.5 135.735C146.5 137.205 145.225 138.195 143.29 138.195ZM154.113 138.195C151.713 138.195 150.288 136.59 150.288 134.25V134.025C150.288 131.685 151.743 130.095 154.113 130.095C156.648 130.095 157.878 131.865 157.758 134.505H151.983C152.058 136.05 152.808 136.875 154.113 136.875C155.193 136.875 155.838 136.365 156.063 135.585H157.713C157.338 137.205 156.048 138.195 154.113 138.195ZM152.013 133.32H156.063C155.943 132.12 155.313 131.4 154.098 131.4C152.898 131.4 152.193 132.06 152.013 133.32ZM63.538 156.195C60.988 156.195 59.293 154.905 59.173 152.625H60.913C61.063 154.11 62.143 154.74 63.613 154.74C64.948 154.74 65.908 154.215 65.908 153.15V153.075C65.908 152.16 65.263 151.695 63.103 151.305C60.478 150.84 59.548 149.865 59.548 148.275V148.17C59.548 146.43 61.063 145.155 63.388 145.155C65.623 145.155 67.243 146.265 67.453 148.44H65.698C65.548 147.21 64.678 146.595 63.358 146.595C62.038 146.595 61.258 147.195 61.258 148.125V148.2C61.258 149.025 61.708 149.49 63.823 149.85C66.373 150.285 67.633 151.17 67.633 152.91V153.03C67.633 154.875 66.058 156.195 63.538 156.195ZM72.4623 156.195C70.0623 156.195 68.6373 154.59 68.6373 152.25V152.025C68.6373 149.685 70.0923 148.095 72.4623 148.095C74.9973 148.095 76.2273 149.865 76.1073 152.505H70.3323C70.4073 154.05 71.1573 154.875 72.4623 154.875C73.5423 154.875 74.1873 154.365 74.4123 153.585H76.0623C75.6873 155.205 74.3973 156.195 72.4623 156.195ZM70.3623 151.32H74.4123C74.2923 150.12 73.6623 149.4 72.4473 149.4C71.2473 149.4 70.5423 150.06 70.3623 151.32ZM79.098 156H77.448V148.275H79.038L79.083 149.775C79.503 148.785 80.313 148.125 81.423 148.125C81.543 148.125 81.708 148.14 81.843 148.17V149.775C81.693 149.76 81.513 149.745 81.333 149.745C79.938 149.745 79.098 150.54 79.098 152.07V156ZM87.1084 156H85.2784L82.4134 148.275H84.1534L86.2234 154.32L88.2634 148.275H89.9584L87.1084 156ZM92.6489 144.9V147.15H90.9239V144.9H92.6489ZM90.9539 148.275H92.6039V156H90.9539V148.275ZM99.4998 153.24H101.135C100.895 154.935 99.7698 156.045 98.0448 156.18L97.7298 156.84H97.8048C98.5248 156.84 99.2448 157.11 99.2448 158.055C99.2448 159.015 98.4348 159.42 97.4298 159.42C96.8898 159.42 96.5598 159.33 96.3798 159.24V158.43C96.5748 158.52 96.8598 158.58 97.1448 158.58C97.6848 158.58 97.9098 158.385 97.9098 158.055C97.9098 157.71 97.6848 157.545 97.2648 157.545C97.0398 157.545 96.7998 157.575 96.6648 157.605V156.99L97.0848 156.165C95.1048 155.91 93.9498 154.38 93.9498 152.25V152.025C93.9498 149.685 95.3298 148.095 97.6848 148.095C99.6198 148.095 100.895 149.235 101.105 151.02H99.4848C99.3198 150.045 98.7498 149.43 97.6548 149.43C96.3198 149.43 95.6298 150.36 95.6298 152.025V152.25C95.6298 153.915 96.3198 154.86 97.6548 154.86C98.7498 154.86 99.3348 154.215 99.4998 153.24ZM105.86 156.195C103.55 156.195 102.05 154.605 102.05 152.25V152.025C102.05 149.67 103.55 148.095 105.86 148.095C108.185 148.095 109.685 149.67 109.685 152.025V152.25C109.685 154.605 108.185 156.195 105.86 156.195ZM105.86 154.86C107.27 154.86 108.005 153.915 108.005 152.25V152.025C108.005 150.36 107.27 149.43 105.86 149.43C104.465 149.43 103.73 150.36 103.73 152.025V152.25C103.73 153.915 104.465 154.86 105.86 154.86ZM113.861 156.195C111.866 156.195 110.621 155.25 110.471 153.6H112.061C112.196 154.515 112.856 154.95 113.876 154.95C114.806 154.95 115.436 154.575 115.436 153.885C115.436 153.27 115.001 152.97 113.531 152.7C111.656 152.385 110.741 151.785 110.741 150.405C110.741 149.025 111.986 148.095 113.756 148.095C115.616 148.095 116.771 148.98 116.921 150.51H115.346C115.226 149.73 114.626 149.31 113.741 149.31C112.886 149.31 112.331 149.685 112.331 150.315C112.331 150.915 112.766 151.2 114.176 151.425C116.126 151.74 117.071 152.385 117.071 153.735C117.071 155.205 115.796 156.195 113.861 156.195ZM125.914 156H121.234V145.35H125.584C127.684 145.35 129.049 146.205 129.049 148.08V148.245C129.049 149.16 128.569 149.97 127.684 150.375C128.839 150.735 129.529 151.695 129.529 152.85V153.03C129.529 154.92 128.014 156 125.914 156ZM122.944 146.79V149.85H125.494C126.739 149.85 127.294 149.31 127.294 148.38V148.215C127.294 147.18 126.649 146.79 125.449 146.79H122.944ZM122.944 151.29V154.56H125.779C126.979 154.56 127.759 154.035 127.759 153V152.805C127.759 151.815 127.099 151.29 125.854 151.29H122.944ZM133.106 156.195C131.516 156.195 130.511 155.235 130.511 153.915C130.511 152.685 131.261 151.875 132.581 151.695L135.626 151.245V150.69C135.626 149.835 135.041 149.385 134.066 149.385C133.106 149.385 132.461 149.82 132.386 150.6H130.811C130.946 149.01 132.206 148.095 134.096 148.095C136.091 148.095 137.216 149.145 137.216 150.75V156H135.701L135.641 154.8C135.161 155.67 134.216 156.195 133.106 156.195ZM133.481 154.89C134.636 154.89 135.626 154.17 135.626 153.165V152.46L133.151 152.805C132.446 152.91 132.116 153.24 132.116 153.84C132.116 154.485 132.611 154.89 133.481 154.89ZM140.475 156H138.825V148.275H140.415L140.475 149.505C140.88 148.74 141.69 148.095 142.935 148.095C144.81 148.095 145.605 149.265 145.605 151.02V156H143.97V151.425C143.97 150.165 143.505 149.46 142.38 149.46C141.24 149.46 140.475 150.3 140.475 151.68V156ZM150.624 156.195C148.284 156.195 146.904 154.59 146.904 152.25V152.025C146.904 149.685 148.284 148.095 150.639 148.095C152.574 148.095 153.849 149.235 154.059 151.02H152.439C152.274 150.045 151.704 149.43 150.609 149.43C149.274 149.43 148.584 150.36 148.584 152.025V152.25C148.584 153.915 149.274 154.86 150.609 154.86C151.704 154.86 152.289 154.215 152.454 153.24H154.089C153.834 155.055 152.559 156.195 150.624 156.195ZM161.394 144.9L158.994 147.15H157.509L159.189 144.9H161.394ZM157.584 156.195C155.994 156.195 154.989 155.235 154.989 153.915C154.989 152.685 155.739 151.875 157.059 151.695L160.104 151.245V150.69C160.104 149.835 159.519 149.385 158.544 149.385C157.584 149.385 156.939 149.82 156.864 150.6H155.289C155.424 149.01 156.684 148.095 158.574 148.095C160.569 148.095 161.694 149.145 161.694 150.75V156H160.179L160.119 154.8C159.639 155.67 158.694 156.195 157.584 156.195ZM157.959 154.89C159.114 154.89 160.104 154.17 160.104 153.165V152.46L157.629 152.805C156.924 152.91 156.594 153.24 156.594 153.84C156.594 154.485 157.089 154.89 157.959 154.89ZM164.953 156H163.303V148.275H164.893L164.938 149.775C165.358 148.785 166.168 148.125 167.278 148.125C167.398 148.125 167.563 148.14 167.698 148.17V149.775C167.548 149.76 167.368 149.745 167.188 149.745C165.793 149.745 164.953 150.54 164.953 152.07V156ZM170.491 144.9V147.15H168.766V144.9H170.491ZM168.796 148.275H170.446V156H168.796V148.275ZM175.602 156.195C173.292 156.195 171.792 154.605 171.792 152.25V152.025C171.792 149.67 173.292 148.095 175.602 148.095C177.927 148.095 179.427 149.67 179.427 152.025V152.25C179.427 154.605 177.927 156.195 175.602 156.195ZM175.602 154.86C177.012 154.86 177.747 153.915 177.747 152.25V152.025C177.747 150.36 177.012 149.43 175.602 149.43C174.207 149.43 173.472 150.36 173.472 152.025V152.25C173.472 153.915 174.207 154.86 175.602 154.86ZM183.603 156.195C181.608 156.195 180.363 155.25 180.213 153.6H181.803C181.938 154.515 182.598 154.95 183.618 154.95C184.548 154.95 185.178 154.575 185.178 153.885C185.178 153.27 184.743 152.97 183.273 152.7C181.398 152.385 180.483 151.785 180.483 150.405C180.483 149.025 181.728 148.095 183.498 148.095C185.358 148.095 186.513 148.98 186.663 150.51H185.088C184.968 149.73 184.368 149.31 183.483 149.31C182.628 149.31 182.073 149.685 182.073 150.315C182.073 150.915 182.508 151.2 183.918 151.425C185.868 151.74 186.813 152.385 186.813 153.735C186.813 155.205 185.538 156.195 183.603 156.195Z" fill="black"/>
<path d="M246.988 128L216 181H247V128H246.988Z" fill="black"/>
<g filter="url(#filter0_d_85_543)">
<path d="M165.614 20H80.3861C76.3127 20 73 23.3127 73 27.3861V98.2043C73 102.278 76.3127 105.59 80.3861 105.59H165.617C169.691 105.59 173.004 102.278 173.004 98.2043V27.3861C173.004 23.3127 169.691 20 165.617 20H165.614ZM80.3861 24.0307H165.617C167.466 24.0307 168.973 25.5342 168.973 27.3861V31.9357H77.0307V27.3861C77.0307 25.5378 78.5342 24.0307 80.3861 24.0307ZM165.614 101.556H80.3861C78.5378 101.556 77.0307 100.053 77.0307 98.2008V35.9664H168.969V98.2008C168.969 100.049 167.466 101.556 165.614 101.556ZM149.971 28.6266C149.971 27.514 150.874 26.6112 151.986 26.6112H154.304C155.416 26.6112 156.319 27.514 156.319 28.6266C156.319 29.7391 155.416 30.6419 154.304 30.6419H151.986C150.874 30.6419 149.971 29.7391 149.971 28.6266ZM106.813 28.6266C106.813 27.514 107.716 26.6112 108.829 26.6112H119.943C121.056 26.6112 121.959 27.514 121.959 28.6266C121.959 29.7391 121.056 30.6419 119.943 30.6419H108.829C107.716 30.6419 106.813 29.7391 106.813 28.6266ZM80.4252 28.6266C80.4252 27.514 81.328 26.6112 82.4405 26.6112H84.7545C85.867 26.6112 86.7698 27.514 86.7698 28.6266C86.7698 29.7391 85.867 30.6419 84.7545 30.6419H82.4405C81.328 30.6419 80.4252 29.7391 80.4252 28.6266ZM88.4795 28.6266C88.4795 27.514 89.3823 26.6112 90.4948 26.6112H101.61C102.722 26.6112 103.625 27.514 103.625 28.6266C103.625 29.7391 102.722 30.6419 101.61 30.6419H90.4948C89.3823 30.6419 88.4795 29.7391 88.4795 28.6266ZM158.21 28.6266C158.21 27.514 159.113 26.6112 160.225 26.6112H165.027C166.14 26.6112 167.043 27.514 167.043 28.6266C167.043 29.7391 166.14 30.6419 165.027 30.6419H160.225C159.113 30.6419 158.21 29.7391 158.21 28.6266ZM154.41 54.453L124.194 39.233C123.626 38.945 122.95 38.945 122.382 39.233L92.1654 54.453C91.4865 54.7942 91.0564 55.4909 91.0564 56.2515V60.0121C91.0564 61.1246 91.9593 62.0274 93.0718 62.0274H98.8228V85.9807H92.496C91.3835 85.9807 90.4806 86.8835 90.4806 87.996V92.6843C90.4806 93.7968 91.3835 94.6997 92.496 94.6997H153.504C154.617 94.6997 155.519 93.7968 155.519 92.6843V87.996C155.519 86.8835 154.617 85.9807 153.504 85.9807H146.665V62.0274H153.504C154.617 62.0274 155.519 61.1246 155.519 60.0121V56.2515C155.519 55.4909 155.089 54.7942 154.41 54.453ZM102.854 62.0274H105.647V85.9807H102.854V62.0274ZM117.32 62.0274V85.9807H109.678V62.0274H117.32ZM124.141 62.0274V85.9807H121.347V62.0274H124.141ZM135.814 62.0274V85.9807H128.172V62.0274H135.814ZM151.489 90.6689H94.5113V90.0114H151.489V90.6689ZM142.638 85.9807H139.844V62.0274H142.638V85.9807ZM151.489 57.9967H95.0872V57.492L123.288 43.2885L151.489 57.492V57.9967Z" fill="black"/>
</g>
</g>
<path d="M246 176H0V184H246V176Z" fill="black" mask="url(#path-1-inside-1_85_543)"/>
<defs>
<filter id="filter0_d_85_543" x="73" y="20" width="102.004" height="87.5903" filterUnits="userSpaceOnUse" color-interpolation-filters="sRGB">
<feFlood flood-opacity="0" result="BackgroundImageFix"/>
<feColorMatrix in="SourceAlpha" type="matrix" values="0 0 0 0 0 0 0 0 0 0 0 0 0 0 0 0 0 0 127 0" result="hardAlpha"/>
<feOffset dx="2" dy="2"/>
<feComposite in2="hardAlpha" operator="out"/>
<feColorMatrix type="matrix" values="0 0 0 0 0 0 0 0 0 0 0 0 0 0 0 0 0 0 0.1 0"/>
<feBlend mode="normal" in2="BackgroundImageFix" result="effect1_dropShadow_85_543"/>
<feBlend mode="normal" in="SourceGraphic" in2="effect1_dropShadow_85_543" result="shape"/>
</filter>
<clipPath id="clip0_85_543">
<path d="M0 0H246V180H0V0Z" fill="white"/>
</clipPath>
</defs>
</svg>
