<?xml version="1.0" encoding="utf-8"?>
<!-- Generator: Adobe Illustrator 28.3.0, SVG Export Plug-In . SVG Version: 6.00 Build 0)  -->
<svg version="1.1" id="Camada_1" xmlns="http://www.w3.org/2000/svg" xmlns:xlink="http://www.w3.org/1999/xlink" x="0px" y="0px"
	 viewBox="0 0 246 180" style="enable-background:new 0 0 246 180;" xml:space="preserve">
<style type="text/css">
	.st0{clip-path:url(#SVGID_00000163043163853020648130000007712156450148483513_);}
	.st1{fill:#D9F339;}
	.st2{fill:#FFFFFF;filter:url(#Adobe_OpacityMaskFilter);}
	.st3{mask:url(#path-1-inside-1_85_535_00000039099842239881289440000012035575475382920864_);}
</style>
<g>
	<defs>
		<rect id="SVGID_1_" width="246" height="180"/>
	</defs>
	<clipPath id="SVGID_00000127011924521495601750000004812048167830110090_">
		<use xlink:href="#SVGID_1_"  style="overflow:visible;"/>
	</clipPath>
	<g style="clip-path:url(#SVGID_00000127011924521495601750000004812048167830110090_);">
		<path class="st1" d="M0-1.2h246v180H0V-1.2z"/>
		<path d="M247,128l-31,53h31L247,128L247,128z"/>
		<g>
			<path d="M132.2,97.7c-8.3,0-17.1,3-17.1,8.4v21.7c0,5.5,8.8,8.4,17.1,8.4c8.3,0,17.1-3,17.1-8.4v-21.7
				C149.3,100.6,140.5,97.7,132.2,97.7z M145.5,117c0,1.8-5.3,4.6-13.3,4.6c-8,0-13.3-2.8-13.3-4.6v-5.4c3.3,2,8.4,3,13.3,3
				c4.9,0,9.9-1,13.3-3V117z M132.2,101.5c8,0,13.3,2.8,13.3,4.6c0,1.8-5.3,4.6-13.3,4.6c-8,0-13.3-2.8-13.3-4.6
				C118.9,104.3,124.2,101.5,132.2,101.5z M132.2,132.4c-8,0-13.3-2.8-13.3-4.6v-5.4c3.3,2,8.4,3,13.3,3c4.9,0,9.9-1,13.3-3v5.4
				C145.5,129.7,140.2,132.4,132.2,132.4z M111.4,99.8c-7.4-0.3-12-2.9-12-4.6v-5.4c3.3,2,8.4,3,13.3,3c4.9,0,9.9-1,13.3-3v3.2
				c0,1.1,0.9,1.9,1.9,1.9c1.1,0,1.9-0.9,1.9-1.9v-8.7c0-5.5-8.8-8.4-17.1-8.4s-17.1,3-17.1,8.4V117c0,4.4,6.1,7.8,14.8,8.4
				c0,0,0.1,0,0.1,0c1,0,1.8-0.8,1.9-1.8c0.1-1.1-0.7-2-1.8-2c-7-0.4-11.2-2.9-11.2-4.5v-5.4c2.6,1.6,6.5,2.6,11,2.9
				c0,0,0.1,0,0.1,0c1,0,1.8-0.8,1.9-1.8c0.1-1.1-0.7-2-1.8-2c-7-0.4-11.2-2.9-11.2-4.5v-5.4c2.8,1.7,6.9,2.7,11.9,2.9
				c0,0,0.1,0,0.1,0c1,0,1.9-0.8,1.9-1.8C113.2,100.8,112.4,99.9,111.4,99.8L111.4,99.8z M112.6,79.8c8,0,13.3,2.8,13.3,4.6
				c0,1.8-5.3,4.6-13.3,4.6c-8,0-13.3-2.8-13.3-4.6C99.4,82.6,104.7,79.8,112.6,79.8z M171,67c0,0.6-0.3,1.1-0.7,1.5l-30.4,23.9
				c-0.6,0.5-1.4,0.5-2,0.2c-0.7-0.3-1.1-1-1.1-1.7V79.8h-4.6c-1.1,0-1.9-0.9-1.9-1.9s0.9-1.9,1.9-1.9h6.5c1.1,0,1.9,0.9,1.9,1.9V87
				L166,67l-25.4-19.9v9.1c0,1.1-0.9,1.9-1.9,1.9h-34.8c-6.8,0-12.9,2.7-17.3,7.6c-4.4,4.9-6.8,12-6.9,19.7c0,1.6,0.1,3.2,0.3,4.7
				c1.7-3.8,4.9-7.1,9.4-9.6c0.9-0.5,2.1-0.2,2.6,0.8c0.5,0.9,0.2,2.1-0.8,2.6c-7.1,3.8-10.2,10-8.4,16.5c1.1,2.4,2.5,4.7,4.2,6.7
				c0.7,0.8,0.6,2-0.3,2.7c-0.4,0.3-0.8,0.4-1.2,0.4c-0.6,0-1.1-0.2-1.5-0.7c-5.3-6.4-8.2-15-8.2-24.1c0-8.7,2.8-16.6,7.8-22.3
				c5.1-5.7,12.2-8.8,20.1-8.8h32.8V43.2c0-0.7,0.4-1.4,1.1-1.7c0.7-0.3,1.4-0.2,2,0.2l30.4,23.9C170.7,65.9,171,66.5,171,67z"/>
		</g>
	</g>
</g>
<defs>
	<filter id="Adobe_OpacityMaskFilter" filterUnits="userSpaceOnUse" x="0" y="176" width="246" height="8">
		<feColorMatrix  type="matrix" values="1 0 0 0 0  0 1 0 0 0  0 0 1 0 0  0 0 0 1 0"/>
	</filter>
</defs>
<mask maskUnits="userSpaceOnUse" x="0" y="176" width="246" height="8" id="path-1-inside-1_85_535_00000039099842239881289440000012035575475382920864_">
	<path class="st2" d="M0,0h246v180H0V0z"/>
</mask>
<path class="st3" d="M246,176H0v8h246V176z"/>
</svg>
