<?xml version="1.0" encoding="utf-8"?>
<!-- Generator: Adobe Illustrator 28.3.0, SVG Export Plug-In . SVG Version: 6.00 Build 0)  -->
<svg version="1.1" id="Camada_1" xmlns="http://www.w3.org/2000/svg" xmlns:xlink="http://www.w3.org/1999/xlink" x="0px" y="0px"
	 viewBox="0 0 246 180" style="enable-background:new 0 0 246 180;" xml:space="preserve">
<style type="text/css">
	.st0{clip-path:url(#SVGID_00000049210152642147487430000014804424801012689598_);}
	.st1{fill:#D9F339;}
	.st2{fill:#FFFFFF;filter:url(#Adobe_OpacityMaskFilter);}
	.st3{mask:url(#path-1-inside-1_82_476_00000065052368218474421500000009473187963862532242_);}
</style>
<g>
	<defs>
		<rect id="SVGID_1_" width="246" height="180"/>
	</defs>
	<clipPath id="SVGID_00000016047959460658761830000001937473671369679771_">
		<use xlink:href="#SVGID_1_"  style="overflow:visible;"/>
	</clipPath>
	<g style="clip-path:url(#SVGID_00000016047959460658761830000001937473671369679771_);">
		<path class="st1" d="M0-2.2h246v180H0V-2.2z"/>
		<path d="M247,128l-31,53h31L247,128L247,128z"/>
		<g>
			<path d="M131.5,124c-5.7,3.4-10.8,5.3-13.4,6.2c-0.2,0.1-0.4,0.1-0.6,0.1c-0.2,0-0.4,0-0.5-0.1c-4-1.2-14.3-4.8-23.5-12.8
				C81.9,107.3,76,94.2,76,78.3l0-28.1c0-0.8,0.5-1.5,1.2-1.8c7.1-2.6,18.8-6.1,39.4-6.1c15.2,0,29,2.1,41,6.2
				c0.8,0.3,1.3,1,1.3,1.8l0,28.1c0,6.3-1,12.3-3,17.8c-0.4,1-1.5,1.5-2.5,1.1c-1-0.4-1.5-1.5-1.1-2.5c1.9-5.1,2.8-10.6,2.8-16.5
				l0-26.7c-11.3-3.7-24.2-5.6-38.4-5.6c-18.8,0-29.9,3-36.8,5.4l0,26.8c0,33.5,28,45.1,37.6,48.1c2.5-0.9,7-2.7,12.1-5.6
				c0.9-0.5,2.1-0.2,2.6,0.7C132.7,122.3,132.4,123.5,131.5,124L131.5,124z M117.3,54.3c1.1,0,1.9,0.9,1.9,1.9v59.4
				c0,0.6-0.3,1.2-0.8,1.6c-0.3,0.2-0.7,0.3-1.1,0.3c-0.2,0-0.5,0-0.7-0.1c-4.9-1.9-12.1-5.6-17.9-11.8c-7-7.4-10.5-16.6-10.5-27.4
				l0-19.2c0-0.9,0.6-1.7,1.5-1.9C94.9,55.8,104,54.2,117.3,54.3L117.3,54.3z M115.4,58.1c-10.8,0.1-18.5,1.2-23.4,2.3l0,17.7
				c0,20.3,13.6,30.1,23.4,34.6V58.1z M170.8,132.4c-0.3,0.6-1,1-1.7,1H132c-0.7,0-1.3-0.4-1.7-1c-0.3-0.6-0.3-1.3,0-1.9l18.5-30.4
				c0.3-0.6,1-0.9,1.6-0.9c0.7,0,1.3,0.3,1.6,0.9l18.5,30.4C171.1,131,171.1,131.8,170.8,132.4z M165.7,129.5l-15.1-24.8l-15.1,24.8
				H165.7z M148.6,111.6v9c0,1.1,0.9,1.9,1.9,1.9c1.1,0,1.9-0.9,1.9-1.9v-9c0-1.1-0.9-1.9-1.9-1.9
				C149.5,109.7,148.6,110.5,148.6,111.6z M150.5,124c-1.1,0-1.9,0.9-1.9,1.9v0c0,1.1,0.9,1.9,1.9,1.9c1.1,0,1.9-0.9,1.9-1.9
				S151.6,124,150.5,124L150.5,124z"/>
		</g>
	</g>
</g>
<defs>
	<filter id="Adobe_OpacityMaskFilter" filterUnits="userSpaceOnUse" x="0" y="176" width="246" height="8">
		<feColorMatrix  type="matrix" values="1 0 0 0 0  0 1 0 0 0  0 0 1 0 0  0 0 0 1 0"/>
	</filter>
</defs>
<mask maskUnits="userSpaceOnUse" x="0" y="176" width="246" height="8" id="path-1-inside-1_82_476_00000065052368218474421500000009473187963862532242_">
	<path class="st2" d="M0,0h246v180H0V0z"/>
</mask>
<path class="st3" d="M246,176H0v8h246V176z"/>
</svg>
