<?xml version="1.0" encoding="utf-8"?>
<!-- Generator: Adobe Illustrator 28.3.0, SVG Export Plug-In . SVG Version: 6.00 Build 0)  -->
<svg version="1.1" id="Camada_1" xmlns="http://www.w3.org/2000/svg" xmlns:xlink="http://www.w3.org/1999/xlink" x="0px" y="0px"
	 viewBox="0 0 246 180" style="enable-background:new 0 0 246 180;" xml:space="preserve">
<style type="text/css">
	.st0{clip-path:url(#SVGID_00000158709860302424864810000011258127305991454346_);}
	.st1{fill:#D9F339;}
	.st2{fill:#FFFFFF;filter:url(#Adobe_OpacityMaskFilter);}
	.st3{mask:url(#path-1-inside-1_85_499_00000011029539400549033330000004229783734693664190_);}
</style>
<g>
	<defs>
		<rect id="SVGID_1_" width="246" height="180"/>
	</defs>
	<clipPath id="SVGID_00000082346090518600546910000011799573627054137513_">
		<use xlink:href="#SVGID_1_"  style="overflow:visible;"/>
	</clipPath>
	<g style="clip-path:url(#SVGID_00000082346090518600546910000011799573627054137513_);">
		<path class="st1" d="M0-1.3h246v180H0V-1.3z"/>
		<path d="M247,128l-31,53h31L247,128L247,128z"/>
		<g>
			<path d="M177.6,112.3l-18.9-16.7c4.6-8.7,5.7-19.2,2.3-29.2c-6.6-19.4-27.7-29.8-47.1-23.3c-9.4,3.2-17,9.8-21.4,18.7
				c-4.4,8.9-5.1,19-1.9,28.4c0.2,0.5,0.4,1,0.6,1.5c-4.3,2.2-8.7,3.2-12.6,2.9c-4.8-0.3-8.3-2.3-9.6-5.7c-1.3-3.4-0.6-9.1,4.8-17.2
				c0.7-1,0.4-2.3-0.6-3c-1-0.7-2.3-0.4-3,0.6c-5.8,8.7-7.2,15.8-5.2,21.2c2.1,5.3,7.5,8.1,13.4,8.5c4.7,0.3,9.9-0.8,14.7-3.2
				c3.6,6.8,9.3,12.4,16.4,15.9c5.2,2.6,10.8,3.9,16.4,3.9c4,0,8-0.7,12-2c1.4-0.5,2.8-1,4.1-1.7l16.3,19.4l0,0
				c2.7,3.1,6.3,4.9,10.2,4.9c0.1,0,0.1,0,0.2,0c3.5,0,6.8-1.4,9.5-4c2.8-2.7,4.3-6.4,4.2-10.2C182.1,118.3,180.5,114.9,177.6,112.3
				L177.6,112.3z M136.5,109.9c-8.4,2.9-17.5,2.3-25.4-1.7c-6.4-3.2-11.5-8.2-14.7-14.3c1.2-0.8,2.4-1.7,3.6-2.7
				c0.3,0,0.6,0.2,1,0.2c3.7,0,7.7-2,11.5-4.2c-0.2,0.6-0.4,1.1-0.4,1.7c0,1.9,1.3,3.6,2.8,4.3s3.3,1.1,5.2,1.1
				c7.9,0.3,19.9-3,28.6-7.2c1.1-0.5,1.5-1.8,1-2.9s-1.8-1.5-2.9-1c-8.1,3.8-20.2,7-26.6,6.7c-1.6-0.1-2.8-0.3-3.4-0.6
				c-0.6-0.3-0.5-0.2-0.5-0.5c0-0.3,0.3-1.4,1.4-2.9c1.1-1.5,3-3.6,5.8-6c0.9-0.8,1.9-1.6,2.8-2.4c0.2-0.2,1.1-1.5,0.1-2.8
				c-0.8-1.2-2.6-0.7-3.2-0.2c-0.2,0.2-0.6,0.5-1.1,0.9c-2,1.6-5.9,4.5-10.1,7.1c-2.5,1.5-4.9,2.6-7.1,3.5c2.3-3.1,4.1-6.7,5.1-10.9
				c1.7-6.7,2.2-10.9,1.4-13.8c-0.4-1.5-1.4-3-3-3.4c-1.6-0.4-2.9,0.3-4,1.1c-2.2,1.6-4.2,4.5-6.1,8.2c-1.8,3.7-3.4,8.4-4.1,13.4
				c-0.5,3.3-0.3,5.9,1,7.9c0.1,0.2,0.3,0.2,0.5,0.4c-0.4,0.3-0.8,0.6-1.1,0.8c-0.1-0.2-0.2-0.5-0.3-0.7c-2.9-8.4-2.3-17.5,1.7-25.4
				c3.9-8,10.8-13.9,19.2-16.8c3.5-1.2,7.1-1.8,10.7-1.8c13.9,0,26.9,8.8,31.6,22.6C163.3,85.1,153.9,104,136.5,109.9L136.5,109.9z
				 M107.2,62.4c0.3,1.3,0.2,5.2-1.4,11.6c-1.3,5-3.8,9-6.9,12.2c-0.4-0.7-0.7-2.2-0.3-4.9c0.6-4.5,2.1-8.8,3.7-12.1
				s3.6-5.8,4.7-6.6C107.2,62.3,107.1,62.4,107.2,62.4C107.2,62.4,107.2,62.3,107.2,62.4z M175.3,129.5c-2,1.9-4.5,3-7,2.9
				c-2.7,0-5.4-1.3-7.4-3.6L145.3,110c4.6-2.9,8.5-6.6,11.4-11l18.3,16.2c2.1,1.9,3.3,4.3,3.4,7
				C178.4,124.9,177.3,127.6,175.3,129.5L175.3,129.5z"/>
		</g>
	</g>
</g>
<defs>
	<filter id="Adobe_OpacityMaskFilter" filterUnits="userSpaceOnUse" x="0" y="176" width="246" height="8">
		<feColorMatrix  type="matrix" values="1 0 0 0 0  0 1 0 0 0  0 0 1 0 0  0 0 0 1 0"/>
	</filter>
</defs>
<mask maskUnits="userSpaceOnUse" x="0" y="176" width="246" height="8" id="path-1-inside-1_85_499_00000011029539400549033330000004229783734693664190_">
	<path class="st2" d="M0,0h246v180H0V0z"/>
</mask>
<path class="st3" d="M246,176H0v8h246V176z"/>
</svg>
