<?xml version="1.0" encoding="utf-8"?>
<!-- Generator: Adobe Illustrator 28.3.0, SVG Export Plug-In . SVG Version: 6.00 Build 0)  -->
<svg version="1.1" id="Camada_1" xmlns="http://www.w3.org/2000/svg" xmlns:xlink="http://www.w3.org/1999/xlink" x="0px" y="0px"
	 viewBox="0 0 246 180" style="enable-background:new 0 0 246 180;" xml:space="preserve">
<style type="text/css">
	.st0{clip-path:url(#SVGID_00000124161480475197333970000007147312469042541758_);}
	.st1{fill:#D9F339;}
	.st2{fill:#FFFFFF;filter:url(#Adobe_OpacityMaskFilter);}
	.st3{mask:url(#path-1-inside-1_85_523_00000021813553236340283570000000270282696560856714_);}
</style>
<g>
	<defs>
		<rect id="SVGID_1_" width="246" height="180"/>
	</defs>
	<clipPath id="SVGID_00000173142245754707551390000010905347383204532154_">
		<use xlink:href="#SVGID_1_"  style="overflow:visible;"/>
	</clipPath>
	<g style="clip-path:url(#SVGID_00000173142245754707551390000010905347383204532154_);">
		<path class="st1" d="M0.5,0h246v180H0.5V0z"/>
		<path d="M247,128l-31,53h31L247,128L247,128z"/>
		<g>
			<path d="M103,91.5c0,0.5,0.2,1,0.6,1.4l14.7,14.7c0.4,0.4,0.8,0.6,1.4,0.6c0,0,0,0,0.1,0c0.5,0,1-0.2,1.4-0.6L144.6,81
				c0.7-0.8,0.6-1.9-0.1-2.6l-5.9-5.9c-0.4-0.4-0.9-0.6-1.4-0.6c-0.5,0-1,0.3-1.4,0.7l-16.3,19l-7.4-7.4c-0.7-0.7-2-0.7-2.7,0
				l-5.9,5.9C103.2,90.5,103,91,103,91.5z M110.8,88.3l7.5,7.5c0.4,0.4,0.9,0.6,1.4,0.6c0.5,0,1-0.3,1.4-0.7l16.3-19l3.1,3.1
				l-21,23.6l-11.9-11.9L110.8,88.3z M166.5,79.2c-1.4-1.8-2.8-3.6-3.5-5.3c-0.8-1.8-1.1-4.1-1.4-6.5c-0.5-4-1.1-8.1-4-11
				c-2.8-2.8-7-3.4-11-4c-2.4-0.3-4.6-0.6-6.5-1.4c-1.7-0.7-3.5-2.1-5.3-3.5c-3.1-2.4-6.6-5.1-10.8-5.1s-7.7,2.7-10.8,5.1
				c-1.8,1.4-3.6,2.8-5.3,3.5c-1.8,0.8-4.1,1.1-6.5,1.4c-4,0.5-8.1,1.1-11,4c-2.8,2.8-3.4,7-4,11c-0.3,2.4-0.6,4.6-1.4,6.5
				c-0.7,1.7-2.1,3.5-3.5,5.3c-2.4,3.1-5.1,6.6-5.1,10.8c0,4.2,2.7,7.7,5.1,10.8c1.4,1.8,2.8,3.6,3.5,5.3c0.8,1.8,1.1,4.1,1.4,6.5
				c0.5,4,1.1,8.1,4,11c2.8,2.8,7,3.4,11,4c2.4,0.3,4.7,0.6,6.5,1.4c1.7,0.7,3.5,2.1,5.3,3.5c3.1,2.4,6.6,5.1,10.8,5.1
				s7.7-2.7,10.8-5.1c1.8-1.4,3.6-2.8,5.3-3.5c1.8-0.8,4.1-1.1,6.5-1.4c4-0.5,8.1-1.1,11-4c2.8-2.8,3.4-7,4-11
				c0.3-2.4,0.6-4.6,1.4-6.5c0.7-1.7,2.1-3.5,3.5-5.3c2.4-3.1,5.1-6.6,5.1-10.8C171.5,85.8,168.8,82.3,166.5,79.2z M163.4,98.5
				c-1.5,2-3.1,4-4,6.2c-1,2.3-1.3,4.9-1.7,7.4c-0.5,3.5-0.9,6.8-2.9,8.8c-1.9,1.9-5.3,2.4-8.8,2.9c-2.5,0.3-5.1,0.7-7.4,1.7
				c-2.2,0.9-4.2,2.5-6.2,4c-2.9,2.2-5.6,4.3-8.5,4.3s-5.6-2.1-8.5-4.3c-2-1.5-4-3.1-6.2-4c-2.3-1-4.9-1.3-7.4-1.7
				c-3.5-0.5-6.8-0.9-8.8-2.9c-1.9-1.9-2.4-5.3-2.9-8.8c-0.3-2.5-0.7-5.1-1.7-7.4c-0.9-2.2-2.5-4.2-4-6.2c-2.2-2.9-4.3-5.6-4.3-8.5
				s2.1-5.6,4.3-8.5c1.5-2,3.1-4,4-6.2c1-2.3,1.3-4.9,1.7-7.4c0.5-3.5,0.9-6.8,2.9-8.8c1.9-1.9,5.3-2.4,8.8-2.9
				c2.5-0.3,5.1-0.7,7.4-1.7c2.2-0.9,4.2-2.5,6.2-4c2.9-2.2,5.6-4.3,8.5-4.3s5.6,2.1,8.5,4.3c2,1.5,4,3.1,6.2,4
				c2.3,1,4.9,1.3,7.4,1.7c3.5,0.5,6.8,0.9,8.8,2.9c1.9,1.9,2.4,5.3,2.9,8.8c0.3,2.5,0.7,5.1,1.7,7.4c0.9,2.2,2.5,4.2,4,6.2
				c2.2,2.9,4.3,5.6,4.3,8.5S165.6,95.6,163.4,98.5z M147.2,66.8c6.2,6.2,9.6,14.4,9.6,23.2c0,1.1-0.9,1.9-1.9,1.9S153,91.1,153,90
				c0-7.7-3-15-8.5-20.5C139.1,64,131.8,61,124,61c-1.1,0-1.9-0.9-1.9-1.9s0.9-1.9,1.9-1.9C132.8,57.2,141,60.6,147.2,66.8
				L147.2,66.8z M147.2,110.5c0.7,0.7,0.7,2,0,2.7c-6.2,6.2-14.4,9.6-23.2,9.6s-17-3.4-23.2-9.6c-6.2-6.2-9.6-14.4-9.6-23.2
				c0-8.8,3.4-17,9.6-23.2c0.7-0.7,2-0.7,2.7,0c0.7,0.7,0.7,2,0,2.7C98.1,75,95.1,82.3,95.1,90c0,7.7,3,15,8.5,20.5
				c5.5,5.5,12.7,8.5,20.5,8.5c7.7,0,15-3,20.5-8.5C145.3,109.7,146.5,109.7,147.2,110.5L147.2,110.5z"/>
		</g>
	</g>
</g>
<defs>
	<filter id="Adobe_OpacityMaskFilter" filterUnits="userSpaceOnUse" x="0" y="176" width="246" height="8">
		<feColorMatrix  type="matrix" values="1 0 0 0 0  0 1 0 0 0  0 0 1 0 0  0 0 0 1 0"/>
	</filter>
</defs>
<mask maskUnits="userSpaceOnUse" x="0" y="176" width="246" height="8" id="path-1-inside-1_85_523_00000021813553236340283570000000270282696560856714_">
	<path class="st2" d="M0,0h246v180H0V0z"/>
</mask>
<path class="st3" d="M246,176H0v8h246V176z"/>
</svg>
