<?xml version="1.0" encoding="utf-8"?>
<!-- Generator: Adobe Illustrator 28.3.0, SVG Export Plug-In . SVG Version: 6.00 Build 0)  -->
<svg version="1.1" id="Camada_1" xmlns="http://www.w3.org/2000/svg" xmlns:xlink="http://www.w3.org/1999/xlink" x="0px" y="0px"
	 viewBox="0 0 246 180" style="enable-background:new 0 0 246 180;" xml:space="preserve">
<style type="text/css">
	.st0{clip-path:url(#SVGID_00000119095252436663592530000016712432003527775675_);}
	.st1{fill:#D9F339;}
	.st2{fill:#FFFFFF;filter:url(#Adobe_OpacityMaskFilter);}
	.st3{mask:url(#path-1-inside-1_85_547_00000142866046965618659850000000823730050486878888_);}
</style>
<g>
	<defs>
		<rect id="SVGID_1_" width="246" height="180"/>
	</defs>
	<clipPath id="SVGID_00000183233513563207875980000007100252491446781108_">
		<use xlink:href="#SVGID_1_"  style="overflow:visible;"/>
	</clipPath>
	<g style="clip-path:url(#SVGID_00000183233513563207875980000007100252491446781108_);">
		<path class="st1" d="M0-1.2h246v180H0V-1.2z"/>
		<path d="M247,128l-31,53h31L247,128L247,128z"/>
		<g>
			<path d="M92.2,68.9h61.6c0.9,0,1.7-0.6,1.9-1.5c0.2-0.9-0.2-1.8-1-2.2l-30.8-14.8c-0.5-0.3-1.1-0.3-1.7,0L91.4,65.3
				c-0.8,0.4-1.2,1.3-1,2.2C90.5,68.3,91.3,68.9,92.2,68.9z M123,54.3l22.4,10.8h-44.8L123,54.3L123,54.3z M173.1,124.7H165
				c-0.1-0.5-0.2-1-0.3-1.5c-0.2-1.2-0.8-3.6-2.8-3.6h-1.4v-36c0.1,0,0.3,0,0.5,0c2.9,0,5.2-2.3,5.2-5.2c0-0.7-0.1-1.4-0.4-2.1h6.9
				c1.1,0,1.9-0.9,1.9-1.9v-6.2c0-0.7-0.4-1.4-1.1-1.7l-49.6-25c-0.5-0.3-1.2-0.3-1.7,0l-49.6,25c-0.6,0.3-1.1,1-1.1,1.7v6.2
				c0,1.1,0.9,1.9,1.9,1.9h6.1c-0.3,0.7-0.4,1.4-0.4,2.1c0,2.9,2.3,5.2,5.2,5.2c0.2,0,0.3,0,0.5,0v36h-1.4c-2,0-2.6,2.5-2.8,3.6
				c-0.1,0.5-0.2,1-0.3,1.5h-7.3c-1.1,0-1.9,0.9-1.9,1.9v7.7c0,1.1,0.9,1.9,1.9,1.9h100.2c1.1,0,1.9-0.9,1.9-1.9v-7.7
				C175,125.6,174.1,124.7,173.1,124.7z M161.1,124.7h-16.3c0.1-0.5,0.2-1,0.3-1.3h15.7C160.9,123.8,161,124.2,161.1,124.7z
				 M134.6,124.7c-0.1-0.5-0.2-1-0.3-1.5c-0.2-1.2-0.8-3.6-2.8-3.6h-1.4v-36c0.1,0,0.3,0,0.5,0c2.9,0,5.2-2.3,5.2-5.2
				c0-0.7-0.1-1.4-0.4-2.1h4.8c-0.3,0.7-0.4,1.4-0.4,2.1c0,2.9,2.3,5.2,5.2,5.2c0.2,0,0.3,0,0.5,0v36H144c-2,0-2.6,2.5-2.8,3.6
				c-0.1,0.5-0.2,1-0.3,1.5H134.6L134.6,124.7z M104.2,124.7c-0.1-0.5-0.2-1-0.3-1.5c-0.2-1.2-0.8-3.6-2.8-3.6h-1.4v-36
				c0.1,0,0.3,0,0.5,0c2.9,0,5.2-2.3,5.2-5.2c0-0.7-0.1-1.4-0.4-2.1h4.8c-0.3,0.7-0.4,1.4-0.4,2.1c0,2.9,2.3,5.2,5.2,5.2
				c0.2,0,0.3,0,0.5,0v36h-1.4c-2,0-2.6,2.5-2.8,3.6c-0.1,0.5-0.2,1-0.3,1.5H104.2L104.2,124.7z M130.6,76.2c0.5,0,1.4,1.2,1.4,2.1
				c0,0.8-0.6,1.4-1.4,1.4c-0.8,0-1.3-0.6-1.4-1.3c0-1-0.9-1.8-1.9-1.8h-9.4c-1,0-1.9,0.8-1.9,1.8c0,0.7-0.6,1.3-1.4,1.3
				c-0.7,0-1.4-0.6-1.4-1.4c0-1,0.9-2.1,1.4-2.1H130.6L130.6,76.2z M118.9,119.6V81.4c0.2-0.3,0.4-0.6,0.5-0.9h6.3
				c0.1,0.3,0.3,0.6,0.5,0.9v38.2H118.9L118.9,119.6z M114.7,123.4h15.7c0.1,0.4,0.2,0.9,0.3,1.3h-16.3
				C114.5,124.2,114.6,123.8,114.7,123.4z M149.3,119.6V81.4c0.2-0.3,0.4-0.6,0.5-0.9h6.3c0.1,0.3,0.3,0.6,0.5,0.9v38.2H149.3
				L149.3,119.6z M161.7,76.8c0.4,0.5,0.6,1.1,0.6,1.6c0,0.8-0.6,1.4-1.4,1.4c-0.8,0-1.3-0.6-1.4-1.3c0-1-0.9-1.8-1.9-1.8h-9.4
				c-1,0-1.9,0.8-1.9,1.8c0,0.7-0.6,1.3-1.4,1.3c-0.7,0-1.4-0.6-1.4-1.4c0-1,0.9-2.1,1.4-2.1h15.9C161.1,76.2,161.4,76.4,161.7,76.8
				L161.7,76.8z M75.3,69.3l47.7-24l47.7,24v3.1H75.3V69.3z M82.9,78.4c0-1,0.9-2.1,1.4-2.1h15.9c0.2,0,0.5,0.2,0.8,0.6
				c0.4,0.5,0.6,1.1,0.6,1.6c0,0.8-0.6,1.4-1.4,1.4c-0.8,0-1.3-0.6-1.4-1.3c0-1-0.9-1.8-1.9-1.8h-9.4c-1,0-1.9,0.8-1.9,1.8
				c0,0.7-0.6,1.3-1.4,1.3S82.9,79.2,82.9,78.4L82.9,78.4z M88.5,81.4c0.2-0.3,0.4-0.6,0.5-0.9h6.4c0.1,0.3,0.3,0.6,0.5,0.9v38.2
				h-7.4V81.4z M84.3,123.4h15.7c0.1,0.4,0.2,0.9,0.3,1.3H84.1C84.1,124.2,84.2,123.8,84.3,123.4z M171.2,132.4H74.8v-3.9h96.3
				V132.4z"/>
		</g>
	</g>
</g>
<defs>
	<filter id="Adobe_OpacityMaskFilter" filterUnits="userSpaceOnUse" x="0" y="176" width="246" height="8">
		<feColorMatrix  type="matrix" values="1 0 0 0 0  0 1 0 0 0  0 0 1 0 0  0 0 0 1 0"/>
	</filter>
</defs>
<mask maskUnits="userSpaceOnUse" x="0" y="176" width="246" height="8" id="path-1-inside-1_85_547_00000142866046965618659850000000823730050486878888_">
	<path class="st2" d="M0,0h246v180H0V0z"/>
</mask>
<path class="st3" d="M246,176H0v8h246V176z"/>
</svg>
