<?xml version="1.0" encoding="utf-8"?>
<!-- Generator: Adobe Illustrator 28.3.0, SVG Export Plug-In . SVG Version: 6.00 Build 0)  -->
<svg version="1.1" id="Camada_1" xmlns="http://www.w3.org/2000/svg" xmlns:xlink="http://www.w3.org/1999/xlink" x="0px" y="0px"
	 viewBox="0 0 246 180" style="enable-background:new 0 0 246 180;" xml:space="preserve">
<style type="text/css">
	.st0{clip-path:url(#SVGID_00000111885796396835643730000007614276935100248726_);}
	.st1{fill:#D9F339;}
	.st2{fill:#FFFFFF;filter:url(#Adobe_OpacityMaskFilter);}
	.st3{mask:url(#path-1-inside-1_85_527_00000065048347654144246170000000931202410598620051_);}
</style>
<g>
	<defs>
		<rect id="SVGID_1_" width="246" height="180"/>
	</defs>
	<clipPath id="SVGID_00000168814425368971220600000008231855103676001445_">
		<use xlink:href="#SVGID_1_"  style="overflow:visible;"/>
	</clipPath>
	<g style="clip-path:url(#SVGID_00000168814425368971220600000008231855103676001445_);">
		<path class="st1" d="M0-1.2h246v180H0V-1.2z"/>
		<path d="M247,128l-31,53h31L247,128L247,128z"/>
		<g>
			<path d="M151.6,51.8h-15.1c-1.4-0.9-2.9-1.6-4.7-2.2c-0.3-4.7-4.2-8.4-8.9-8.4s-8.6,3.7-8.9,8.4c-1.8,0.6-3.3,1.3-4.7,2.2H94.2
				c-5.1,0-9.2,4.1-9.2,9.2V127c0,5.1,4.1,9.2,9.2,9.2h57.4c5.1,0,9.2-4.1,9.2-9.2V61C160.8,55.9,156.7,51.8,151.6,51.8z
				 M105.4,66.3h35.1c1.1,0,1.9-0.9,1.9-1.9v-1.5h6.4v60.4H97V62.9h6.4v1.5C103.4,65.4,104.3,66.3,105.4,66.3z M116.4,52.9
				c0.9-0.2,1.5-1.1,1.4-2.1c0-0.1,0-0.2,0-0.2c0-0.2,0-0.3,0-0.4c0-2.8,2.3-5.1,5.1-5.1c2.8,0,5.1,2.3,5.1,5.1c0,0.1,0,0.2,0,0.4
				c0,0.1,0,0.2,0,0.2c-0.1,1,0.5,1.8,1.4,2.1c2.2,0.6,4.1,1.4,5.6,2.5c0,0,0.1,0,0.1,0.1c1.6,1.1,2.7,2.4,3.2,3.8c0,0,0,0,0,0
				c0,0.1,0,0.1,0.1,0.2c0,0,0,0.1,0,0.1c0,0.1,0,0.1,0,0.2c0,0.1,0,0.1,0,0.2c0,0.1,0,0.1,0,0.2c0,0.1,0,0.1,0,0.2c0,0,0,0.1,0,0.1
				c0,0.1,0,0.2,0,0.3v1.7h-31.2v-1.7c0-0.1,0-0.2,0-0.3c0,0,0-0.1,0-0.1c0-0.1,0-0.1,0-0.2c0-0.1,0-0.1,0-0.2c0-0.1,0-0.1,0-0.2
				c0-0.1,0-0.1,0-0.2c0,0,0-0.1,0-0.1c0-0.1,0-0.1,0.1-0.2c0,0,0,0,0,0c0.5-1.4,1.6-2.7,3.2-3.8c0,0,0,0,0.1-0.1
				C112.3,54.3,114.2,53.5,116.4,52.9L116.4,52.9z M157,127c0,3-2.4,5.4-5.4,5.4H94.2c-3,0-5.4-2.4-5.4-5.4V61c0-3,2.4-5.4,5.4-5.4
				h10.9c-0.7,1.1-1.2,2.2-1.5,3.3c0,0,0,0,0,0c0,0,0,0.1,0,0.1h-6.7c-2.1,0-3.7,1.7-3.7,3.7v60.6c0,2.1,1.7,3.7,3.7,3.7h51.9
				c2.1,0,3.7-1.7,3.7-3.7V62.8c0-2.1-1.7-3.7-3.7-3.7h-6.7c0,0,0-0.1,0-0.1c0,0,0,0,0,0c-0.2-1.2-0.7-2.3-1.5-3.3h10.9
				c3,0,5.4,2.4,5.4,5.4L157,127L157,127z M122.9,109.6c9.1,0,16.5-7.4,16.5-16.5s-7.4-16.5-16.5-16.5s-16.5,7.4-16.5,16.5
				S113.8,109.6,122.9,109.6z M122.9,80.4c7,0,12.7,5.7,12.7,12.7c0,7-5.7,12.7-12.7,12.7c-7,0-12.7-5.7-12.7-12.7
				C110.2,86.1,115.9,80.4,122.9,80.4z M115.6,94.2c-0.4-0.4-0.6-0.9-0.6-1.4c0-0.5,0.2-1,0.6-1.4l0,0c0.8-0.7,2-0.7,2.7,0l2.7,2.7
				l6.4-6.4c0.7-0.7,2-0.7,2.7,0l0,0c0.4,0.4,0.6,0.8,0.6,1.4c0,0.5-0.2,1-0.6,1.4l-7.7,7.7c-0.4,0.4-0.9,0.6-1.4,0.6
				c-0.5,0-1-0.2-1.4-0.6L115.6,94.2L115.6,94.2z"/>
		</g>
	</g>
</g>
<defs>
	<filter id="Adobe_OpacityMaskFilter" filterUnits="userSpaceOnUse" x="0" y="176" width="246" height="8">
		<feColorMatrix  type="matrix" values="1 0 0 0 0  0 1 0 0 0  0 0 1 0 0  0 0 0 1 0"/>
	</filter>
</defs>
<mask maskUnits="userSpaceOnUse" x="0" y="176" width="246" height="8" id="path-1-inside-1_85_527_00000065048347654144246170000000931202410598620051_">
	<path class="st2" d="M0,0h246v180H0V0z"/>
</mask>
<path class="st3" d="M246,176H0v8h246V176z"/>
</svg>
