<svg width="246" height="180" viewBox="0 0 246 180" fill="none" xmlns="http://www.w3.org/2000/svg">
<g clip-path="url(#clip0_85_535)">
<mask id="path-1-inside-1_85_535" fill="white">
<path d="M0 0H246V180H0V0Z"/>
</mask>
<path d="M0 0H246V180H0V0Z" fill="#D9F339"/>
<path d="M81.8848 138H80.1598V127.35H84.4948C86.6398 127.35 88.1398 128.46 88.1398 130.53V130.77C88.1398 132.84 86.6398 133.95 84.4948 133.95H81.8848V138ZM81.8848 128.82V132.48H84.3598C85.5598 132.48 86.3548 131.94 86.3548 130.77V130.53C86.3548 129.36 85.5598 128.82 84.3598 128.82H81.8848ZM91.0072 138H89.3572V130.275H90.9472L90.9922 131.775C91.4122 130.785 92.2222 130.125 93.3322 130.125C93.4522 130.125 93.6172 130.14 93.7522 130.17V131.775C93.6022 131.76 93.4222 131.745 93.2422 131.745C91.8472 131.745 91.0072 132.54 91.0072 134.07V138ZM98.1117 138.195C95.7117 138.195 94.2867 136.59 94.2867 134.25V134.025C94.2867 131.685 95.7417 130.095 98.1117 130.095C100.647 130.095 101.877 131.865 101.757 134.505H95.9817C96.0567 136.05 96.8067 136.875 98.1117 136.875C99.1917 136.875 99.8367 136.365 100.062 135.585H101.712C101.337 137.205 100.047 138.195 98.1117 138.195ZM96.0117 133.32H100.062C99.9417 132.12 99.3117 131.4 98.0967 131.4C96.8967 131.4 96.1917 132.06 96.0117 133.32ZM104.762 140.55H103.097V130.275H104.642L104.687 131.55C105.062 130.815 105.962 130.095 107.282 130.095C109.307 130.095 110.582 131.715 110.582 134.025V134.25C110.582 136.56 109.277 138.195 107.237 138.195C106.037 138.195 105.182 137.565 104.762 136.83V140.55ZM106.832 136.86C108.152 136.86 108.902 135.915 108.902 134.25V134.025C108.902 132.36 108.152 131.4 106.832 131.4C105.452 131.4 104.702 132.36 104.702 134.025V134.25C104.702 135.915 105.452 136.86 106.832 136.86ZM114.151 138.195C112.561 138.195 111.556 137.235 111.556 135.915C111.556 134.685 112.306 133.875 113.626 133.695L116.671 133.245V132.69C116.671 131.835 116.086 131.385 115.111 131.385C114.151 131.385 113.506 131.82 113.431 132.6H111.856C111.991 131.01 113.251 130.095 115.141 130.095C117.136 130.095 118.261 131.145 118.261 132.75V138H116.746L116.686 136.8C116.206 137.67 115.261 138.195 114.151 138.195ZM114.526 136.89C115.681 136.89 116.671 136.17 116.671 135.165V134.46L114.196 134.805C113.491 134.91 113.161 135.24 113.161 135.84C113.161 136.485 113.656 136.89 114.526 136.89ZM121.52 138H119.87V130.275H121.46L121.505 131.775C121.925 130.785 122.735 130.125 123.845 130.125C123.965 130.125 124.13 130.14 124.265 130.17V131.775C124.115 131.76 123.935 131.745 123.755 131.745C122.36 131.745 121.52 132.54 121.52 134.07V138ZM127.335 138.195C125.745 138.195 124.74 137.235 124.74 135.915C124.74 134.685 125.49 133.875 126.81 133.695L129.855 133.245V132.69C129.855 131.835 129.27 131.385 128.295 131.385C127.335 131.385 126.69 131.82 126.615 132.6H125.04C125.175 131.01 126.435 130.095 128.325 130.095C130.32 130.095 131.445 131.145 131.445 132.75V138H129.93L129.87 136.8C129.39 137.67 128.445 138.195 127.335 138.195ZM127.71 136.89C128.865 136.89 129.855 136.17 129.855 135.165V134.46L127.38 134.805C126.675 134.91 126.345 135.24 126.345 135.84C126.345 136.485 126.84 136.89 127.71 136.89ZM136.267 138.195C134.572 138.195 133.732 137.415 133.732 135.915V131.52H132.232V130.275H133.732V127.86H135.382V130.275H137.482V131.52H135.382V135.735C135.382 136.5 135.667 136.845 136.582 136.845C136.912 136.845 137.302 136.77 137.527 136.695V138.015C137.182 138.12 136.657 138.195 136.267 138.195ZM142.745 126.9H144.95L142.55 129.15H141.065L142.745 126.9ZM142.13 138.195C139.82 138.195 138.32 136.605 138.32 134.25V134.025C138.32 131.67 139.82 130.095 142.13 130.095C144.455 130.095 145.955 131.67 145.955 134.025V134.25C145.955 136.605 144.455 138.195 142.13 138.195ZM142.13 136.86C143.54 136.86 144.275 135.915 144.275 134.25V134.025C144.275 132.36 143.54 131.43 142.13 131.43C140.735 131.43 140 132.36 140 134.025V134.25C140 135.915 140.735 136.86 142.13 136.86ZM148.956 138H147.306V130.275H148.896L148.941 131.775C149.361 130.785 150.171 130.125 151.281 130.125C151.401 130.125 151.566 130.14 151.701 130.17V131.775C151.551 131.76 151.371 131.745 151.191 131.745C149.796 131.745 148.956 132.54 148.956 134.07V138ZM154.495 126.9V129.15H152.77V126.9H154.495ZM152.8 130.275H154.45V138H152.8V130.275ZM159.606 138.195C157.296 138.195 155.796 136.605 155.796 134.25V134.025C155.796 131.67 157.296 130.095 159.606 130.095C161.931 130.095 163.431 131.67 163.431 134.025V134.25C163.431 136.605 161.931 138.195 159.606 138.195ZM159.606 136.86C161.016 136.86 161.751 135.915 161.751 134.25V134.025C161.751 132.36 161.016 131.43 159.606 131.43C158.211 131.43 157.476 132.36 157.476 134.025V134.25C157.476 135.915 158.211 136.86 159.606 136.86ZM69.1776 156H67.4376V145.35H74.4126V146.805H69.1776V150.015H73.9176V151.47H69.1776V156ZM80.4526 156H75.7726V145.35H80.1226C82.2226 145.35 83.5876 146.205 83.5876 148.08V148.245C83.5876 149.16 83.1076 149.97 82.2226 150.375C83.3776 150.735 84.0676 151.695 84.0676 152.85V153.03C84.0676 154.92 82.5526 156 80.4526 156ZM77.4826 146.79V149.85H80.0326C81.2776 149.85 81.8326 149.31 81.8326 148.38V148.215C81.8326 147.18 81.1876 146.79 79.9876 146.79H77.4826ZM77.4826 151.29V154.56H80.3176C81.5176 154.56 82.2976 154.035 82.2976 153V152.805C82.2976 151.815 81.6376 151.29 80.3926 151.29H77.4826ZM90.1205 156H85.4405V145.35H89.7905C91.8905 145.35 93.2555 146.205 93.2555 148.08V148.245C93.2555 149.16 92.7755 149.97 91.8905 150.375C93.0455 150.735 93.7355 151.695 93.7355 152.85V153.03C93.7355 154.92 92.2205 156 90.1205 156ZM87.1505 146.79V149.85H89.7005C90.9455 149.85 91.5005 149.31 91.5005 148.38V148.215C91.5005 147.18 90.8555 146.79 89.6555 146.79H87.1505ZM87.1505 151.29V154.56H89.9855C91.1855 154.56 91.9655 154.035 91.9655 153V152.805C91.9655 151.815 91.3055 151.29 90.0605 151.29H87.1505ZM98.8603 156.195C96.3853 156.195 94.8253 154.335 94.8253 150.96V150.42C94.8253 147.09 96.3553 145.155 98.8753 145.155C100.9 145.155 102.295 146.31 102.565 148.155H100.84C100.645 147.165 99.9403 146.595 98.8753 146.595C97.3753 146.595 96.4753 147.585 96.4753 150.285V150.57C96.9703 149.715 97.9453 149.13 99.2203 149.13C101.11 149.13 102.64 150.42 102.64 152.445V152.61C102.64 154.695 101.065 156.195 98.8603 156.195ZM98.8603 154.785C100.06 154.785 100.87 153.945 100.87 152.685V152.475C100.87 151.305 100.075 150.51 98.8603 150.51C97.6303 150.51 96.7903 151.335 96.7903 152.49V152.685C96.7903 153.9 97.6303 154.785 98.8603 154.785ZM107.852 156.195C105.287 156.195 103.907 154.14 103.907 150.825V150.525C103.907 147.24 105.287 145.155 107.852 145.155C110.462 145.155 111.812 147.24 111.812 150.525V150.825C111.812 154.14 110.477 156.195 107.852 156.195ZM107.852 154.755C109.367 154.755 110.027 153.51 110.027 150.9V150.45C110.027 147.855 109.367 146.595 107.852 146.595C106.382 146.595 105.692 147.855 105.692 150.45V150.9C105.692 153.51 106.382 154.755 107.852 154.755ZM117.08 156.195C114.515 156.195 113.135 154.14 113.135 150.825V150.525C113.135 147.24 114.515 145.155 117.08 145.155C119.69 145.155 121.04 147.24 121.04 150.525V150.825C121.04 154.14 119.705 156.195 117.08 156.195ZM117.08 154.755C118.595 154.755 119.255 153.51 119.255 150.9V150.45C119.255 147.855 118.595 146.595 117.08 146.595C115.61 146.595 114.92 147.855 114.92 150.45V150.9C114.92 153.51 115.61 154.755 117.08 154.755ZM132.805 156.195C129.79 156.195 127.825 154.02 127.825 150.855V150.495C127.825 147.36 129.805 145.155 132.82 145.155C135.385 145.155 137.11 146.775 137.32 149.22H135.55C135.34 147.615 134.32 146.655 132.805 146.655C130.81 146.655 129.625 148.23 129.625 150.495V150.855C129.625 153.12 130.825 154.68 132.805 154.68C134.425 154.68 135.46 153.6 135.535 151.98H137.32C137.155 154.41 135.46 156.195 132.805 156.195ZM141.677 145.86L140.732 147.15H139.457L140.642 144.9H142.727L143.912 147.15H142.637L141.677 145.86ZM140.687 156.195C139.097 156.195 138.092 155.235 138.092 153.915C138.092 152.685 138.842 151.875 140.162 151.695L143.207 151.245V150.69C143.207 149.835 142.622 149.385 141.647 149.385C140.687 149.385 140.042 149.82 139.967 150.6H138.392C138.527 149.01 139.787 148.095 141.677 148.095C143.672 148.095 144.797 149.145 144.797 150.75V156H143.282L143.222 154.8C142.742 155.67 141.797 156.195 140.687 156.195ZM141.062 154.89C142.217 154.89 143.207 154.17 143.207 153.165V152.46L140.732 152.805C140.027 152.91 139.697 153.24 139.697 153.84C139.697 154.485 140.192 154.89 141.062 154.89ZM148.056 156H146.406V148.275H147.996L148.041 149.475C148.431 148.74 149.211 148.095 150.426 148.095C151.581 148.095 152.376 148.62 152.736 149.595C153.276 148.65 154.146 148.095 155.286 148.095C157.056 148.095 157.866 149.235 157.866 151.02V156H156.216V151.35C156.216 150.075 155.751 149.46 154.731 149.46C153.621 149.46 152.976 150.285 152.976 151.71V156H151.326V151.365C151.326 150.105 150.876 149.46 149.856 149.46C148.746 149.46 148.056 150.27 148.056 151.725V156ZM163.612 156.195C162.307 156.195 161.437 155.46 161.062 154.725L161.017 156H159.472V144.9H161.137V149.415C161.587 148.68 162.427 148.095 163.657 148.095C165.682 148.095 166.957 149.73 166.957 152.025V152.25C166.957 154.56 165.637 156.195 163.612 156.195ZM163.207 154.86C164.527 154.86 165.277 153.9 165.277 152.25V152.025C165.277 150.36 164.527 149.4 163.207 149.4C161.827 149.4 161.077 150.36 161.077 152.025V152.25C161.077 153.915 161.827 154.86 163.207 154.86ZM170 144.9V147.15H168.275V144.9H170ZM168.305 148.275H169.955V156H168.305V148.275ZM175.111 156.195C172.801 156.195 171.301 154.605 171.301 152.25V152.025C171.301 149.67 172.801 148.095 175.111 148.095C177.436 148.095 178.936 149.67 178.936 152.025V152.25C178.936 154.605 177.436 156.195 175.111 156.195ZM175.111 154.86C176.521 154.86 177.256 153.915 177.256 152.25V152.025C177.256 150.36 176.521 149.43 175.111 149.43C173.716 149.43 172.981 150.36 172.981 152.025V152.25C172.981 153.915 173.716 154.86 175.111 154.86Z" fill="black"/>
<path d="M246.988 128L216 181H247V128H246.988Z" fill="black"/>
<g filter="url(#filter0_d_85_535)">
<path d="M132.182 76.438C123.888 76.438 115.072 79.3926 115.072 84.8662V106.575C115.072 112.049 123.888 115.003 132.182 115.003C140.475 115.003 149.291 112.049 149.291 106.575V84.8662C149.291 79.3926 140.475 76.438 132.182 76.438ZM145.462 95.7189C145.462 97.5491 140.164 100.318 132.182 100.318C124.199 100.318 118.901 97.5491 118.901 95.7189V90.3095C122.241 92.268 127.299 93.2911 132.182 93.2911C137.064 93.2911 142.123 92.268 145.462 90.3095V95.7189ZM132.182 80.2672C140.164 80.2672 145.462 83.0361 145.462 84.8662C145.462 86.6964 140.164 89.4653 132.182 89.4653C124.199 89.4653 118.901 86.6964 118.901 84.8662C118.901 83.0361 124.199 80.2672 132.182 80.2672ZM132.182 111.171C124.199 111.171 118.901 108.402 118.901 106.572V101.162C122.241 103.121 127.299 104.144 132.182 104.144C137.064 104.144 142.123 103.121 145.462 101.162V106.572C145.462 108.402 140.164 111.171 132.182 111.171ZM111.364 78.5856C103.932 78.3053 99.3668 75.7323 99.3668 74.0135V68.6041C102.706 70.5625 107.765 71.5857 112.647 71.5857C117.53 71.5857 122.588 70.5625 125.928 68.6041V71.8423C125.928 72.8992 126.786 73.7569 127.842 73.7569C128.899 73.7569 129.757 72.8992 129.757 71.8423V63.1608C129.757 57.6872 120.94 54.7326 112.647 54.7326C104.354 54.7326 95.5376 57.6872 95.5376 63.1608V95.7223C95.5376 100.109 101.633 103.546 110.361 104.08C110.402 104.08 110.442 104.083 110.479 104.083C111.482 104.083 112.327 103.3 112.387 102.287C112.451 101.233 111.648 100.325 110.594 100.261C103.638 99.8351 99.3634 97.333 99.3634 95.7257V90.3128C101.99 91.8864 105.816 92.9534 110.355 93.2303C110.395 93.2303 110.436 93.2337 110.473 93.2337C111.476 93.2337 112.32 92.4503 112.381 91.4373C112.445 90.3838 111.641 89.4754 110.588 89.4079C103.632 88.9824 99.36 86.4803 99.36 84.873V79.5007C102.146 81.1586 106.279 82.2324 111.212 82.4215C111.236 82.4215 111.263 82.4215 111.287 82.4215C112.31 82.4215 113.161 81.6111 113.198 80.5812C113.238 79.5243 112.414 78.6362 111.357 78.5957L111.364 78.5856ZM112.647 58.5618C120.63 58.5618 125.928 61.3307 125.928 63.1608C125.928 64.991 120.63 67.7599 112.647 67.7599C104.665 67.7599 99.3668 64.991 99.3668 63.1608C99.3668 61.3307 104.665 58.5618 112.647 58.5618ZM171 45.7911C171 46.3786 170.73 46.9324 170.267 47.2971L139.877 71.1737C139.3 71.6262 138.516 71.7106 137.858 71.3898C137.199 71.069 136.781 70.4005 136.781 69.6677V58.5584H132.182C131.125 58.5584 130.267 57.7007 130.267 56.6438C130.267 55.5869 131.125 54.7292 132.182 54.7292H138.695C139.752 54.7292 140.61 55.5869 140.61 56.6438V65.7305L165.989 45.7911L140.61 25.8517V34.9384C140.61 35.9953 139.752 36.853 138.695 36.853H103.939C97.1584 36.853 91.0297 39.5341 86.6805 44.41C82.2672 49.3535 79.8326 56.3635 79.8258 64.1434C79.8258 65.7406 79.9237 67.3175 80.1128 68.8607C81.8383 65.0788 85.0428 61.746 89.5237 59.308C90.4523 58.8015 91.6139 59.1459 92.1204 60.0745C92.6269 61.0031 92.2824 62.1647 91.3539 62.6712C84.2831 66.5206 81.1596 72.6696 82.9864 79.1326C84.1007 81.5638 85.4919 83.8127 87.1532 85.8151C87.8286 86.6289 87.7172 87.8344 86.9 88.5097C86.5421 88.8068 86.1098 88.952 85.6776 88.952C85.1272 88.952 84.5802 88.7157 84.202 88.2598C78.9073 81.8643 75.9933 73.2977 76 64.1401C76.0068 55.4181 78.7858 47.5065 83.8272 41.8606C88.9193 36.1574 96.061 33.0137 103.966 33.0272H136.781V21.9145C136.781 21.1817 137.199 20.5131 137.858 20.1923C138.516 19.8716 139.3 19.956 139.877 20.4085L170.267 44.2851C170.73 44.6498 171 45.2035 171 45.7911Z" fill="black"/>
</g>
</g>
<path d="M246 176H0V184H246V176Z" fill="black" mask="url(#path-1-inside-1_85_535)"/>
<defs>
<filter id="filter0_d_85_535" x="76" y="19.9995" width="97" height="97.0039" filterUnits="userSpaceOnUse" color-interpolation-filters="sRGB">
<feFlood flood-opacity="0" result="BackgroundImageFix"/>
<feColorMatrix in="SourceAlpha" type="matrix" values="0 0 0 0 0 0 0 0 0 0 0 0 0 0 0 0 0 0 127 0" result="hardAlpha"/>
<feOffset dx="2" dy="2"/>
<feComposite in2="hardAlpha" operator="out"/>
<feColorMatrix type="matrix" values="0 0 0 0 0 0 0 0 0 0 0 0 0 0 0 0 0 0 0.1 0"/>
<feBlend mode="normal" in2="BackgroundImageFix" result="effect1_dropShadow_85_535"/>
<feBlend mode="normal" in="SourceGraphic" in2="effect1_dropShadow_85_535" result="shape"/>
</filter>
<clipPath id="clip0_85_535">
<path d="M0 0H246V180H0V0Z" fill="white"/>
</clipPath>
</defs>
</svg>
